<svg xmlns="http://www.w3.org/2000/svg" width="920" height="560" viewBox="0 0 920 560">
<rect width="100%" height="100%" fill="white"/>
<text x="76" y="34" font-size="22" font-weight="700" fill="#17233c">Bootstrap 抽样分布：数字人民币信贷导向规制能力的处理效应</text>
<text x="76" y="58" font-size="13" fill="#667085">以省份为重抽样单位；横轴为重复抽样得到的处理效应估计值</text>
<rect x="198.37" y="72" width="342.73" height="396" fill="#3182bd" opacity="0.12"/>
<line x1="70" y1="468.00" x2="76" y2="468.00" stroke="#777"/><line x1="76" y1="468.00" x2="884" y2="468.00" stroke="#e6e6e6"/><text x="66" y="472.00" text-anchor="end" font-size="12" fill="#555">0</text><line x1="70" y1="369.00" x2="76" y2="369.00" stroke="#777"/><line x1="76" y1="369.00" x2="884" y2="369.00" stroke="#e6e6e6"/><text x="66" y="373.00" text-anchor="end" font-size="12" fill="#555">25</text><line x1="70" y1="270.00" x2="76" y2="270.00" stroke="#777"/><line x1="76" y1="270.00" x2="884" y2="270.00" stroke="#e6e6e6"/><text x="66" y="274.00" text-anchor="end" font-size="12" fill="#555">50</text><line x1="70" y1="171.00" x2="76" y2="171.00" stroke="#777"/><line x1="76" y1="171.00" x2="884" y2="171.00" stroke="#e6e6e6"/><text x="66" y="175.00" text-anchor="end" font-size="12" fill="#555">76</text><line x1="70" y1="72.00" x2="76" y2="72.00" stroke="#777"/><line x1="76" y1="72.00" x2="884" y2="72.00" stroke="#e6e6e6"/><text x="66" y="76.00" text-anchor="end" font-size="12" fill="#555">101</text>
<line x1="76" y1="468" x2="884" y2="468" stroke="#444"/>
<line x1="76" y1="72" x2="76" y2="468" stroke="#444"/>
<rect x="119.29" y="448.40" width="19.04" height="19.60" fill="#9ecae1" opacity="0.9"/><rect x="139.33" y="452.32" width="19.04" height="15.68" fill="#9ecae1" opacity="0.9"/><rect x="159.37" y="444.48" width="19.04" height="23.52" fill="#9ecae1" opacity="0.9"/><rect x="179.40" y="424.87" width="19.04" height="43.13" fill="#9ecae1" opacity="0.9"/><rect x="199.44" y="381.74" width="19.04" height="86.26" fill="#9ecae1" opacity="0.9"/><rect x="219.48" y="326.85" width="19.04" height="141.15" fill="#9ecae1" opacity="0.9"/><rect x="239.52" y="315.09" width="19.04" height="152.91" fill="#9ecae1" opacity="0.9"/><rect x="259.56" y="228.83" width="19.04" height="239.17" fill="#9ecae1" opacity="0.9"/><rect x="279.60" y="154.34" width="19.04" height="313.66" fill="#9ecae1" opacity="0.9"/><rect x="299.64" y="126.89" width="19.04" height="341.11" fill="#9ecae1" opacity="0.9"/><rect x="319.68" y="142.57" width="19.04" height="325.43" fill="#9ecae1" opacity="0.9"/><rect x="339.72" y="158.26" width="19.04" height="309.74" fill="#9ecae1" opacity="0.9"/><rect x="359.76" y="72.00" width="19.04" height="396.00" fill="#9ecae1" opacity="0.9"/><rect x="379.80" y="185.70" width="19.04" height="282.30" fill="#9ecae1" opacity="0.9"/><rect x="399.84" y="158.26" width="19.04" height="309.74" fill="#9ecae1" opacity="0.9"/><rect x="419.88" y="260.20" width="19.04" height="207.80" fill="#9ecae1" opacity="0.9"/><rect x="439.92" y="315.09" width="19.04" height="152.91" fill="#9ecae1" opacity="0.9"/><rect x="459.96" y="287.64" width="19.04" height="180.36" fill="#9ecae1" opacity="0.9"/><rect x="480.00" y="354.30" width="19.04" height="113.70" fill="#9ecae1" opacity="0.9"/><rect x="500.04" y="362.14" width="19.04" height="105.86" fill="#9ecae1" opacity="0.9"/><rect x="520.08" y="409.19" width="19.04" height="58.81" fill="#9ecae1" opacity="0.9"/><rect x="540.12" y="436.63" width="19.04" height="31.37" fill="#9ecae1" opacity="0.9"/><rect x="560.16" y="448.40" width="19.04" height="19.60" fill="#9ecae1" opacity="0.9"/><rect x="580.20" y="456.24" width="19.04" height="11.76" fill="#9ecae1" opacity="0.9"/><rect x="600.24" y="456.24" width="19.04" height="11.76" fill="#9ecae1" opacity="0.9"/><rect x="620.28" y="456.24" width="19.04" height="11.76" fill="#9ecae1" opacity="0.9"/><rect x="640.32" y="464.08" width="19.04" height="3.92" fill="#9ecae1" opacity="0.9"/><rect x="660.36" y="460.16" width="19.04" height="7.84" fill="#9ecae1" opacity="0.9"/><rect x="680.40" y="468.00" width="19.04" height="0.00" fill="#9ecae1" opacity="0.9"/><rect x="700.44" y="468.00" width="19.04" height="0.00" fill="#9ecae1" opacity="0.9"/><rect x="720.48" y="468.00" width="19.04" height="0.00" fill="#9ecae1" opacity="0.9"/><rect x="740.52" y="468.00" width="19.04" height="0.00" fill="#9ecae1" opacity="0.9"/><rect x="760.56" y="468.00" width="19.04" height="0.00" fill="#9ecae1" opacity="0.9"/><rect x="780.60" y="468.00" width="19.04" height="0.00" fill="#9ecae1" opacity="0.9"/><rect x="800.63" y="468.00" width="19.04" height="0.00" fill="#9ecae1" opacity="0.9"/><rect x="820.67" y="464.08" width="19.04" height="3.92" fill="#9ecae1" opacity="0.9"/>
<line x1="152.77" y1="72" x2="152.77" y2="468" stroke="#c0392b" stroke-width="2" stroke-dasharray="7,6"/>
<line x1="363.30" y1="72" x2="363.30" y2="468" stroke="#08519c" stroke-width="3"/>
<line x1="76.00" y1="468" x2="76.00" y2="474" stroke="#777"/><text x="76.00" y="493" text-anchor="middle" font-size="12" fill="#555">-0.17</text><line x1="237.60" y1="468" x2="237.60" y2="474" stroke="#777"/><text x="237.60" y="493" text-anchor="middle" font-size="12" fill="#555">0.19</text><line x1="399.20" y1="468" x2="399.20" y2="474" stroke="#777"/><text x="399.20" y="493" text-anchor="middle" font-size="12" fill="#555">0.54</text><line x1="560.80" y1="468" x2="560.80" y2="474" stroke="#777"/><text x="560.80" y="493" text-anchor="middle" font-size="12" fill="#555">0.90</text><line x1="722.40" y1="468" x2="722.40" y2="474" stroke="#777"/><text x="722.40" y="493" text-anchor="middle" font-size="12" fill="#555">1.25</text><line x1="884.00" y1="468" x2="884.00" y2="474" stroke="#777"/><text x="884.00" y="493" text-anchor="middle" font-size="12" fill="#555">1.61</text>
<text x="480.0" y="522" text-anchor="middle" font-size="14" fill="#333">处理效应估计值</text>
<text transform="translate(24 270.0) rotate(-90)" text-anchor="middle" font-size="14" fill="#333">频数</text>
<rect x="605" y="82" width="260" height="78" fill="white" stroke="#dddddd"/>
<line x1="628" y1="105" x2="660" y2="105" stroke="#08519c" stroke-width="3"/>
<text x="670" y="110" font-size="13" fill="#333">基准估计值 = 0.463</text>
<line x1="628" y1="130" x2="660" y2="130" stroke="#c0392b" stroke-width="2" stroke-dasharray="7,6"/>
<text x="670" y="135" font-size="13" fill="#333">零效应</text>
<rect x="628" y="145" width="32" height="12" fill="#3182bd" opacity="0.12"/>
<text x="670" y="156" font-size="13" fill="#333">Bootstrap 95% CI</text>
<text x="76" y="548" font-size="12" fill="#555">注：Bootstrap 95% CI=[0.100, 0.855]；P(系数&gt;0)=99.3%。</text>
</svg>