<svg xmlns="http://www.w3.org/2000/svg" width="900" height="620" viewBox="0 0 900 620">
<rect width="100%" height="100%" fill="#ffffff"/>
<style>text{font-family:Arial,"Microsoft YaHei",sans-serif;fill:#111827}.title{font-size:22px;font-weight:700}.tick{font-size:24px;fill:#374151}.xlab{font-size:26px;fill:#374151}.small{font-size:13px;fill:#4b5563}.grid{stroke:#e5e7eb;stroke-width:1.2}.axisline{stroke:#bdbdbd;stroke-width:2}</style>
<text x="55" y="42" class="title">累计递增 D_credit 对 credit_secondary 的四类模型估计</text>
<line x1="130" y1="464.7" x2="830" y2="464.7" class="grid"/>
<text x="114" y="472.7" text-anchor="end" class="tick">0.00</text>
<line x1="130" y1="370.0" x2="830" y2="370.0" class="grid"/>
<text x="114" y="378.0" text-anchor="end" class="tick">1.15</text>
<line x1="130" y1="275.3" x2="830" y2="275.3" class="grid"/>
<text x="114" y="283.3" text-anchor="end" class="tick">2.30</text>
<line x1="130" y1="180.7" x2="830" y2="180.7" class="grid"/>
<text x="114" y="188.7" text-anchor="end" class="tick">3.45</text>
<line x1="130" y1="86.0" x2="830" y2="86.0" class="grid"/>
<text x="114" y="94.0" text-anchor="end" class="tick">4.61</text>
<line x1="130" y1="464.7" x2="830" y2="464.7" class="axisline"/>
<line x1="217.5" y1="409.1" x2="217.5" y2="287.4" stroke="#fb6a64" stroke-width="3"/>
<line x1="179.5" y1="409.1" x2="255.5" y2="409.1" stroke="#fb6a64" stroke-width="3"/>
<line x1="179.5" y1="287.4" x2="255.5" y2="287.4" stroke="#fb6a64" stroke-width="3"/>
<circle cx="217.5" cy="348.3" r="7" fill="#fb6a64" stroke="#fff" stroke-width="2"/>
<text x="217.5" y="535" text-anchor="middle" class="xlab" transform="rotate(-90 217.5 535)">TWFE</text>
<text x="217.5" y="275.4" text-anchor="middle" class="small">1.4159</text>
<line x1="392.5" y1="408.6" x2="392.5" y2="282.3" stroke="#78a800" stroke-width="3"/>
<line x1="354.5" y1="408.6" x2="430.5" y2="408.6" stroke="#78a800" stroke-width="3"/>
<line x1="354.5" y1="282.3" x2="430.5" y2="282.3" stroke="#78a800" stroke-width="3"/>
<circle cx="392.5" cy="345.5" r="7" fill="#78a800" stroke="#fff" stroke-width="2"/>
<text x="392.5" y="535" text-anchor="middle" class="xlab" transform="rotate(-90 392.5 535)">PLR-DML</text>
<text x="392.5" y="270.3" text-anchor="middle" class="small">1.4498</text>
<line x1="567.5" y1="165.0" x2="567.5" y2="86.4" stroke="#00a9b7" stroke-width="3"/>
<line x1="529.5" y1="165.0" x2="605.5" y2="165.0" stroke="#00a9b7" stroke-width="3"/>
<line x1="529.5" y1="86.4" x2="605.5" y2="86.4" stroke="#00a9b7" stroke-width="3"/>
<circle cx="567.5" cy="125.7" r="7" fill="#00a9b7" stroke="#fff" stroke-width="2"/>
<text x="567.5" y="535" text-anchor="middle" class="xlab" transform="rotate(-90 567.5 535)">EM-GMM</text>
<text x="567.5" y="74.4" text-anchor="middle" class="small">4.1229</text>
<line x1="742.5" y1="409.1" x2="742.5" y2="282.3" stroke="#b66cff" stroke-width="3"/>
<line x1="704.5" y1="409.1" x2="780.5" y2="409.1" stroke="#b66cff" stroke-width="3"/>
<line x1="704.5" y1="282.3" x2="780.5" y2="282.3" stroke="#b66cff" stroke-width="3"/>
<circle cx="742.5" cy="346.9" r="7" fill="#b66cff" stroke="#fff" stroke-width="2"/>
<text x="742.5" y="535" text-anchor="middle" class="xlab" transform="rotate(-90 742.5 535)">Partial-ID</text>
<text x="742.5" y="270.3" text-anchor="middle" class="small">1.4328</text>
<text x="55" y="586" class="small">注：处理变量为 D_credit_PCA_cum × post；点为系数，线为95%置信区间或模型不确定性边界。</text>
</svg>