<?xml version="1.0" encoding="utf-8" standalone="no"?>
<!DOCTYPE svg PUBLIC "-//W3C//DTD SVG 1.1//EN"
  "http://www.w3.org/Graphics/SVG/1.1/DTD/svg11.dtd">
<svg xmlns:xlink="http://www.w3.org/1999/xlink" width="641.287403pt" height="344.317969pt" viewBox="0 0 641.287403 344.317969" xmlns="http://www.w3.org/2000/svg" version="1.1">
 <metadata>
  <rdf:RDF xmlns:dc="http://purl.org/dc/elements/1.1/" xmlns:cc="http://creativecommons.org/ns#" xmlns:rdf="http://www.w3.org/1999/02/22-rdf-syntax-ns#">
   <cc:Work>
    <dc:type rdf:resource="http://purl.org/dc/dcmitype/StillImage"/>
    <dc:date>2026-07-02T12:28:24.225923</dc:date>
    <dc:format>image/svg+xml</dc:format>
    <dc:creator>
     <cc:Agent>
      <dc:title>Matplotlib v3.5.3, https://matplotlib.org/</dc:title>
     </cc:Agent>
    </dc:creator>
   </cc:Work>
  </rdf:RDF>
 </metadata>
 <defs>
  <style type="text/css">*{stroke-linejoin: round; stroke-linecap: butt}</style>
 </defs>
 <g id="figure_1">
  <g id="patch_1">
   <path d="M 0 344.317969 
L 641.287403 344.317969 
L 641.287403 0 
L 0 0 
z
" style="fill: #ffffff"/>
  </g>
  <g id="axes_1">
   <g id="patch_2">
    <path d="M 53.048438 304.110625 
L 546.695057 304.110625 
L 546.695057 25.190625 
L 53.048438 25.190625 
z
" style="fill: #ffffff"/>
   </g>
   <g id="matplotlib.axis_1">
    <g id="xtick_1">
     <g id="line2d_1">
      <path d="M 96.743051 304.110625 
L 96.743051 25.190625 
" clip-path="url(#p6739c21bd9)" style="fill: none; stroke: #e5e7eb; stroke-linecap: square"/>
     </g>
     <g id="line2d_2">
      <defs>
       <path id="m5ec51f9494" d="M 0 0 
L 0 3.5 
" style="stroke: #000000; stroke-width: 0.8"/>
      </defs>
      <g>
       <use xlink:href="#m5ec51f9494" x="96.743051" y="304.110625" style="stroke: #000000; stroke-width: 0.8"/>
      </g>
     </g>
     <g id="text_1">
      <!-- -2.5 -->
      <g transform="translate(87.511801 319.104375)scale(0.1 -0.1)">
       <defs>
        <path id="MicrosoftYaHei-2d" d="M 2328 1681 
L 488 1681 
L 488 2153 
L 2328 2153 
L 2328 1681 
z
" transform="scale(0.015625)"/>
        <path id="MicrosoftYaHei-32" d="M 2666 3572 
Q 2666 3963 2419 4186 
Q 2172 4409 1747 4409 
Q 1447 4409 1140 4256 
Q 834 4103 569 3819 
L 569 4413 
Q 806 4659 1107 4790 
Q 1409 4922 1816 4922 
Q 2472 4922 2872 4570 
Q 3272 4219 3272 3619 
Q 3272 3084 3026 2693 
Q 2781 2303 2188 1894 
Q 1581 1475 1376 1294 
Q 1172 1113 1090 947 
Q 1009 781 1009 544 
L 3416 544 
L 3416 0 
L 372 0 
L 372 241 
Q 372 659 486 951 
Q 600 1244 862 1520 
Q 1125 1797 1681 2184 
Q 2250 2584 2458 2886 
Q 2666 3188 2666 3572 
z
" transform="scale(0.015625)"/>
        <path id="MicrosoftYaHei-2e" d="M 372 322 
Q 372 491 487 606 
Q 603 722 775 722 
Q 950 722 1065 605 
Q 1181 488 1181 322 
Q 1181 159 1065 42 
Q 950 -75 772 -75 
Q 600 -75 486 42 
Q 372 159 372 322 
z
" transform="scale(0.015625)"/>
        <path id="MicrosoftYaHei-35" d="M 3294 1494 
Q 3294 784 2823 350 
Q 2353 -84 1559 -84 
Q 878 -84 544 119 
L 544 744 
Q 1034 425 1544 425 
Q 2050 425 2361 704 
Q 2672 984 2672 1447 
Q 2672 1909 2348 2167 
Q 2025 2425 1434 2425 
Q 978 2425 613 2384 
L 791 4841 
L 3053 4841 
L 3053 4303 
L 1306 4303 
L 1206 2931 
L 1647 2950 
Q 2416 2950 2855 2567 
Q 3294 2184 3294 1494 
z
" transform="scale(0.015625)"/>
       </defs>
       <use xlink:href="#MicrosoftYaHei-2d"/>
       <use xlink:href="#MicrosoftYaHei-32" x="43.261719"/>
       <use xlink:href="#MicrosoftYaHei-2e" x="101.904297"/>
       <use xlink:href="#MicrosoftYaHei-35" x="125.976562"/>
      </g>
     </g>
    </g>
    <g id="xtick_2">
     <g id="line2d_3">
      <path d="M 152.125061 304.110625 
L 152.125061 25.190625 
" clip-path="url(#p6739c21bd9)" style="fill: none; stroke: #e5e7eb; stroke-linecap: square"/>
     </g>
     <g id="line2d_4">
      <g>
       <use xlink:href="#m5ec51f9494" x="152.125061" y="304.110625" style="stroke: #000000; stroke-width: 0.8"/>
      </g>
     </g>
     <g id="text_2">
      <!-- 0.0 -->
      <g transform="translate(145.057092 319.104375)scale(0.1 -0.1)">
       <defs>
        <path id="MicrosoftYaHei-30" d="M 284 2325 
Q 284 3606 709 4264 
Q 1134 4922 1941 4922 
Q 3478 4922 3478 2441 
Q 3478 1216 3045 567 
Q 2613 -81 1831 -81 
Q 1094 -81 689 534 
Q 284 1150 284 2325 
z
M 909 2353 
Q 909 425 1888 425 
Q 2850 425 2850 2384 
Q 2850 4413 1906 4413 
Q 909 4413 909 2353 
z
" transform="scale(0.015625)"/>
       </defs>
       <use xlink:href="#MicrosoftYaHei-30"/>
       <use xlink:href="#MicrosoftYaHei-2e" x="58.642578"/>
       <use xlink:href="#MicrosoftYaHei-30" x="82.714844"/>
      </g>
     </g>
    </g>
    <g id="xtick_3">
     <g id="line2d_5">
      <path d="M 207.50707 304.110625 
L 207.50707 25.190625 
" clip-path="url(#p6739c21bd9)" style="fill: none; stroke: #e5e7eb; stroke-linecap: square"/>
     </g>
     <g id="line2d_6">
      <g>
       <use xlink:href="#m5ec51f9494" x="207.50707" y="304.110625" style="stroke: #000000; stroke-width: 0.8"/>
      </g>
     </g>
     <g id="text_3">
      <!-- 2.5 -->
      <g transform="translate(200.439102 319.104375)scale(0.1 -0.1)">
       <use xlink:href="#MicrosoftYaHei-32"/>
       <use xlink:href="#MicrosoftYaHei-2e" x="58.642578"/>
       <use xlink:href="#MicrosoftYaHei-35" x="82.714844"/>
      </g>
     </g>
    </g>
    <g id="xtick_4">
     <g id="line2d_7">
      <path d="M 262.88908 304.110625 
L 262.88908 25.190625 
" clip-path="url(#p6739c21bd9)" style="fill: none; stroke: #e5e7eb; stroke-linecap: square"/>
     </g>
     <g id="line2d_8">
      <g>
       <use xlink:href="#m5ec51f9494" x="262.88908" y="304.110625" style="stroke: #000000; stroke-width: 0.8"/>
      </g>
     </g>
     <g id="text_4">
      <!-- 5.0 -->
      <g transform="translate(255.821111 319.104375)scale(0.1 -0.1)">
       <use xlink:href="#MicrosoftYaHei-35"/>
       <use xlink:href="#MicrosoftYaHei-2e" x="58.642578"/>
       <use xlink:href="#MicrosoftYaHei-30" x="82.714844"/>
      </g>
     </g>
    </g>
    <g id="xtick_5">
     <g id="line2d_9">
      <path d="M 318.271089 304.110625 
L 318.271089 25.190625 
" clip-path="url(#p6739c21bd9)" style="fill: none; stroke: #e5e7eb; stroke-linecap: square"/>
     </g>
     <g id="line2d_10">
      <g>
       <use xlink:href="#m5ec51f9494" x="318.271089" y="304.110625" style="stroke: #000000; stroke-width: 0.8"/>
      </g>
     </g>
     <g id="text_5">
      <!-- 7.5 -->
      <g transform="translate(311.203121 319.104375)scale(0.1 -0.1)">
       <defs>
        <path id="MicrosoftYaHei-37" d="M 3422 4463 
Q 2659 3131 2223 1998 
Q 1788 866 1684 0 
L 1047 0 
Q 1163 853 1594 1947 
Q 2025 3041 2747 4300 
L 347 4300 
L 347 4841 
L 3422 4841 
L 3422 4463 
z
" transform="scale(0.015625)"/>
       </defs>
       <use xlink:href="#MicrosoftYaHei-37"/>
       <use xlink:href="#MicrosoftYaHei-2e" x="58.642578"/>
       <use xlink:href="#MicrosoftYaHei-35" x="82.714844"/>
      </g>
     </g>
    </g>
    <g id="xtick_6">
     <g id="line2d_11">
      <path d="M 373.653099 304.110625 
L 373.653099 25.190625 
" clip-path="url(#p6739c21bd9)" style="fill: none; stroke: #e5e7eb; stroke-linecap: square"/>
     </g>
     <g id="line2d_12">
      <g>
       <use xlink:href="#m5ec51f9494" x="373.653099" y="304.110625" style="stroke: #000000; stroke-width: 0.8"/>
      </g>
     </g>
     <g id="text_6">
      <!-- 10.0 -->
      <g transform="translate(363.653099 319.104375)scale(0.1 -0.1)">
       <defs>
        <path id="MicrosoftYaHei-31" d="M 1781 0 
L 1781 4141 
Q 1638 3997 1295 3819 
Q 953 3641 663 3569 
L 663 4169 
Q 1047 4275 1484 4508 
Q 1922 4741 2156 4947 
L 2388 4947 
L 2388 0 
L 1781 0 
z
" transform="scale(0.015625)"/>
       </defs>
       <use xlink:href="#MicrosoftYaHei-31"/>
       <use xlink:href="#MicrosoftYaHei-30" x="58.642578"/>
       <use xlink:href="#MicrosoftYaHei-2e" x="117.285156"/>
       <use xlink:href="#MicrosoftYaHei-30" x="141.357422"/>
      </g>
     </g>
    </g>
    <g id="xtick_7">
     <g id="line2d_13">
      <path d="M 429.035108 304.110625 
L 429.035108 25.190625 
" clip-path="url(#p6739c21bd9)" style="fill: none; stroke: #e5e7eb; stroke-linecap: square"/>
     </g>
     <g id="line2d_14">
      <g>
       <use xlink:href="#m5ec51f9494" x="429.035108" y="304.110625" style="stroke: #000000; stroke-width: 0.8"/>
      </g>
     </g>
     <g id="text_7">
      <!-- 12.5 -->
      <g transform="translate(419.035108 319.104375)scale(0.1 -0.1)">
       <use xlink:href="#MicrosoftYaHei-31"/>
       <use xlink:href="#MicrosoftYaHei-32" x="58.642578"/>
       <use xlink:href="#MicrosoftYaHei-2e" x="117.285156"/>
       <use xlink:href="#MicrosoftYaHei-35" x="141.357422"/>
      </g>
     </g>
    </g>
    <g id="xtick_8">
     <g id="line2d_15">
      <path d="M 484.417118 304.110625 
L 484.417118 25.190625 
" clip-path="url(#p6739c21bd9)" style="fill: none; stroke: #e5e7eb; stroke-linecap: square"/>
     </g>
     <g id="line2d_16">
      <g>
       <use xlink:href="#m5ec51f9494" x="484.417118" y="304.110625" style="stroke: #000000; stroke-width: 0.8"/>
      </g>
     </g>
     <g id="text_8">
      <!-- 15.0 -->
      <g transform="translate(474.417118 319.104375)scale(0.1 -0.1)">
       <use xlink:href="#MicrosoftYaHei-31"/>
       <use xlink:href="#MicrosoftYaHei-35" x="58.642578"/>
       <use xlink:href="#MicrosoftYaHei-2e" x="117.285156"/>
       <use xlink:href="#MicrosoftYaHei-30" x="141.357422"/>
      </g>
     </g>
    </g>
    <g id="xtick_9">
     <g id="line2d_17">
      <path d="M 539.799127 304.110625 
L 539.799127 25.190625 
" clip-path="url(#p6739c21bd9)" style="fill: none; stroke: #e5e7eb; stroke-linecap: square"/>
     </g>
     <g id="line2d_18">
      <g>
       <use xlink:href="#m5ec51f9494" x="539.799127" y="304.110625" style="stroke: #000000; stroke-width: 0.8"/>
      </g>
     </g>
     <g id="text_9">
      <!-- 17.5 -->
      <g transform="translate(529.799127 319.104375)scale(0.1 -0.1)">
       <use xlink:href="#MicrosoftYaHei-31"/>
       <use xlink:href="#MicrosoftYaHei-37" x="58.642578"/>
       <use xlink:href="#MicrosoftYaHei-2e" x="117.285156"/>
       <use xlink:href="#MicrosoftYaHei-35" x="141.357422"/>
      </g>
     </g>
    </g>
    <g id="text_10">
     <!-- 组内 CATE -->
     <g transform="translate(273.944404 334.383437)scale(0.11 -0.11)">
      <defs>
       <path id="MicrosoftYaHei-7ec4" d="M 1994 -516 
L 1994 -66 
L 2738 -66 
L 2738 4941 
L 5763 4941 
L 5763 -66 
L 6313 -66 
L 6313 -516 
L 1994 -516 
z
M 969 1703 
Q 1606 1784 2300 1872 
Q 2275 1603 2256 1447 
Q 1331 1328 400 1191 
L 300 1647 
Q 697 1956 1284 2941 
Q 597 2897 256 2866 
L 131 3278 
Q 619 3866 1200 5291 
L 1706 5116 
Q 1163 4091 681 3316 
Q 1197 3319 1506 3328 
Q 1756 3775 2038 4334 
L 2519 4122 
Q 1806 2859 969 1703 
z
M 5288 4491 
L 3213 4491 
L 3213 3259 
L 5288 3259 
L 5288 4491 
z
M 3213 -66 
L 5288 -66 
L 5288 1166 
L 3213 1166 
L 3213 -66 
z
M 3213 1597 
L 5288 1597 
L 5288 2828 
L 3213 2828 
L 3213 1597 
z
M 181 291 
Q 1088 459 2356 741 
Q 2331 453 2331 266 
Q 1031 -3 319 -184 
L 181 291 
z
" transform="scale(0.015625)"/>
       <path id="MicrosoftYaHei-5185" d="M 638 4184 
L 2944 4184 
L 2944 5259 
L 3456 5259 
L 3456 4184 
L 5750 4184 
L 5750 59 
Q 5750 -734 4969 -728 
Q 4556 -728 3956 -716 
Q 3938 -503 3863 -172 
Q 4456 -222 4850 -228 
Q 5244 -241 5244 166 
L 5244 3709 
L 3444 3709 
Q 3419 3141 3306 2697 
Q 4413 1809 5094 1134 
L 4713 728 
Q 4044 1459 3156 2247 
Q 2731 1328 1538 647 
Q 1275 1009 1188 1097 
Q 2206 1634 2581 2291 
Q 2881 2772 2931 3709 
L 1144 3709 
L 1144 -784 
L 638 -784 
L 638 4184 
z
" transform="scale(0.015625)"/>
       <path id="MicrosoftYaHei-20" transform="scale(0.015625)"/>
       <path id="MicrosoftYaHei-43" d="M 3938 200 
Q 3403 -81 2597 -81 
Q 1556 -81 934 580 
Q 313 1241 313 2328 
Q 313 3497 1013 4209 
Q 1713 4922 2791 4922 
Q 3484 4922 3938 4725 
L 3938 4072 
Q 3419 4359 2797 4359 
Q 1988 4359 1478 3820 
Q 969 3281 969 2366 
Q 969 1497 1444 986 
Q 1919 475 2688 475 
Q 3406 475 3938 800 
L 3938 200 
z
" transform="scale(0.015625)"/>
       <path id="MicrosoftYaHei-41" d="M 4428 0 
L 3738 0 
L 3244 1325 
L 1228 1325 
L 763 0 
L 72 0 
L 1916 4841 
L 2584 4841 
L 4428 0 
z
M 3050 1872 
L 2319 3884 
Q 2284 3981 2244 4222 
L 2228 4222 
Q 2194 4003 2150 3884 
L 1425 1872 
L 3050 1872 
z
" transform="scale(0.015625)"/>
       <path id="MicrosoftYaHei-54" d="M 3550 4284 
L 2153 4284 
L 2153 0 
L 1525 0 
L 1525 4284 
L 134 4284 
L 134 4841 
L 3550 4841 
L 3550 4284 
z
" transform="scale(0.015625)"/>
       <path id="MicrosoftYaHei-45" d="M 3228 0 
L 625 0 
L 625 4841 
L 3119 4841 
L 3119 4284 
L 1250 4284 
L 1250 2734 
L 2981 2734 
L 2981 2181 
L 1250 2181 
L 1250 553 
L 3228 553 
L 3228 0 
z
" transform="scale(0.015625)"/>
      </defs>
      <use xlink:href="#MicrosoftYaHei-7ec4"/>
      <use xlink:href="#MicrosoftYaHei-5185" x="100"/>
      <use xlink:href="#MicrosoftYaHei-20" x="200"/>
      <use xlink:href="#MicrosoftYaHei-43" x="229.589844"/>
      <use xlink:href="#MicrosoftYaHei-41" x="296.484375"/>
      <use xlink:href="#MicrosoftYaHei-54" x="359.095703"/>
      <use xlink:href="#MicrosoftYaHei-45" x="416.419922"/>
     </g>
    </g>
   </g>
   <g id="matplotlib.axis_2">
    <g id="ytick_1">
     <g id="line2d_19">
      <path d="M 53.048438 291.432443 
L 546.695057 291.432443 
" clip-path="url(#p6739c21bd9)" style="fill: none; stroke: #edf2f7; stroke-width: 0.8; stroke-linecap: square"/>
     </g>
     <g id="line2d_20">
      <defs>
       <path id="m030c3df8fd" d="M 0 0 
L -3.5 0 
" style="stroke: #000000; stroke-width: 0.8"/>
      </defs>
      <g>
       <use xlink:href="#m030c3df8fd" x="53.048438" y="291.432443" style="stroke: #000000; stroke-width: 0.8"/>
      </g>
     </g>
     <g id="text_11">
      <!-- Group 0 -->
      <g transform="translate(7.2 295.429318)scale(0.1 -0.1)">
       <defs>
        <path id="MicrosoftYaHei-47" d="M 4284 331 
Q 3559 -81 2647 -81 
Q 1597 -81 955 583 
Q 313 1247 313 2356 
Q 313 3478 1022 4200 
Q 1731 4922 2841 4922 
Q 3625 4922 4169 4672 
L 4169 3997 
Q 3588 4363 2784 4363 
Q 1994 4363 1481 3822 
Q 969 3281 969 2397 
Q 969 1488 1441 981 
Q 1913 475 2716 475 
Q 3269 475 3656 688 
L 3656 1997 
L 2606 1997 
L 2606 2550 
L 4284 2550 
L 4284 331 
z
" transform="scale(0.015625)"/>
        <path id="MicrosoftYaHei-72" d="M 2400 2850 
Q 2247 2959 1978 2959 
Q 1622 2959 1390 2626 
Q 1159 2294 1159 1750 
L 1159 0 
L 547 0 
L 547 3456 
L 1159 3456 
L 1159 2753 
L 1172 2753 
Q 1434 3516 2078 3516 
Q 2288 3516 2400 3469 
L 2400 2850 
z
" transform="scale(0.015625)"/>
        <path id="MicrosoftYaHei-6f" d="M 316 1691 
Q 316 2547 794 3042 
Q 1272 3538 2091 3538 
Q 2869 3538 3311 3061 
Q 3753 2584 3753 1744 
Q 3753 925 3281 422 
Q 2809 -81 2016 -81 
Q 1241 -81 778 406 
Q 316 894 316 1691 
z
M 941 1709 
Q 941 1113 1242 769 
Q 1544 425 2053 425 
Q 2578 425 2853 761 
Q 3128 1097 3128 1725 
Q 3128 2356 2853 2693 
Q 2578 3031 2053 3031 
Q 1538 3031 1239 2678 
Q 941 2325 941 1709 
z
" transform="scale(0.015625)"/>
        <path id="MicrosoftYaHei-75" d="M 3400 0 
L 2784 0 
L 2784 544 
L 2772 544 
Q 2425 -81 1706 -81 
Q 478 -81 478 1388 
L 478 3456 
L 1084 3456 
L 1084 1478 
Q 1084 425 1891 425 
Q 2291 425 2537 720 
Q 2784 1016 2784 1466 
L 2784 3456 
L 3400 3456 
L 3400 0 
z
" transform="scale(0.015625)"/>
        <path id="MicrosoftYaHei-70" d="M 1159 488 
L 1159 -1591 
L 547 -1591 
L 547 3456 
L 1159 3456 
L 1159 2859 
L 1172 2859 
Q 1578 3538 2359 3538 
Q 3022 3538 3398 3073 
Q 3775 2609 3775 1828 
Q 3775 966 3348 442 
Q 2922 -81 2200 -81 
Q 1534 -81 1172 488 
L 1159 488 
z
M 1156 1425 
Q 1156 1003 1428 714 
Q 1700 425 2109 425 
Q 2597 425 2872 800 
Q 3147 1175 3147 1838 
Q 3147 2397 2890 2714 
Q 2634 3031 2191 3031 
Q 1738 3031 1447 2709 
Q 1156 2388 1156 1884 
L 1156 1425 
z
" transform="scale(0.015625)"/>
       </defs>
       <use xlink:href="#MicrosoftYaHei-47"/>
       <use xlink:href="#MicrosoftYaHei-72" x="74.365234"/>
       <use xlink:href="#MicrosoftYaHei-6f" x="111.173828"/>
       <use xlink:href="#MicrosoftYaHei-75" x="174.748047"/>
       <use xlink:href="#MicrosoftYaHei-70" x="236.369141"/>
       <use xlink:href="#MicrosoftYaHei-20" x="300.236328"/>
       <use xlink:href="#MicrosoftYaHei-30" x="329.826172"/>
      </g>
     </g>
    </g>
    <g id="ytick_2">
     <g id="line2d_21">
      <path d="M 53.048438 206.911231 
L 546.695057 206.911231 
" clip-path="url(#p6739c21bd9)" style="fill: none; stroke: #edf2f7; stroke-width: 0.8; stroke-linecap: square"/>
     </g>
     <g id="line2d_22">
      <g>
       <use xlink:href="#m030c3df8fd" x="53.048438" y="206.911231" style="stroke: #000000; stroke-width: 0.8"/>
      </g>
     </g>
     <g id="text_12">
      <!-- Group 1 -->
      <g transform="translate(7.2 210.908106)scale(0.1 -0.1)">
       <use xlink:href="#MicrosoftYaHei-47"/>
       <use xlink:href="#MicrosoftYaHei-72" x="74.365234"/>
       <use xlink:href="#MicrosoftYaHei-6f" x="111.173828"/>
       <use xlink:href="#MicrosoftYaHei-75" x="174.748047"/>
       <use xlink:href="#MicrosoftYaHei-70" x="236.369141"/>
       <use xlink:href="#MicrosoftYaHei-20" x="300.236328"/>
       <use xlink:href="#MicrosoftYaHei-31" x="329.826172"/>
      </g>
     </g>
    </g>
    <g id="ytick_3">
     <g id="line2d_23">
      <path d="M 53.048438 122.390019 
L 546.695057 122.390019 
" clip-path="url(#p6739c21bd9)" style="fill: none; stroke: #edf2f7; stroke-width: 0.8; stroke-linecap: square"/>
     </g>
     <g id="line2d_24">
      <g>
       <use xlink:href="#m030c3df8fd" x="53.048438" y="122.390019" style="stroke: #000000; stroke-width: 0.8"/>
      </g>
     </g>
     <g id="text_13">
      <!-- Group 2 -->
      <g transform="translate(7.2 126.386894)scale(0.1 -0.1)">
       <use xlink:href="#MicrosoftYaHei-47"/>
       <use xlink:href="#MicrosoftYaHei-72" x="74.365234"/>
       <use xlink:href="#MicrosoftYaHei-6f" x="111.173828"/>
       <use xlink:href="#MicrosoftYaHei-75" x="174.748047"/>
       <use xlink:href="#MicrosoftYaHei-70" x="236.369141"/>
       <use xlink:href="#MicrosoftYaHei-20" x="300.236328"/>
       <use xlink:href="#MicrosoftYaHei-32" x="329.826172"/>
      </g>
     </g>
    </g>
    <g id="ytick_4">
     <g id="line2d_25">
      <path d="M 53.048438 37.868807 
L 546.695057 37.868807 
" clip-path="url(#p6739c21bd9)" style="fill: none; stroke: #edf2f7; stroke-width: 0.8; stroke-linecap: square"/>
     </g>
     <g id="line2d_26">
      <g>
       <use xlink:href="#m030c3df8fd" x="53.048438" y="37.868807" style="stroke: #000000; stroke-width: 0.8"/>
      </g>
     </g>
     <g id="text_14">
      <!-- Group 3 -->
      <g transform="translate(7.2 41.865682)scale(0.1 -0.1)">
       <defs>
        <path id="MicrosoftYaHei-33" d="M 447 809 
Q 944 425 1569 425 
Q 2069 425 2361 670 
Q 2653 916 2653 1328 
Q 2653 2247 1338 2247 
L 934 2247 
L 934 2753 
L 1319 2753 
Q 2484 2753 2484 3616 
Q 2484 4413 1594 4413 
Q 1084 4413 634 4069 
L 634 4647 
Q 1109 4922 1744 4922 
Q 2363 4922 2738 4598 
Q 3113 4275 3113 3759 
Q 3113 2809 2144 2538 
L 2144 2525 
Q 2669 2469 2973 2155 
Q 3278 1841 3278 1372 
Q 3278 719 2808 319 
Q 2338 -81 1556 -81 
Q 869 -81 447 175 
L 447 809 
z
" transform="scale(0.015625)"/>
       </defs>
       <use xlink:href="#MicrosoftYaHei-47"/>
       <use xlink:href="#MicrosoftYaHei-72" x="74.365234"/>
       <use xlink:href="#MicrosoftYaHei-6f" x="111.173828"/>
       <use xlink:href="#MicrosoftYaHei-75" x="174.748047"/>
       <use xlink:href="#MicrosoftYaHei-70" x="236.369141"/>
       <use xlink:href="#MicrosoftYaHei-20" x="300.236328"/>
       <use xlink:href="#MicrosoftYaHei-33" x="329.826172"/>
      </g>
     </g>
    </g>
   </g>
   <g id="LineCollection_1">
    <path d="M 146.000247 291.432443 
L 167.113984 291.432443 
" clip-path="url(#p6739c21bd9)" style="fill: none; stroke: #2f6690; stroke-width: 2.4"/>
   </g>
   <g id="line2d_27">
    <defs>
     <path id="me698513662" d="M 0 5 
L 0 -5 
" style="stroke: #2f6690"/>
    </defs>
    <g clip-path="url(#p6739c21bd9)">
     <use xlink:href="#me698513662" x="146.000247" y="291.432443" style="fill: #2f6690; stroke: #2f6690"/>
    </g>
   </g>
   <g id="line2d_28">
    <g clip-path="url(#p6739c21bd9)">
     <use xlink:href="#me698513662" x="167.113984" y="291.432443" style="fill: #2f6690; stroke: #2f6690"/>
    </g>
   </g>
   <g id="LineCollection_2">
    <path d="M 156.365561 206.911231 
L 171.31062 206.911231 
" clip-path="url(#p6739c21bd9)" style="fill: none; stroke: #00a6a6; stroke-width: 2.4"/>
   </g>
   <g id="line2d_29">
    <defs>
     <path id="m898158ec63" d="M 0 5 
L 0 -5 
" style="stroke: #00a6a6"/>
    </defs>
    <g clip-path="url(#p6739c21bd9)">
     <use xlink:href="#m898158ec63" x="156.365561" y="206.911231" style="fill: #00a6a6; stroke: #00a6a6"/>
    </g>
   </g>
   <g id="line2d_30">
    <g clip-path="url(#p6739c21bd9)">
     <use xlink:href="#m898158ec63" x="171.31062" y="206.911231" style="fill: #00a6a6; stroke: #00a6a6"/>
    </g>
   </g>
   <g id="LineCollection_3">
    <path d="M 57.478998 122.390019 
L 532.295735 122.390019 
" clip-path="url(#p6739c21bd9)" style="fill: none; stroke: #6a994e; stroke-width: 2.4"/>
   </g>
   <g id="line2d_31">
    <defs>
     <path id="m852d1b052f" d="M 0 5 
L 0 -5 
" style="stroke: #6a994e"/>
    </defs>
    <g clip-path="url(#p6739c21bd9)">
     <use xlink:href="#m852d1b052f" x="57.478998" y="122.390019" style="fill: #6a994e; stroke: #6a994e"/>
    </g>
   </g>
   <g id="line2d_32">
    <g clip-path="url(#p6739c21bd9)">
     <use xlink:href="#m852d1b052f" x="532.295735" y="122.390019" style="fill: #6a994e; stroke: #6a994e"/>
    </g>
   </g>
   <g id="LineCollection_4">
    <path d="M 155.963925 37.868807 
L 181.549442 37.868807 
" clip-path="url(#p6739c21bd9)" style="fill: none; stroke: #d95f02; stroke-width: 2.4"/>
   </g>
   <g id="line2d_33">
    <defs>
     <path id="m3dabb6f575" d="M 0 5 
L 0 -5 
" style="stroke: #d95f02"/>
    </defs>
    <g clip-path="url(#p6739c21bd9)">
     <use xlink:href="#m3dabb6f575" x="155.963925" y="37.868807" style="fill: #d95f02; stroke: #d95f02"/>
    </g>
   </g>
   <g id="line2d_34">
    <g clip-path="url(#p6739c21bd9)">
     <use xlink:href="#m3dabb6f575" x="181.549442" y="37.868807" style="fill: #d95f02; stroke: #d95f02"/>
    </g>
   </g>
   <g id="line2d_35">
    <path d="M 152.125061 304.110625 
L 152.125061 25.190625 
" clip-path="url(#p6739c21bd9)" style="fill: none; stroke-dasharray: 4.07,1.76; stroke-dashoffset: 0; stroke: #1f2937; stroke-width: 1.1"/>
   </g>
   <g id="line2d_36">
    <defs>
     <path id="me54482031e" d="M 0 4 
C 1.060812 4 2.078319 3.578535 2.828427 2.828427 
C 3.578535 2.078319 4 1.060812 4 0 
C 4 -1.060812 3.578535 -2.078319 2.828427 -2.828427 
C 2.078319 -3.578535 1.060812 -4 0 -4 
C -1.060812 -4 -2.078319 -3.578535 -2.828427 -2.828427 
C -3.578535 -2.078319 -4 -1.060812 -4 0 
C -4 1.060812 -3.578535 2.078319 -2.828427 2.828427 
C -2.078319 3.578535 -1.060812 4 0 4 
z
" style="stroke: #2f6690"/>
    </defs>
    <g clip-path="url(#p6739c21bd9)">
     <use xlink:href="#me54482031e" x="156.557115" y="291.432443" style="fill: #2f6690; stroke: #2f6690"/>
    </g>
   </g>
   <g id="line2d_37">
    <defs>
     <path id="m748bf5f157" d="M 0 4 
C 1.060812 4 2.078319 3.578535 2.828427 2.828427 
C 3.578535 2.078319 4 1.060812 4 0 
C 4 -1.060812 3.578535 -2.078319 2.828427 -2.828427 
C 2.078319 -3.578535 1.060812 -4 0 -4 
C -1.060812 -4 -2.078319 -3.578535 -2.828427 -2.828427 
C -3.578535 -2.078319 -4 -1.060812 -4 0 
C -4 1.060812 -3.578535 2.078319 -2.828427 2.828427 
C -2.078319 3.578535 -1.060812 4 0 4 
z
" style="stroke: #00a6a6"/>
    </defs>
    <g clip-path="url(#p6739c21bd9)">
     <use xlink:href="#m748bf5f157" x="163.838091" y="206.911231" style="fill: #00a6a6; stroke: #00a6a6"/>
    </g>
   </g>
   <g id="line2d_38">
    <defs>
     <path id="m710f3c7421" d="M 0 4 
C 1.060812 4 2.078319 3.578535 2.828427 2.828427 
C 3.578535 2.078319 4 1.060812 4 0 
C 4 -1.060812 3.578535 -2.078319 2.828427 -2.828427 
C 2.078319 -3.578535 1.060812 -4 0 -4 
C -1.060812 -4 -2.078319 -3.578535 -2.828427 -2.828427 
C -3.578535 -2.078319 -4 -1.060812 -4 0 
C -4 1.060812 -3.578535 2.078319 -2.828427 2.828427 
C -2.078319 3.578535 -1.060812 4 0 4 
z
" style="stroke: #6a994e"/>
    </defs>
    <g clip-path="url(#p6739c21bd9)">
     <use xlink:href="#m710f3c7421" x="294.887367" y="122.390019" style="fill: #6a994e; stroke: #6a994e"/>
    </g>
   </g>
   <g id="line2d_39">
    <defs>
     <path id="mf9f7100009" d="M 0 4 
C 1.060812 4 2.078319 3.578535 2.828427 2.828427 
C 3.578535 2.078319 4 1.060812 4 0 
C 4 -1.060812 3.578535 -2.078319 2.828427 -2.828427 
C 2.078319 -3.578535 1.060812 -4 0 -4 
C -1.060812 -4 -2.078319 -3.578535 -2.828427 -2.828427 
C -3.578535 -2.078319 -4 -1.060812 -4 0 
C -4 1.060812 -3.578535 2.078319 -2.828427 2.828427 
C -2.078319 3.578535 -1.060812 4 0 4 
z
" style="stroke: #d95f02"/>
    </defs>
    <g clip-path="url(#p6739c21bd9)">
     <use xlink:href="#mf9f7100009" x="168.756684" y="37.868807" style="fill: #d95f02; stroke: #d95f02"/>
    </g>
   </g>
   <g id="patch_3">
    <path d="M 53.048437 304.110625 
L 546.695057 304.110625 
" style="fill: none; stroke: #cbd5e1; stroke-width: 0.8; stroke-linejoin: miter; stroke-linecap: square"/>
   </g>
   <g id="text_15">
    <!-- 0.200 [-0.276, 0.677]  -->
    <g style="fill: #334e68" transform="translate(168.443152 294.048654)scale(0.095 -0.095)">
     <defs>
      <path id="MicrosoftYaHei-5b" d="M 1959 -1100 
L 681 -1100 
L 681 4841 
L 1959 4841 
L 1959 4406 
L 1219 4406 
L 1219 -669 
L 1959 -669 
L 1959 -1100 
z
" transform="scale(0.015625)"/>
      <path id="MicrosoftYaHei-36" d="M 3181 4219 
Q 2803 4413 2391 4413 
Q 1763 4413 1381 3866 
Q 1000 3319 994 2372 
L 1009 2372 
Q 1353 3038 2106 3038 
Q 2734 3038 3109 2628 
Q 3484 2219 3484 1541 
Q 3484 831 3051 375 
Q 2619 -81 1947 -81 
Q 1209 -81 789 495 
Q 369 1072 369 2131 
Q 369 3413 920 4167 
Q 1472 4922 2372 4922 
Q 2888 4922 3181 4781 
L 3181 4219 
z
M 1031 1584 
Q 1031 1106 1286 765 
Q 1541 425 1963 425 
Q 2363 425 2613 719 
Q 2863 1013 2863 1475 
Q 2863 1975 2627 2253 
Q 2391 2531 1956 2531 
Q 1544 2531 1287 2250 
Q 1031 1969 1031 1584 
z
" transform="scale(0.015625)"/>
      <path id="MicrosoftYaHei-2c" d="M 1109 778 
L 575 -888 
L 131 -888 
L 519 778 
L 1109 778 
z
" transform="scale(0.015625)"/>
      <path id="MicrosoftYaHei-5d" d="M 1466 -1100 
L 184 -1100 
L 184 -669 
L 928 -669 
L 928 4406 
L 184 4406 
L 184 4841 
L 1466 4841 
L 1466 -1100 
z
" transform="scale(0.015625)"/>
     </defs>
     <use xlink:href="#MicrosoftYaHei-30"/>
     <use xlink:href="#MicrosoftYaHei-2e" x="58.642578"/>
     <use xlink:href="#MicrosoftYaHei-32" x="82.714844"/>
     <use xlink:href="#MicrosoftYaHei-30" x="141.357422"/>
     <use xlink:href="#MicrosoftYaHei-30" x="200"/>
     <use xlink:href="#MicrosoftYaHei-20" x="258.642578"/>
     <use xlink:href="#MicrosoftYaHei-5b" x="288.232422"/>
     <use xlink:href="#MicrosoftYaHei-2d" x="321.630859"/>
     <use xlink:href="#MicrosoftYaHei-30" x="364.892578"/>
     <use xlink:href="#MicrosoftYaHei-2e" x="423.535156"/>
     <use xlink:href="#MicrosoftYaHei-32" x="447.607422"/>
     <use xlink:href="#MicrosoftYaHei-37" x="506.25"/>
     <use xlink:href="#MicrosoftYaHei-36" x="564.892578"/>
     <use xlink:href="#MicrosoftYaHei-2c" x="623.535156"/>
     <use xlink:href="#MicrosoftYaHei-20" x="647.607422"/>
     <use xlink:href="#MicrosoftYaHei-30" x="677.197266"/>
     <use xlink:href="#MicrosoftYaHei-2e" x="735.839844"/>
     <use xlink:href="#MicrosoftYaHei-36" x="759.912109"/>
     <use xlink:href="#MicrosoftYaHei-37" x="818.554688"/>
     <use xlink:href="#MicrosoftYaHei-37" x="877.197266"/>
     <use xlink:href="#MicrosoftYaHei-5d" x="935.839844"/>
     <use xlink:href="#MicrosoftYaHei-20" x="969.238281"/>
    </g>
   </g>
   <g id="text_16">
    <!-- 0.529 [0.191, 0.866] *** -->
    <g style="fill: #334e68" transform="translate(172.639788 209.527442)scale(0.095 -0.095)">
     <defs>
      <path id="MicrosoftYaHei-39" d="M 578 656 
Q 978 425 1441 425 
Q 2091 425 2448 937 
Q 2806 1450 2806 2394 
Q 2800 2388 2794 2394 
Q 2475 1788 1722 1788 
Q 1113 1788 713 2206 
Q 313 2625 313 3294 
Q 313 4006 750 4464 
Q 1188 4922 1884 4922 
Q 2606 4922 3012 4355 
Q 3419 3788 3419 2703 
Q 3419 1363 2894 641 
Q 2369 -81 1441 -81 
Q 931 -81 578 84 
L 578 656 
z
M 931 3372 
Q 931 2884 1181 2598 
Q 1431 2313 1872 2313 
Q 2253 2313 2512 2573 
Q 2772 2834 2772 3206 
Q 2772 3728 2514 4070 
Q 2256 4413 1834 4413 
Q 1444 4413 1187 4116 
Q 931 3819 931 3372 
z
" transform="scale(0.015625)"/>
      <path id="MicrosoftYaHei-38" d="M 306 1350 
Q 306 1769 556 2122 
Q 806 2475 1200 2625 
Q 884 2803 700 3081 
Q 516 3359 516 3684 
Q 516 4028 692 4312 
Q 869 4597 1183 4759 
Q 1497 4922 1875 4922 
Q 2256 4922 2572 4761 
Q 2888 4600 3063 4315 
Q 3238 4031 3238 3684 
Q 3238 3366 3058 3086 
Q 2878 2806 2559 2625 
Q 2953 2472 3200 2119 
Q 3447 1766 3447 1350 
Q 3447 938 3250 611 
Q 3053 284 2690 103 
Q 2328 -78 1875 -78 
Q 1425 -78 1065 103 
Q 706 284 506 612 
Q 306 941 306 1350 
z
M 906 1378 
Q 906 947 1172 687 
Q 1438 428 1878 428 
Q 2309 428 2582 692 
Q 2856 956 2856 1378 
Q 2856 1778 2579 2051 
Q 2303 2325 1878 2325 
Q 1456 2325 1181 2058 
Q 906 1791 906 1378 
z
M 1081 3634 
Q 1081 3309 1312 3076 
Q 1544 2844 1878 2844 
Q 2206 2844 2445 3078 
Q 2684 3313 2684 3634 
Q 2684 3963 2454 4191 
Q 2225 4419 1878 4419 
Q 1534 4419 1307 4195 
Q 1081 3972 1081 3634 
z
" transform="scale(0.015625)"/>
      <path id="MicrosoftYaHei-2a" d="M 2663 3706 
L 1738 3525 
L 2384 2716 
L 1984 2441 
L 1466 3334 
L 941 2441 
L 541 2716 
L 1184 3525 
L 253 3706 
L 416 4156 
L 1297 3819 
L 1213 4841 
L 1716 4841 
L 1628 3819 
L 2509 4156 
L 2663 3706 
z
" transform="scale(0.015625)"/>
     </defs>
     <use xlink:href="#MicrosoftYaHei-30"/>
     <use xlink:href="#MicrosoftYaHei-2e" x="58.642578"/>
     <use xlink:href="#MicrosoftYaHei-35" x="82.714844"/>
     <use xlink:href="#MicrosoftYaHei-32" x="141.357422"/>
     <use xlink:href="#MicrosoftYaHei-39" x="200"/>
     <use xlink:href="#MicrosoftYaHei-20" x="258.642578"/>
     <use xlink:href="#MicrosoftYaHei-5b" x="288.232422"/>
     <use xlink:href="#MicrosoftYaHei-30" x="321.630859"/>
     <use xlink:href="#MicrosoftYaHei-2e" x="380.273438"/>
     <use xlink:href="#MicrosoftYaHei-31" x="404.345703"/>
     <use xlink:href="#MicrosoftYaHei-39" x="462.988281"/>
     <use xlink:href="#MicrosoftYaHei-31" x="521.630859"/>
     <use xlink:href="#MicrosoftYaHei-2c" x="580.273438"/>
     <use xlink:href="#MicrosoftYaHei-20" x="604.345703"/>
     <use xlink:href="#MicrosoftYaHei-30" x="633.935547"/>
     <use xlink:href="#MicrosoftYaHei-2e" x="692.578125"/>
     <use xlink:href="#MicrosoftYaHei-38" x="716.650391"/>
     <use xlink:href="#MicrosoftYaHei-36" x="775.292969"/>
     <use xlink:href="#MicrosoftYaHei-36" x="833.935547"/>
     <use xlink:href="#MicrosoftYaHei-5d" x="892.578125"/>
     <use xlink:href="#MicrosoftYaHei-20" x="925.976562"/>
     <use xlink:href="#MicrosoftYaHei-2a" x="955.566406"/>
     <use xlink:href="#MicrosoftYaHei-2a" x="1001.074219"/>
     <use xlink:href="#MicrosoftYaHei-2a" x="1046.582031"/>
    </g>
   </g>
   <g id="text_17">
    <!-- 6.444 [-4.272, 17.161]  -->
    <g style="fill: #334e68" transform="translate(533.624903 125.00623)scale(0.095 -0.095)">
     <defs>
      <path id="MicrosoftYaHei-34" d="M 2906 4841 
L 2906 1644 
L 3631 1644 
L 3631 1138 
L 2906 1138 
L 2906 0 
L 2313 0 
L 2313 1138 
L 53 1138 
L 53 1616 
Q 656 2294 1265 3178 
Q 1875 4063 2272 4841 
L 2906 4841 
z
M 741 1644 
L 2313 1644 
L 2313 3950 
Q 1988 3366 1616 2817 
Q 1244 2269 741 1644 
z
" transform="scale(0.015625)"/>
     </defs>
     <use xlink:href="#MicrosoftYaHei-36"/>
     <use xlink:href="#MicrosoftYaHei-2e" x="58.642578"/>
     <use xlink:href="#MicrosoftYaHei-34" x="82.714844"/>
     <use xlink:href="#MicrosoftYaHei-34" x="141.357422"/>
     <use xlink:href="#MicrosoftYaHei-34" x="200"/>
     <use xlink:href="#MicrosoftYaHei-20" x="258.642578"/>
     <use xlink:href="#MicrosoftYaHei-5b" x="288.232422"/>
     <use xlink:href="#MicrosoftYaHei-2d" x="321.630859"/>
     <use xlink:href="#MicrosoftYaHei-34" x="364.892578"/>
     <use xlink:href="#MicrosoftYaHei-2e" x="423.535156"/>
     <use xlink:href="#MicrosoftYaHei-32" x="447.607422"/>
     <use xlink:href="#MicrosoftYaHei-37" x="506.25"/>
     <use xlink:href="#MicrosoftYaHei-32" x="564.892578"/>
     <use xlink:href="#MicrosoftYaHei-2c" x="623.535156"/>
     <use xlink:href="#MicrosoftYaHei-20" x="647.607422"/>
     <use xlink:href="#MicrosoftYaHei-31" x="677.197266"/>
     <use xlink:href="#MicrosoftYaHei-37" x="735.839844"/>
     <use xlink:href="#MicrosoftYaHei-2e" x="794.482422"/>
     <use xlink:href="#MicrosoftYaHei-31" x="818.554688"/>
     <use xlink:href="#MicrosoftYaHei-36" x="877.197266"/>
     <use xlink:href="#MicrosoftYaHei-31" x="935.839844"/>
     <use xlink:href="#MicrosoftYaHei-5d" x="994.482422"/>
     <use xlink:href="#MicrosoftYaHei-20" x="1027.880859"/>
    </g>
   </g>
   <g id="text_18">
    <!-- 0.751 [0.173, 1.328] ** -->
    <g style="fill: #334e68" transform="translate(182.87861 40.485018)scale(0.095 -0.095)">
     <use xlink:href="#MicrosoftYaHei-30"/>
     <use xlink:href="#MicrosoftYaHei-2e" x="58.642578"/>
     <use xlink:href="#MicrosoftYaHei-37" x="82.714844"/>
     <use xlink:href="#MicrosoftYaHei-35" x="141.357422"/>
     <use xlink:href="#MicrosoftYaHei-31" x="200"/>
     <use xlink:href="#MicrosoftYaHei-20" x="258.642578"/>
     <use xlink:href="#MicrosoftYaHei-5b" x="288.232422"/>
     <use xlink:href="#MicrosoftYaHei-30" x="321.630859"/>
     <use xlink:href="#MicrosoftYaHei-2e" x="380.273438"/>
     <use xlink:href="#MicrosoftYaHei-31" x="404.345703"/>
     <use xlink:href="#MicrosoftYaHei-37" x="462.988281"/>
     <use xlink:href="#MicrosoftYaHei-33" x="521.630859"/>
     <use xlink:href="#MicrosoftYaHei-2c" x="580.273438"/>
     <use xlink:href="#MicrosoftYaHei-20" x="604.345703"/>
     <use xlink:href="#MicrosoftYaHei-31" x="633.935547"/>
     <use xlink:href="#MicrosoftYaHei-2e" x="692.578125"/>
     <use xlink:href="#MicrosoftYaHei-33" x="716.650391"/>
     <use xlink:href="#MicrosoftYaHei-32" x="775.292969"/>
     <use xlink:href="#MicrosoftYaHei-38" x="833.935547"/>
     <use xlink:href="#MicrosoftYaHei-5d" x="892.578125"/>
     <use xlink:href="#MicrosoftYaHei-20" x="925.976562"/>
     <use xlink:href="#MicrosoftYaHei-2a" x="955.566406"/>
     <use xlink:href="#MicrosoftYaHei-2a" x="1001.074219"/>
    </g>
   </g>
   <g id="text_19">
    <!-- 点为组内处理效应，线段为 95% 置信区间；标准误按省份聚类。 -->
    <g style="fill: #52616b" transform="translate(53.048438 15.428425)scale(0.095 -0.095)">
     <defs>
      <path id="MicrosoftYaHei-70b9" d="M 900 3378 
L 2863 3378 
L 2863 5341 
L 3388 5341 
L 3388 4591 
L 6181 4591 
L 6181 4141 
L 3388 4141 
L 3388 3378 
L 5600 3378 
L 5600 991 
L 5088 991 
L 5088 1253 
L 1413 1253 
L 1413 991 
L 900 991 
L 900 3378 
z
M 5088 2928 
L 1413 2928 
L 1413 1703 
L 5088 1703 
L 5088 2928 
z
M 5425 847 
Q 5925 91 6225 -516 
L 5750 -772 
Q 5438 -134 4994 622 
L 5425 847 
z
M 1369 553 
Q 894 -303 531 -791 
L 100 -484 
Q 506 53 931 803 
L 1369 553 
z
M 2413 828 
Q 2700 197 2913 -503 
L 2406 -678 
Q 2213 3 1963 666 
L 2413 828 
z
M 3906 872 
Q 4206 253 4450 -422 
L 3956 -616 
Q 3781 -53 3450 697 
L 3906 872 
z
" transform="scale(0.015625)"/>
      <path id="MicrosoftYaHei-4e3a" d="M 356 3684 
L 2703 3684 
Q 2794 4450 2794 5341 
L 3331 5341 
Q 3331 4413 3244 3684 
L 5900 3684 
Q 5863 1753 5788 497 
Q 5725 -672 4550 -672 
Q 4063 -672 3394 -641 
Q 3369 -397 3300 -59 
Q 3888 -141 4456 -141 
Q 5206 -141 5244 597 
Q 5331 1822 5356 3197 
L 3175 3197 
Q 2716 441 606 -903 
Q 431 -684 225 -441 
Q 2169 706 2628 3197 
L 356 3197 
L 356 3684 
z
M 3325 2072 
L 3669 2378 
Q 4269 1822 4756 1284 
L 4369 934 
Q 3888 1503 3325 2072 
z
M 800 4922 
L 1138 5234 
Q 1656 4784 2138 4309 
L 1756 3953 
Q 1294 4459 800 4922 
z
" transform="scale(0.015625)"/>
      <path id="MicrosoftYaHei-5904" d="M 1706 5197 
Q 1575 4591 1413 4034 
L 3081 4034 
L 3081 3578 
Q 2906 1966 2150 772 
Q 2719 128 3531 -16 
Q 4488 -184 6319 -103 
Q 6213 -347 6138 -622 
Q 4425 -684 3475 -497 
Q 2519 -334 1869 359 
Q 1325 -353 550 -903 
Q 344 -709 138 -534 
Q 981 34 1538 766 
Q 1088 1434 825 2434 
Q 631 2003 413 1609 
Q 281 1784 50 2041 
Q 819 3409 1188 5278 
L 1706 5197 
z
M 3850 5253 
L 4369 5253 
L 4369 3159 
L 4644 3478 
Q 5531 2878 6244 2297 
L 5906 1866 
Q 5244 2447 4369 3078 
L 4369 147 
L 3850 147 
L 3850 5253 
z
M 2575 3559 
L 1263 3559 
Q 1188 3334 1113 3122 
Q 1369 1941 1831 1197 
Q 2463 2234 2575 3559 
z
" transform="scale(0.015625)"/>
      <path id="MicrosoftYaHei-7406" d="M 2031 -166 
L 3988 -166 
L 3988 734 
L 2394 734 
L 2394 1172 
L 3988 1172 
L 3988 1997 
L 2988 1997 
L 2988 1766 
L 2525 1766 
L 2525 4991 
L 5913 4991 
L 5913 1766 
L 5450 1766 
L 5450 1997 
L 4450 1997 
L 4450 1172 
L 6044 1172 
L 6044 734 
L 4450 734 
L 4450 -166 
L 6319 -166 
L 6319 -603 
L 2031 -603 
L 2031 -166 
z
M 44 203 
Q 525 319 975 434 
L 975 2328 
L 194 2328 
L 194 2766 
L 975 2766 
L 975 4328 
L 131 4328 
L 131 4766 
L 2281 4766 
L 2281 4328 
L 1438 4328 
L 1438 2766 
L 2231 2766 
L 2231 2328 
L 1438 2328 
L 1438 559 
Q 1850 675 2238 791 
Q 2269 509 2306 303 
Q 1238 16 213 -303 
L 44 203 
z
M 4450 2422 
L 5450 2422 
L 5450 3291 
L 4450 3291 
L 4450 2422 
z
M 2988 2422 
L 3988 2422 
L 3988 3291 
L 2988 3291 
L 2988 2422 
z
M 5450 4566 
L 4450 4566 
L 4450 3703 
L 5450 3703 
L 5450 4566 
z
M 2988 3703 
L 3988 3703 
L 3988 4566 
L 2988 4566 
L 2988 3703 
z
" transform="scale(0.015625)"/>
      <path id="MicrosoftYaHei-6548" d="M 4088 5334 
L 4581 5253 
Q 4453 4653 4259 4122 
L 6269 4122 
L 6269 3697 
L 5838 3697 
Q 5672 1869 5050 841 
Q 5572 128 6388 -347 
Q 6188 -622 6050 -841 
Q 5250 -313 4728 391 
Q 4153 -328 3300 -891 
Q 3163 -709 2944 -497 
Q 3872 125 4428 853 
Q 3897 1797 3753 3025 
Q 3603 2766 3431 2528 
Q 3300 2716 3119 2928 
Q 3844 3941 4088 5334 
z
M 694 1909 
L 1031 2203 
Q 1456 1800 1863 1394 
Q 2138 1847 2350 2378 
L 2800 2141 
Q 2538 1550 2209 1047 
Q 2659 591 3088 134 
L 2669 -222 
Q 2275 225 1913 625 
Q 1250 -238 356 -809 
Q 238 -641 31 -397 
Q 947 128 1584 981 
Q 1113 1491 694 1909 
z
M 5344 3697 
L 4125 3697 
Q 4222 2322 4741 1338 
Q 5263 2306 5344 3697 
z
M 175 4297 
L 3325 4297 
L 3325 3872 
L 175 3872 
L 175 4297 
z
M 1063 3628 
L 1475 3372 
Q 963 2641 413 1953 
Q 256 2084 44 2241 
Q 506 2797 1063 3628 
z
M 2344 3609 
Q 2744 3197 3263 2591 
L 2894 2278 
Q 2506 2759 2006 3341 
L 2344 3609 
z
M 1306 5141 
L 1731 5359 
Q 1988 4953 2206 4547 
L 1769 4322 
Q 1544 4772 1306 5141 
z
" transform="scale(0.015625)"/>
      <path id="MicrosoftYaHei-5e94" d="M 2969 5134 
L 3425 5378 
Q 3694 5034 3938 4634 
L 3634 4459 
L 6169 4459 
L 6169 3984 
L 1300 3984 
L 1300 2453 
Q 1300 241 388 -853 
Q 238 -647 25 -422 
Q 775 416 775 2441 
L 775 4459 
L 3419 4459 
Q 3216 4803 2969 5134 
z
M 1263 -9 
L 4153 -9 
Q 4641 1238 5188 3403 
L 5731 3253 
Q 5147 1191 4694 -9 
L 6238 -9 
L 6238 -484 
L 1263 -484 
L 1263 -9 
z
M 1600 3059 
L 2075 3222 
Q 2463 2084 2825 672 
L 2294 509 
Q 2006 1747 1600 3059 
z
M 3106 3372 
L 3588 3509 
Q 3913 2384 4163 991 
L 3613 847 
Q 3431 2084 3106 3372 
z
" transform="scale(0.015625)"/>
      <path id="MicrosoftYaHei-ff0c" d="M 1931 775 
L 1403 -891 
L 966 -891 
L 1350 775 
L 1931 775 
z
" transform="scale(0.015625)"/>
      <path id="MicrosoftYaHei-7ebf" d="M 1969 -347 
Q 3144 75 4003 631 
Q 3781 1197 3653 1972 
L 2319 1784 
L 2244 2234 
L 3591 2422 
Q 3538 2859 3513 3356 
L 2381 3228 
L 2306 3678 
L 3488 3809 
Q 3453 4459 3425 5303 
L 3938 5303 
Q 3953 4497 3978 3866 
L 6069 4103 
L 6125 3659 
L 3997 3413 
Q 4019 2919 4069 2488 
L 6225 2791 
L 6281 2347 
L 4128 2041 
Q 4234 1394 4416 916 
Q 5078 1416 5519 2009 
L 5925 1703 
Q 5363 1025 4619 475 
Q 4859 44 5194 -184 
Q 5606 -428 5725 66 
Q 5806 466 5856 953 
Q 6144 828 6338 772 
Q 6231 97 6125 -247 
Q 5944 -778 5506 -778 
Q 5050 -778 4663 -403 
Q 4409 -163 4209 194 
Q 3350 -363 2281 -772 
Q 2169 -597 1969 -347 
z
M 900 1541 
Q 1456 1622 2213 1753 
Q 2175 1522 2156 1272 
Q 1113 1109 325 978 
L 225 1447 
Q 659 1913 1178 2775 
Q 672 2747 225 2703 
L 106 3128 
Q 688 3922 1300 5353 
L 1775 5166 
Q 1131 3897 669 3166 
Q 1041 3178 1422 3194 
Q 1638 3578 1869 4028 
L 2331 3797 
Q 1569 2478 900 1541 
z
M 106 97 
Q 1206 334 2331 616 
Q 2313 366 2313 141 
Q 1269 -103 244 -378 
L 106 97 
z
M 4463 4972 
L 4731 5284 
Q 5175 5003 5681 4609 
L 5381 4247 
Q 4863 4691 4463 4972 
z
" transform="scale(0.015625)"/>
      <path id="MicrosoftYaHei-6bb5" d="M 2844 1978 
L 2844 2422 
L 5763 2422 
L 5763 1953 
Q 5397 1069 4731 416 
Q 5378 -63 6338 -266 
Q 6144 -516 6019 -747 
Q 5031 -456 4359 88 
Q 3638 -488 2631 -853 
Q 2450 -559 2331 -422 
Q 3313 -75 3997 428 
Q 3400 1069 3138 1978 
L 2844 1978 
z
M 88 722 
Q 325 744 569 769 
L 569 4897 
Q 1931 4972 2719 5116 
L 2888 4653 
Q 2175 4559 1031 4484 
L 1031 3616 
L 2613 3616 
L 2613 3203 
L 1031 3203 
L 1031 2259 
L 2594 2259 
L 2594 1847 
L 1031 1847 
L 1031 819 
Q 1891 916 2838 1041 
Q 2831 916 2831 591 
Q 1894 484 1031 366 
L 1031 -816 
L 569 -816 
L 569 303 
Q 381 275 200 247 
L 88 722 
z
M 5738 3209 
Q 5981 3209 6306 3228 
L 6219 2759 
Q 5906 2747 5625 2747 
Q 4988 2747 4988 3459 
L 4988 4553 
L 3831 4553 
L 3831 4216 
Q 3831 3053 2938 2522 
Q 2781 2709 2600 2909 
Q 3363 3272 3363 4241 
L 3363 4997 
L 5456 4997 
L 5456 3497 
Q 5456 3209 5738 3209 
z
M 5256 1978 
L 3613 1978 
Q 3863 1241 4363 731 
Q 4956 1275 5256 1978 
z
" transform="scale(0.015625)"/>
      <path id="MicrosoftYaHei-25" d="M 272 3619 
Q 272 4213 589 4563 
Q 906 4913 1444 4913 
Q 1959 4913 2248 4591 
Q 2538 4269 2538 3694 
Q 2538 3122 2219 2765 
Q 1900 2409 1372 2409 
Q 872 2409 572 2740 
Q 272 3072 272 3619 
z
M 753 3650 
Q 753 3247 928 3028 
Q 1103 2809 1406 2809 
Q 1719 2809 1889 3036 
Q 2059 3263 2059 3675 
Q 2059 4078 1892 4298 
Q 1725 4519 1422 4519 
Q 1113 4519 933 4289 
Q 753 4059 753 3650 
z
M 4647 4841 
L 1538 -31 
L 1016 -31 
L 4125 4841 
L 4647 4841 
z
M 3172 1134 
Q 3172 1728 3489 2083 
Q 3806 2438 4341 2438 
Q 4853 2438 5143 2114 
Q 5434 1791 5434 1203 
Q 5434 634 5112 279 
Q 4791 -75 4272 -75 
Q 3769 -75 3470 261 
Q 3172 597 3172 1134 
z
M 3650 1163 
Q 3650 769 3825 548 
Q 4000 328 4303 328 
Q 4616 328 4786 556 
Q 4956 784 4956 1194 
Q 4956 1600 4786 1815 
Q 4616 2031 4319 2031 
Q 4000 2031 3825 1801 
Q 3650 1572 3650 1163 
z
" transform="scale(0.015625)"/>
      <path id="MicrosoftYaHei-7f6e" d="M 94 -284 
L 1025 -284 
L 1025 2609 
L 2938 2609 
L 2938 3016 
L 244 3016 
L 244 3366 
L 2938 3366 
L 2938 3697 
L 3388 3697 
L 3388 3366 
L 6150 3366 
L 6150 3016 
L 3388 3016 
L 3388 2609 
L 5431 2609 
L 5431 -284 
L 6294 -284 
L 6294 -647 
L 94 -647 
L 94 -284 
z
M 638 5034 
L 5756 5034 
L 5756 3641 
L 5331 3641 
L 5331 3784 
L 1069 3784 
L 1069 3641 
L 638 3641 
L 638 5034 
z
M 1463 -284 
L 4994 -284 
L 4994 116 
L 1463 116 
L 1463 -284 
z
M 1463 441 
L 4994 441 
L 4994 834 
L 1463 834 
L 1463 441 
z
M 1463 1159 
L 4994 1159 
L 4994 1553 
L 1463 1553 
L 1463 1159 
z
M 4994 2272 
L 1463 2272 
L 1463 1878 
L 4994 1878 
L 4994 2272 
z
M 5331 4697 
L 4181 4697 
L 4181 4122 
L 5331 4122 
L 5331 4697 
z
M 2625 4122 
L 3769 4122 
L 3769 4697 
L 2625 4697 
L 2625 4122 
z
M 1069 4122 
L 2213 4122 
L 2213 4697 
L 1069 4697 
L 1069 4122 
z
" transform="scale(0.015625)"/>
      <path id="MicrosoftYaHei-4fe1" d="M 2300 1434 
L 5856 1434 
L 5856 -853 
L 5375 -853 
L 5375 -478 
L 2781 -478 
L 2781 -853 
L 2300 -853 
L 2300 1434 
z
M 81 2303 
Q 1000 3666 1463 5316 
L 1950 5178 
Q 1678 4338 1356 3628 
L 1356 -853 
L 894 -853 
L 894 2713 
Q 606 2209 288 1791 
Q 188 2053 81 2303 
z
M 5375 1009 
L 2781 1009 
L 2781 -53 
L 5375 -53 
L 5375 1009 
z
M 1888 4472 
L 3928 4472 
Q 3741 4794 3538 5109 
L 3956 5328 
Q 4181 4991 4400 4616 
L 4128 4472 
L 6288 4472 
L 6288 4034 
L 1888 4034 
L 1888 4472 
z
M 2231 3453 
L 5919 3453 
L 5919 3028 
L 2231 3028 
L 2231 3453 
z
M 2231 2447 
L 5919 2447 
L 5919 2022 
L 2231 2022 
L 2231 2447 
z
" transform="scale(0.015625)"/>
      <path id="MicrosoftYaHei-533a" d="M 600 4872 
L 5975 4872 
L 5975 4384 
L 1131 4384 
L 1131 22 
L 6075 22 
L 6075 -453 
L 600 -453 
L 600 4872 
z
M 1613 3697 
L 1963 4028 
Q 2744 3384 3597 2616 
Q 4250 3322 4850 4153 
L 5306 3847 
Q 4650 2997 3975 2272 
Q 4753 1563 5588 753 
L 5156 316 
Q 4400 1106 3600 1878 
Q 2697 963 1763 266 
Q 1613 459 1363 672 
Q 2344 1341 3228 2231 
Q 2444 2972 1613 3697 
z
" transform="scale(0.015625)"/>
      <path id="MicrosoftYaHei-95f4" d="M 1863 3647 
L 4513 3647 
L 4513 553 
L 2313 553 
L 2313 166 
L 1863 166 
L 1863 3647 
z
M 2388 4453 
L 2388 4922 
L 6013 4922 
L 6013 -28 
Q 6013 -816 5119 -816 
Q 4756 -816 4169 -803 
Q 4144 -616 4069 -297 
Q 4588 -334 5056 -334 
Q 5525 -334 5525 122 
L 5525 4453 
L 2388 4453 
z
M 419 4084 
L 906 4084 
L 906 -816 
L 419 -816 
L 419 4084 
z
M 2313 997 
L 4063 997 
L 4063 1884 
L 2313 1884 
L 2313 997 
z
M 4063 3203 
L 2313 3203 
L 2313 2328 
L 4063 2328 
L 4063 3203 
z
M 744 5003 
L 1100 5322 
Q 1575 4872 1981 4447 
L 1575 4091 
Q 1194 4541 744 5003 
z
" transform="scale(0.015625)"/>
      <path id="MicrosoftYaHei-ff1b" d="M 1606 3531 
Q 1772 3531 1890 3415 
Q 2009 3300 2009 3138 
Q 2009 2975 1893 2858 
Q 1778 2741 1606 2741 
Q 1434 2741 1318 2858 
Q 1203 2975 1203 3138 
Q 1203 3300 1322 3415 
Q 1441 3531 1606 3531 
z
M 1931 775 
L 1403 -891 
L 966 -891 
L 1350 775 
L 1931 775 
z
" transform="scale(0.015625)"/>
      <path id="MicrosoftYaHei-6807" d="M 75 1409 
Q 769 2478 1025 3647 
L 119 3647 
L 119 4072 
L 1069 4072 
L 1069 5297 
L 1506 5297 
L 1506 4072 
L 2356 4072 
L 2356 3647 
L 1506 3647 
L 1506 2541 
L 1775 2822 
Q 2175 2478 2481 2159 
L 2150 1816 
Q 1850 2156 1506 2503 
L 1506 -797 
L 1069 -797 
L 1069 2588 
Q 738 1513 281 859 
Q 194 1128 75 1409 
z
M 2350 3097 
L 6250 3097 
L 6250 2659 
L 4525 2659 
L 4525 47 
Q 4525 -734 3806 -734 
Q 3469 -741 2975 -728 
Q 2944 -503 2888 -209 
Q 3319 -259 3675 -259 
Q 4050 -259 4050 203 
L 4050 2659 
L 2350 2659 
L 2350 3097 
z
M 2638 4928 
L 5963 4928 
L 5963 4491 
L 2638 4491 
L 2638 4928 
z
M 4938 1853 
L 5381 2066 
Q 5975 928 6369 72 
L 5869 -147 
Q 5463 822 4938 1853 
z
M 2931 2066 
L 3400 1878 
Q 2888 734 2381 -153 
Q 2188 -41 1925 66 
Q 2425 872 2931 2066 
z
" transform="scale(0.015625)"/>
      <path id="MicrosoftYaHei-51c6" d="M 1413 2766 
Q 2313 3866 2869 5334 
L 3331 5172 
Q 3128 4694 2906 4253 
L 6194 4253 
L 6194 3822 
L 4675 3822 
L 4675 2891 
L 6025 2891 
L 6025 2459 
L 4675 2459 
L 4675 1528 
L 6038 1528 
L 6038 1097 
L 4675 1097 
L 4675 78 
L 6275 78 
L 6275 -341 
L 2769 -341 
L 2769 -841 
L 2281 -841 
L 2281 3131 
Q 2034 2738 1769 2384 
Q 1631 2578 1413 2766 
z
M 2769 78 
L 4188 78 
L 4188 1097 
L 2769 1097 
L 2769 78 
z
M 1081 2422 
Q 1325 2291 1556 2209 
Q 1113 916 681 -372 
L 169 -141 
Q 650 1003 1081 2422 
z
M 2769 1528 
L 4188 1528 
L 4188 2459 
L 2769 2459 
L 2769 1528 
z
M 2769 2891 
L 4188 2891 
L 4188 3822 
L 2769 3822 
L 2769 2891 
z
M 531 4991 
Q 1050 4384 1581 3709 
Q 1538 3678 1150 3341 
Q 681 3997 138 4672 
L 531 4991 
z
M 3919 5116 
L 4325 5372 
Q 4569 5072 4881 4622 
L 4450 4334 
Q 4156 4784 3919 5116 
z
" transform="scale(0.015625)"/>
      <path id="MicrosoftYaHei-8bef" d="M 1819 1484 
L 3706 1484 
Q 3750 1769 3756 2222 
L 2044 2222 
L 2044 2659 
L 6069 2659 
L 6069 2222 
L 4244 2222 
Q 4234 1753 4203 1484 
L 6288 1484 
L 6288 1047 
L 4356 1047 
Q 4913 -53 6363 -359 
Q 6138 -628 5981 -828 
Q 4538 -406 3984 850 
Q 3569 -272 1969 -847 
Q 1819 -653 1631 -441 
Q 3188 53 3588 1047 
L 1819 1047 
L 1819 1484 
z
M 2325 5034 
L 5750 5034 
L 5750 2991 
L 5275 2991 
L 5275 3272 
L 2800 3272 
L 2800 2991 
L 2325 2991 
L 2325 5034 
z
M 2044 784 
Q 2063 459 2088 247 
Q 1294 -272 925 -584 
L 631 -166 
Q 844 9 844 378 
L 844 2716 
L 100 2716 
L 100 3166 
L 1325 3166 
L 1325 284 
Q 1763 578 2044 784 
z
M 5275 4616 
L 2800 4616 
L 2800 3691 
L 5275 3691 
L 5275 4616 
z
M 831 5153 
Q 1281 4697 1725 4184 
L 1294 3822 
Q 881 4347 450 4822 
L 831 5153 
z
" transform="scale(0.015625)"/>
      <path id="MicrosoftYaHei-6309" d="M 1763 -366 
Q 3172 -25 3822 450 
Q 3184 791 2444 1147 
Q 2713 1622 2959 2153 
L 2194 2153 
L 2194 2603 
L 3159 2603 
Q 3384 3119 3588 3684 
L 4113 3503 
Q 3919 3069 3700 2603 
L 6263 2603 
L 6263 2153 
L 5444 2153 
Q 5219 1191 4650 547 
Q 5494 100 6238 -353 
L 5938 -828 
Q 5253 -338 4288 197 
Q 3566 -394 2013 -834 
Q 1938 -609 1763 -366 
z
M 88 1966 
Q 503 2094 938 2244 
L 938 3641 
L 175 3641 
L 175 4091 
L 938 4091 
L 938 5253 
L 1413 5253 
L 1413 4091 
L 2100 4091 
L 2100 3641 
L 1413 3641 
L 1413 2413 
Q 1691 2513 1975 2622 
Q 1988 2359 2025 2122 
Q 1722 2016 1413 1900 
L 1413 -78 
Q 1413 -753 763 -759 
Q 569 -766 206 -753 
Q 181 -497 131 -234 
Q 431 -272 681 -272 
Q 938 -272 938 28 
L 938 1722 
Q 550 1575 150 1416 
L 88 1966 
z
M 2300 4384 
L 4056 4384 
Q 3884 4734 3663 5122 
L 4113 5347 
Q 4419 4847 4550 4572 
L 4178 4384 
L 6119 4384 
L 6119 3322 
L 5619 3322 
L 5619 3934 
L 2800 3934 
L 2800 3322 
L 2300 3322 
L 2300 4384 
z
M 3088 1328 
Q 3656 1056 4188 784 
Q 4750 1384 4934 2153 
L 3488 2153 
Q 3297 1753 3088 1328 
z
" transform="scale(0.015625)"/>
      <path id="MicrosoftYaHei-7701" d="M 106 2684 
Q 3094 3278 4838 3978 
L 5088 3559 
Q 3838 3091 1928 2628 
L 5588 2628 
L 5588 -791 
L 5125 -791 
L 5125 -516 
L 1613 -516 
L 1613 -803 
L 1150 -803 
L 1150 2444 
Q 728 2350 275 2253 
Q 206 2459 106 2684 
z
M 1613 -91 
L 5125 -91 
L 5125 403 
L 1613 403 
L 1613 -91 
z
M 5125 2203 
L 1613 2203 
L 1613 1716 
L 5125 1716 
L 5125 2203 
z
M 1613 816 
L 5125 816 
L 5125 1303 
L 1613 1303 
L 1613 816 
z
M 2031 4934 
L 2375 4566 
Q 1481 3866 563 3247 
Q 425 3441 269 3653 
Q 1238 4272 2031 4934 
z
M 4206 4572 
L 4463 4941 
Q 5394 4434 6306 3866 
L 6006 3428 
Q 5175 4009 4206 4572 
z
M 2956 5303 
L 3431 5303 
L 3431 3591 
L 2956 3591 
L 2956 5303 
z
" transform="scale(0.015625)"/>
      <path id="MicrosoftYaHei-4efd" d="M 2269 2653 
L 5394 2653 
Q 5388 2566 5300 366 
Q 5275 -709 4319 -722 
Q 3806 -722 3425 -703 
Q 3394 -416 3331 -184 
Q 3763 -241 4200 -253 
Q 4806 -297 4813 422 
Q 4863 1259 4888 2216 
L 3481 2216 
Q 3463 1222 3181 572 
Q 2844 -172 2019 -822 
Q 1856 -622 1656 -416 
Q 2450 203 2713 772 
Q 2969 1275 2997 2216 
L 2269 2216 
L 2269 2653 
z
M 75 2353 
Q 969 3534 1525 5284 
L 2013 5116 
Q 1709 4284 1350 3559 
L 1350 -809 
L 875 -809 
L 875 2691 
Q 588 2216 275 1797 
Q 181 2066 75 2353 
z
M 4006 5116 
L 4419 5291 
Q 5038 3703 6325 2972 
Q 6088 2697 5969 2516 
Q 4575 3472 4006 5116 
z
M 1588 2741 
Q 2563 3597 3163 5034 
L 3606 4866 
Q 3025 3409 1963 2397 
Q 1738 2628 1588 2741 
z
" transform="scale(0.015625)"/>
      <path id="MicrosoftYaHei-805a" d="M 194 5072 
L 3244 5072 
L 3244 4697 
L 2863 4697 
L 2863 2956 
Q 3069 2981 3269 3009 
Q 3256 2772 3256 2622 
Q 3059 2597 2863 2575 
L 2863 2109 
L 2450 2109 
L 2450 2522 
Q 1381 2388 219 2216 
L 144 2641 
Q 400 2666 650 2694 
L 650 4697 
L 194 4697 
L 194 5072 
z
M 5438 1503 
L 5750 1109 
Q 5109 744 4566 456 
Q 5303 -16 6281 -216 
Q 6150 -359 5975 -653 
Q 4319 -225 3400 966 
L 3400 -822 
L 2950 -822 
L 2950 1566 
Q 1850 1503 700 1484 
Q 675 1697 613 1903 
Q 3094 1922 5206 2172 
L 5281 1753 
Q 4359 1656 3400 1591 
L 3400 1575 
Q 3747 1088 4200 722 
Q 4859 1091 5438 1503 
z
M 3331 3984 
L 3588 4291 
Q 4175 3906 4775 3484 
Q 5231 3944 5475 4528 
L 3463 4528 
L 3463 4928 
L 5938 4928 
L 5938 4591 
Q 5713 3819 5141 3222 
Q 5625 2872 6119 2497 
L 5800 2128 
Q 5294 2538 4806 2909 
Q 4250 2447 3456 2109 
Q 3319 2334 3194 2503 
Q 3919 2784 4438 3188 
Q 3872 3609 3331 3984 
z
M 100 -328 
Q 1475 34 2531 697 
L 2781 359 
Q 1613 -334 300 -741 
Q 225 -553 100 -328 
z
M 138 703 
Q 1238 959 2188 1466 
L 2406 1116 
Q 1356 591 338 291 
Q 300 409 138 703 
z
M 2450 2903 
L 2450 3222 
L 1063 3222 
L 1063 2741 
Q 1784 2822 2450 2903 
z
M 1063 3572 
L 2450 3572 
L 2450 3959 
L 1063 3959 
L 1063 3572 
z
M 1063 4309 
L 2450 4309 
L 2450 4697 
L 1063 4697 
L 1063 4309 
z
" transform="scale(0.015625)"/>
      <path id="MicrosoftYaHei-7c7b" d="M 6338 -359 
Q 6213 -503 6006 -853 
Q 3975 -459 3200 884 
Q 2644 -497 400 -897 
Q 288 -684 131 -434 
Q 2244 -147 2744 1047 
L 275 1047 
L 275 1484 
L 2875 1484 
Q 2925 1691 2956 1978 
L 3456 1978 
Q 3413 1697 3369 1484 
L 6125 1484 
L 6125 1047 
L 3619 1047 
Q 4450 -159 6338 -359 
z
M 325 3741 
L 2975 3741 
L 2975 5303 
L 3450 5303 
L 3450 3741 
L 6075 3741 
L 6075 3322 
L 3450 3322 
L 3450 2953 
L 3625 3191 
Q 5325 2528 6231 2128 
L 6013 1722 
Q 4956 2266 3450 2847 
L 3450 2197 
L 2975 2197 
L 2975 3241 
Q 1863 2191 450 1741 
Q 319 1934 144 2153 
Q 1569 2553 2538 3322 
L 325 3322 
L 325 3741 
z
M 5550 4784 
Q 5163 4459 4394 3891 
L 4069 4222 
Q 4569 4578 5194 5122 
L 5550 4784 
z
M 900 4791 
L 1206 5122 
Q 1875 4647 2306 4266 
L 1969 3897 
Q 1581 4284 900 4791 
z
" transform="scale(0.015625)"/>
      <path id="MicrosoftYaHei-3002" d="M 1219 863 
Q 1525 863 1750 625 
Q 1975 388 1975 72 
Q 1975 -284 1747 -507 
Q 1519 -731 1197 -731 
Q 875 -731 642 -503 
Q 409 -275 409 66 
Q 409 413 656 638 
Q 903 863 1219 863 
z
M 1209 -275 
Q 1328 -275 1431 -184 
Q 1534 -94 1534 50 
Q 1534 209 1434 304 
Q 1334 400 1191 400 
Q 1056 400 959 304 
Q 863 209 863 53 
Q 863 -100 977 -187 
Q 1091 -275 1209 -275 
z
" transform="scale(0.015625)"/>
     </defs>
     <use xlink:href="#MicrosoftYaHei-70b9"/>
     <use xlink:href="#MicrosoftYaHei-4e3a" x="100"/>
     <use xlink:href="#MicrosoftYaHei-7ec4" x="200"/>
     <use xlink:href="#MicrosoftYaHei-5185" x="300"/>
     <use xlink:href="#MicrosoftYaHei-5904" x="400"/>
     <use xlink:href="#MicrosoftYaHei-7406" x="500"/>
     <use xlink:href="#MicrosoftYaHei-6548" x="600"/>
     <use xlink:href="#MicrosoftYaHei-5e94" x="700"/>
     <use xlink:href="#MicrosoftYaHei-ff0c" x="800"/>
     <use xlink:href="#MicrosoftYaHei-7ebf" x="900"/>
     <use xlink:href="#MicrosoftYaHei-6bb5" x="1000"/>
     <use xlink:href="#MicrosoftYaHei-4e3a" x="1100"/>
     <use xlink:href="#MicrosoftYaHei-20" x="1200"/>
     <use xlink:href="#MicrosoftYaHei-39" x="1229.589844"/>
     <use xlink:href="#MicrosoftYaHei-35" x="1288.232422"/>
     <use xlink:href="#MicrosoftYaHei-25" x="1346.875"/>
     <use xlink:href="#MicrosoftYaHei-20" x="1435.839844"/>
     <use xlink:href="#MicrosoftYaHei-7f6e" x="1465.429688"/>
     <use xlink:href="#MicrosoftYaHei-4fe1" x="1565.429688"/>
     <use xlink:href="#MicrosoftYaHei-533a" x="1665.429688"/>
     <use xlink:href="#MicrosoftYaHei-95f4" x="1765.429688"/>
     <use xlink:href="#MicrosoftYaHei-ff1b" x="1865.429688"/>
     <use xlink:href="#MicrosoftYaHei-6807" x="1965.429688"/>
     <use xlink:href="#MicrosoftYaHei-51c6" x="2065.429688"/>
     <use xlink:href="#MicrosoftYaHei-8bef" x="2165.429688"/>
     <use xlink:href="#MicrosoftYaHei-6309" x="2265.429688"/>
     <use xlink:href="#MicrosoftYaHei-7701" x="2365.429688"/>
     <use xlink:href="#MicrosoftYaHei-4efd" x="2465.429688"/>
     <use xlink:href="#MicrosoftYaHei-805a" x="2565.429688"/>
     <use xlink:href="#MicrosoftYaHei-7c7b" x="2665.429688"/>
     <use xlink:href="#MicrosoftYaHei-3002" x="2765.429688"/>
    </g>
   </g>
   <g id="text_20">
    <!-- EM-GMM: 分组 CATE 系数图 -->
    <g transform="translate(53.048438 19.190625)scale(0.15 -0.15)">
     <defs>
      <path id="MicrosoftYaHei-Bold-45" d="M 3425 0 
L 559 0 
L 559 4841 
L 3313 4841 
L 3313 3997 
L 1591 3997 
L 1591 2856 
L 3191 2856 
L 3191 2016 
L 1591 2016 
L 1591 844 
L 3425 844 
L 3425 0 
z
" transform="scale(0.015625)"/>
      <path id="MicrosoftYaHei-Bold-4d" d="M 4991 0 
L 4991 2938 
Q 4991 3344 5031 3959 
L 5006 3959 
Q 4913 3494 4856 3338 
L 3663 0 
L 2841 0 
L 1631 3306 
Q 1588 3425 1478 3959 
L 1450 3959 
Q 1491 3350 1491 2738 
L 1491 0 
L 559 0 
L 559 4841 
L 2059 4841 
L 3103 1916 
Q 3234 1553 3281 1234 
L 3303 1234 
Q 3400 1631 3503 1922 
L 4550 4841 
L 6009 4841 
L 6009 0 
L 4991 0 
z
" transform="scale(0.015625)"/>
      <path id="MicrosoftYaHei-Bold-2d" d="M 2328 1497 
L 481 1497 
L 481 2209 
L 2328 2209 
L 2328 1497 
z
" transform="scale(0.015625)"/>
      <path id="MicrosoftYaHei-Bold-47" d="M 4494 325 
Q 3784 -84 2750 -84 
Q 1594 -84 925 566 
Q 256 1216 256 2344 
Q 256 3488 992 4205 
Q 1728 4922 2931 4922 
Q 3706 4922 4284 4703 
L 4284 3725 
Q 3722 4053 2909 4053 
Q 2209 4053 1775 3597 
Q 1341 3141 1341 2394 
Q 1341 1634 1733 1209 
Q 2125 784 2803 784 
Q 3206 784 3463 909 
L 3463 1903 
L 2484 1903 
L 2484 2731 
L 4494 2731 
L 4494 325 
z
" transform="scale(0.015625)"/>
      <path id="MicrosoftYaHei-Bold-3a" d="M 313 2969 
Q 313 3200 491 3350 
Q 669 3500 916 3500 
Q 1166 3500 1337 3350 
Q 1509 3200 1509 2969 
Q 1509 2728 1337 2579 
Q 1166 2431 903 2431 
Q 653 2431 483 2584 
Q 313 2738 313 2969 
z
M 313 453 
Q 313 688 491 838 
Q 669 988 916 988 
Q 1166 988 1337 834 
Q 1509 681 1509 453 
Q 1509 213 1337 64 
Q 1166 -84 903 -84 
Q 659 -84 486 69 
Q 313 222 313 453 
z
" transform="scale(0.015625)"/>
      <path id="MicrosoftYaHei-Bold-20" transform="scale(0.015625)"/>
      <path id="MicrosoftYaHei-Bold-5206" d="M 6350 3028 
Q 6088 2703 5750 2228 
Q 5519 2409 5303 2603 
Q 5219 606 5172 190 
Q 5125 -225 4862 -451 
Q 4600 -678 4128 -678 
Q 3484 -678 2913 -659 
Q 2856 -141 2781 284 
Q 3594 216 3956 216 
Q 4172 216 4230 408 
Q 4288 600 4325 1978 
L 2781 1978 
Q 2728 1100 2529 631 
Q 2331 163 1907 -215 
Q 1484 -594 844 -872 
Q 456 -353 194 -78 
Q 750 144 1111 414 
Q 1472 684 1630 989 
Q 1788 1294 1841 1978 
L 950 1978 
L 950 2475 
Q 794 2356 631 2247 
Q 344 2653 63 2953 
Q 1475 3947 2194 5316 
L 3031 4953 
Q 2378 3722 1391 2841 
L 5047 2841 
Q 4088 3766 3463 4903 
L 4238 5303 
Q 5038 3922 6350 3028 
z
" transform="scale(0.015625)"/>
      <path id="MicrosoftYaHei-Bold-7ec4" d="M 244 -559 
L 94 272 
Q 1200 397 2388 566 
Q 2375 384 2369 203 
L 2694 203 
L 2694 3769 
Q 2003 2625 1363 1728 
L 2463 1859 
Q 2406 1409 2394 1109 
Q 788 941 488 834 
L 181 1584 
Q 500 1766 1144 2734 
Q 538 2703 325 2634 
L 75 3366 
Q 413 3578 1231 5366 
L 2025 5059 
Q 1513 4153 1038 3409 
L 1584 3438 
Q 1791 3788 1994 4172 
L 2694 3838 
L 2694 5059 
L 5913 5059 
L 5913 203 
L 6306 203 
L 6306 -603 
L 2256 -603 
L 2256 -263 
L 244 -559 
z
M 5038 4253 
L 3569 4253 
L 3569 3434 
L 5038 3434 
L 5038 4253 
z
M 3569 1828 
L 5038 1828 
L 5038 2647 
L 3569 2647 
L 3569 1828 
z
M 3569 203 
L 5038 203 
L 5038 1041 
L 3569 1041 
L 3569 203 
z
" transform="scale(0.015625)"/>
      <path id="MicrosoftYaHei-Bold-43" d="M 4013 175 
Q 3484 -84 2634 -84 
Q 1541 -84 898 570 
Q 256 1225 256 2316 
Q 256 3463 973 4192 
Q 1691 4922 2825 4922 
Q 3534 4922 4013 4738 
L 4013 3741 
Q 3522 4028 2900 4028 
Q 2191 4028 1766 3575 
Q 1341 3122 1341 2391 
Q 1341 1678 1744 1243 
Q 2147 809 2834 809 
Q 3481 809 4013 1122 
L 4013 175 
z
" transform="scale(0.015625)"/>
      <path id="MicrosoftYaHei-Bold-41" d="M 4759 0 
L 3634 0 
L 3272 1109 
L 1513 1109 
L 1156 0 
L 38 0 
L 1809 4841 
L 3022 4841 
L 4759 0 
z
M 3028 1906 
L 2478 3584 
Q 2425 3744 2403 4006 
L 2375 4006 
Q 2356 3794 2291 3597 
L 1738 1906 
L 3028 1906 
z
" transform="scale(0.015625)"/>
      <path id="MicrosoftYaHei-Bold-54" d="M 3900 3997 
L 2519 3997 
L 2519 0 
L 1484 0 
L 1484 3997 
L 106 3997 
L 106 4841 
L 3900 4841 
L 3900 3997 
z
" transform="scale(0.015625)"/>
      <path id="MicrosoftYaHei-Bold-7cfb" d="M 344 4916 
Q 3406 4903 5900 5159 
L 6025 4472 
Q 4769 4353 3397 4278 
Q 2747 3884 2019 3528 
L 4084 3622 
Q 4550 3884 5038 4178 
L 5625 3591 
Q 3875 2622 1900 1878 
Q 3247 1938 4613 2034 
Q 4372 2272 4156 2466 
L 4738 2934 
Q 5219 2516 6263 1466 
L 5669 922 
Q 5447 1169 5241 1388 
L 3731 1328 
L 3731 -141 
Q 3731 -456 3547 -622 
Q 3363 -788 2984 -802 
Q 2606 -816 1975 -816 
Q 1919 -359 1813 34 
Q 2119 9 2466 9 
Q 2719 9 2800 65 
Q 2881 122 2881 278 
L 2881 1288 
Q 1481 1216 738 1128 
L 519 1903 
Q 1575 2303 2803 2931 
Q 1563 2856 888 2759 
L 656 3522 
Q 1338 3775 2075 4213 
L 481 4166 
Q 438 4522 344 4916 
z
M 4738 1153 
Q 5431 678 6294 -3 
L 5719 -603 
Q 5050 -28 4213 603 
L 4738 1153 
z
M 1569 1091 
L 2200 534 
Q 1494 -128 656 -678 
Q 369 -309 88 -9 
Q 894 447 1569 1091 
z
" transform="scale(0.015625)"/>
      <path id="MicrosoftYaHei-Bold-6570" d="M 238 4091 
L 725 4091 
Q 559 4425 281 4803 
L 844 5153 
Q 1038 4922 1369 4428 
L 806 4091 
L 1506 4091 
L 1506 5316 
L 2300 5316 
L 2300 4091 
L 2956 4091 
L 2438 4428 
Q 2750 4809 2963 5172 
L 3550 4822 
Q 3341 4466 3031 4091 
L 3394 4091 
L 3394 3453 
L 2300 3453 
L 2300 3016 
L 2513 3303 
Q 2903 3094 3253 2891 
Q 3766 3841 4138 5347 
L 4994 5266 
Q 4869 4781 4728 4341 
L 6294 4341 
L 6294 3578 
L 6041 3578 
Q 5906 1922 5338 856 
Q 5738 391 6319 53 
Q 6094 -203 5775 -778 
Q 5228 -413 4828 109 
Q 4313 -497 3631 -872 
Q 3378 -513 3072 -197 
L 2850 -566 
Q 2475 -350 2031 -128 
Q 1347 -584 394 -778 
Q 281 -434 63 -9 
Q 716 59 1213 253 
Q 781 444 300 641 
Q 513 950 681 1259 
L 169 1259 
L 169 1897 
L 991 1897 
Q 1094 2144 1169 2391 
L 1506 2359 
L 1506 2959 
Q 1044 2472 344 2053 
Q 213 2472 50 2803 
Q 672 3044 1172 3453 
L 238 3453 
L 238 4091 
z
M 4394 3400 
Q 4519 2359 4831 1659 
Q 5203 2478 5275 3578 
L 4463 3578 
Q 4431 3488 4394 3400 
z
M 2300 2216 
L 1984 2216 
Q 1913 2063 1825 1897 
L 3281 1897 
L 3281 1316 
Q 3038 806 2672 413 
L 3294 166 
L 3169 -38 
Q 3859 322 4347 894 
Q 4041 1522 3878 2300 
Q 3769 2103 3656 1922 
Q 3513 2172 3322 2438 
L 3138 2159 
Q 2750 2422 2300 2691 
L 2300 2216 
z
M 1300 934 
L 1950 691 
Q 2231 934 2413 1259 
L 1484 1259 
L 1300 934 
z
" transform="scale(0.015625)"/>
      <path id="MicrosoftYaHei-Bold-56fe" d="M 369 -841 
L 369 5072 
L 6019 5072 
L 6019 -834 
L 5156 -834 
L 5156 -591 
L 1231 -591 
L 1231 -841 
L 369 -841 
z
M 4875 3978 
L 4875 3466 
Q 4547 3022 4006 2678 
Q 4513 2541 5156 2463 
L 5156 4316 
L 3256 4316 
Q 3141 4144 3009 3978 
L 4875 3978 
z
M 2394 4316 
L 1231 4316 
L 1231 3231 
Q 2016 3747 2394 4316 
z
M 3228 2959 
Q 3666 3163 3919 3416 
L 2575 3416 
Q 2828 3156 3228 2959 
z
M 1644 2747 
Q 1481 2925 1231 3147 
L 1231 2400 
Q 1950 2522 2500 2688 
Q 2266 2863 2078 3063 
Q 1872 2900 1644 2747 
z
M 1669 1303 
Q 3319 1084 4775 841 
L 4600 166 
L 5156 166 
L 5156 2388 
Q 5019 2159 4825 1822 
Q 3897 1978 3219 2275 
Q 2872 2134 2472 2019 
Q 3509 1888 4500 1722 
L 4375 1128 
Q 3344 1309 2063 1484 
L 2159 1934 
Q 1856 1859 1525 1797 
Q 1409 2059 1231 2347 
L 1231 166 
L 4569 166 
Q 3297 425 1494 647 
L 1669 1303 
z
" transform="scale(0.015625)"/>
     </defs>
     <use xlink:href="#MicrosoftYaHei-Bold-45"/>
     <use xlink:href="#MicrosoftYaHei-Bold-4d" x="57.177734"/>
     <use xlink:href="#MicrosoftYaHei-Bold-2d" x="160.009766"/>
     <use xlink:href="#MicrosoftYaHei-Bold-47" x="203.662109"/>
     <use xlink:href="#MicrosoftYaHei-Bold-4d" x="280.175781"/>
     <use xlink:href="#MicrosoftYaHei-Bold-4d" x="383.007812"/>
     <use xlink:href="#MicrosoftYaHei-Bold-3a" x="485.839844"/>
     <use xlink:href="#MicrosoftYaHei-Bold-20" x="514.404297"/>
     <use xlink:href="#MicrosoftYaHei-Bold-5206" x="544.189453"/>
     <use xlink:href="#MicrosoftYaHei-Bold-7ec4" x="644.189453"/>
     <use xlink:href="#MicrosoftYaHei-Bold-20" x="744.189453"/>
     <use xlink:href="#MicrosoftYaHei-Bold-43" x="773.974609"/>
     <use xlink:href="#MicrosoftYaHei-Bold-41" x="841.308594"/>
     <use xlink:href="#MicrosoftYaHei-Bold-54" x="908.878906"/>
     <use xlink:href="#MicrosoftYaHei-Bold-45" x="971.427734"/>
     <use xlink:href="#MicrosoftYaHei-Bold-20" x="1028.605469"/>
     <use xlink:href="#MicrosoftYaHei-Bold-7cfb" x="1058.390625"/>
     <use xlink:href="#MicrosoftYaHei-Bold-6570" x="1158.390625"/>
     <use xlink:href="#MicrosoftYaHei-Bold-56fe" x="1258.390625"/>
    </g>
   </g>
  </g>
 </g>
 <defs>
  <clipPath id="p6739c21bd9">
   <rect x="53.048438" y="25.190625" width="493.64662" height="278.92"/>
  </clipPath>
 </defs>
</svg>
