<svg xmlns="http://www.w3.org/2000/svg" width="980" height="620" viewBox="0 0 980 620">
<title>dummy vs continuous</title>
<rect width="100%" height="100%" fill="#fbfbf8"/>
<style>
text { font-family: 'Microsoft YaHei','SimHei','Noto Sans CJK SC',Arial,sans-serif; fill: #243447; }
.title { font-size: 28px; font-weight: 700; }
.subtitle { font-size: 14px; fill: #6b7280; }
.axis { font-size: 12px; fill: #6b7280; }
.small { font-size: 11px; fill: #6b7280; }
.label { font-size: 12px; fill: #243447; }
</style>

<text x="36" y="44" class="title">同样是 0-1 试点，连续规制强度并不相同</text>
<text x="36" y="70" class="subtitle">左侧均为 D_credit_dummy；右侧为 D_credit_cont_norm。该图说明 Fuzzy DID 比 0-1 DID 更贴合信贷导向规制能力的真实强度。</text>
<line x1="36" y1="88" x2="944" y2="88" stroke="#e5e7eb" stroke-width="1"/>

<text x="180" y="108" text-anchor="middle" class="axis">0-1 处理变量</text>
<text x="840" y="108" text-anchor="middle" class="axis">连续规制强度</text>
<text x="105" y="135" text-anchor="end" class="label">上海</text>
<line x1="180" y1="130" x2="840" y2="130" stroke="#d1d5db" stroke-width="1"/>
<circle cx="180" cy="130" r="11" fill="#111827"/>
<text x="180" y="134" text-anchor="middle" font-size="11" fill="#ffffff">1</text>
<circle cx="840" cy="130" r="25.7" fill="#841e1e" stroke="#111827" stroke-opacity="0.5"/>
<text x="885" y="135" class="axis">0.983</text>
<text x="105" y="177" text-anchor="end" class="label">杭州</text>
<line x1="180" y1="172" x2="840" y2="172" stroke="#d1d5db" stroke-width="1"/>
<circle cx="180" cy="172" r="11" fill="#111827"/>
<text x="180" y="176" text-anchor="middle" font-size="11" fill="#ffffff">1</text>
<circle cx="840" cy="172" r="23.3" fill="#b12e2e" stroke="#111827" stroke-opacity="0.5"/>
<text x="885" y="177" class="axis">0.851</text>
<text x="105" y="219" text-anchor="end" class="label">南宁</text>
<line x1="180" y1="214" x2="840" y2="214" stroke="#d1d5db" stroke-width="1"/>
<circle cx="180" cy="214" r="11" fill="#111827"/>
<text x="180" y="218" text-anchor="middle" font-size="11" fill="#ffffff">1</text>
<circle cx="840" cy="214" r="20.7" fill="#e23f3f" stroke="#111827" stroke-opacity="0.5"/>
<text x="885" y="219" class="axis">0.703</text>
<text x="105" y="261" text-anchor="end" class="label">成都</text>
<line x1="180" y1="256" x2="840" y2="256" stroke="#d1d5db" stroke-width="1"/>
<circle cx="180" cy="256" r="11" fill="#111827"/>
<text x="180" y="260" text-anchor="middle" font-size="11" fill="#ffffff">1</text>
<circle cx="840" cy="256" r="19.7" fill="#ef4946" stroke="#111827" stroke-opacity="0.5"/>
<text x="885" y="261" class="axis">0.652</text>
<text x="105" y="303" text-anchor="end" class="label">深圳</text>
<line x1="180" y1="298" x2="840" y2="298" stroke="#d1d5db" stroke-width="1"/>
<circle cx="180" cy="298" r="11" fill="#111827"/>
<text x="180" y="302" text-anchor="middle" font-size="11" fill="#ffffff">1</text>
<circle cx="840" cy="298" r="17.9" fill="#f36c54" stroke="#111827" stroke-opacity="0.5"/>
<text x="885" y="303" class="axis">0.551</text>
<text x="105" y="345" text-anchor="end" class="label">防城港</text>
<line x1="180" y1="340" x2="840" y2="340" stroke="#d1d5db" stroke-width="1"/>
<circle cx="180" cy="340" r="11" fill="#111827"/>
<text x="180" y="344" text-anchor="middle" font-size="11" fill="#ffffff">1</text>
<circle cx="840" cy="340" r="17.7" fill="#f47156" stroke="#111827" stroke-opacity="0.5"/>
<text x="885" y="345" class="axis">0.537</text>
<text x="105" y="387" text-anchor="end" class="label">西双版纳</text>
<line x1="180" y1="382" x2="840" y2="382" stroke="#d1d5db" stroke-width="1"/>
<circle cx="180" cy="382" r="11" fill="#111827"/>
<text x="180" y="386" text-anchor="middle" font-size="11" fill="#ffffff">1</text>
<circle cx="840" cy="382" r="17.1" fill="#f57d5b" stroke="#111827" stroke-opacity="0.5"/>
<text x="885" y="387" class="axis">0.503</text>
<text x="105" y="429" text-anchor="end" class="label">北京</text>
<line x1="180" y1="424" x2="840" y2="424" stroke="#d1d5db" stroke-width="1"/>
<circle cx="180" cy="424" r="11" fill="#111827"/>
<text x="180" y="428" text-anchor="middle" font-size="11" fill="#ffffff">1</text>
<circle cx="840" cy="424" r="15.7" fill="#f89766" stroke="#111827" stroke-opacity="0.5"/>
<text x="885" y="429" class="axis">0.430</text>
<text x="105" y="471" text-anchor="end" class="label">五指山</text>
<line x1="180" y1="466" x2="840" y2="466" stroke="#d1d5db" stroke-width="1"/>
<circle cx="180" cy="466" r="11" fill="#111827"/>
<text x="180" y="470" text-anchor="middle" font-size="11" fill="#ffffff">1</text>
<circle cx="840" cy="466" r="8.0" fill="#fffbeb" stroke="#111827" stroke-opacity="0.5"/>
<text x="885" y="471" class="axis">0.000</text>
<text x="105" y="513" text-anchor="end" class="label">苏州</text>
<line x1="180" y1="508" x2="840" y2="508" stroke="#d1d5db" stroke-width="1"/>
<circle cx="180" cy="508" r="11" fill="#111827"/>
<text x="180" y="512" text-anchor="middle" font-size="11" fill="#ffffff">1</text>
<circle cx="840" cy="508" r="8.0" fill="#fffbeb" stroke="#111827" stroke-opacity="0.5"/>
<text x="885" y="513" class="axis">0.000</text>
</svg>