<?xml version="1.0" encoding="utf-8" standalone="no"?>
<!DOCTYPE svg PUBLIC "-//W3C//DTD SVG 1.1//EN"
  "http://www.w3.org/Graphics/SVG/1.1/DTD/svg11.dtd">
<svg xmlns:xlink="http://www.w3.org/1999/xlink" width="605.081562pt" height="336.07pt" viewBox="0 0 605.081562 336.07" xmlns="http://www.w3.org/2000/svg" version="1.1">
 <metadata>
  <rdf:RDF xmlns:dc="http://purl.org/dc/elements/1.1/" xmlns:cc="http://creativecommons.org/ns#" xmlns:rdf="http://www.w3.org/1999/02/22-rdf-syntax-ns#">
   <cc:Work>
    <dc:type rdf:resource="http://purl.org/dc/dcmitype/StillImage"/>
    <dc:date>2026-07-02T14:36:33.555714</dc:date>
    <dc:format>image/svg+xml</dc:format>
    <dc:creator>
     <cc:Agent>
      <dc:title>Matplotlib v3.5.3, https://matplotlib.org/</dc:title>
     </cc:Agent>
    </dc:creator>
   </cc:Work>
  </rdf:RDF>
 </metadata>
 <defs>
  <style type="text/css">*{stroke-linejoin: round; stroke-linecap: butt}</style>
 </defs>
 <g id="figure_1">
  <g id="patch_1">
   <path d="M 0 336.07 
L 605.081562 336.07 
L 605.081562 0 
L 0 0 
z
" style="fill: #ffffff"/>
  </g>
  <g id="axes_1">
   <g id="patch_2">
    <path d="M 65.601562 296.910625 
L 597.881562 296.910625 
L 597.881562 25.190625 
L 65.601562 25.190625 
z
" style="fill: #ffffff"/>
   </g>
   <g id="matplotlib.axis_1">
    <g id="xtick_1">
     <g id="line2d_1">
      <path d="M 94.9168 296.910625 
L 94.9168 25.190625 
" clip-path="url(#p81f66c5823)" style="fill: none; stroke: #e5e7eb; stroke-width: 0.8; stroke-linecap: square"/>
     </g>
     <g id="line2d_2">
      <defs>
       <path id="mc376d4afd7" d="M 0 0 
L 0 3.5 
" style="stroke: #000000; stroke-width: 0.8"/>
      </defs>
      <g>
       <use xlink:href="#mc376d4afd7" x="94.9168" y="296.910625" style="stroke: #000000; stroke-width: 0.8"/>
      </g>
     </g>
     <g id="text_1">
      <!-- 0.00 -->
      <g transform="translate(84.9168 311.904375)scale(0.1 -0.1)">
       <defs>
        <path id="MicrosoftYaHei-30" d="M 284 2325 
Q 284 3606 709 4264 
Q 1134 4922 1941 4922 
Q 3478 4922 3478 2441 
Q 3478 1216 3045 567 
Q 2613 -81 1831 -81 
Q 1094 -81 689 534 
Q 284 1150 284 2325 
z
M 909 2353 
Q 909 425 1888 425 
Q 2850 425 2850 2384 
Q 2850 4413 1906 4413 
Q 909 4413 909 2353 
z
" transform="scale(0.015625)"/>
        <path id="MicrosoftYaHei-2e" d="M 372 322 
Q 372 491 487 606 
Q 603 722 775 722 
Q 950 722 1065 605 
Q 1181 488 1181 322 
Q 1181 159 1065 42 
Q 950 -75 772 -75 
Q 600 -75 486 42 
Q 372 159 372 322 
z
" transform="scale(0.015625)"/>
       </defs>
       <use xlink:href="#MicrosoftYaHei-30"/>
       <use xlink:href="#MicrosoftYaHei-2e" x="58.642578"/>
       <use xlink:href="#MicrosoftYaHei-30" x="82.714844"/>
       <use xlink:href="#MicrosoftYaHei-30" x="141.357422"/>
      </g>
     </g>
    </g>
    <g id="xtick_2">
     <g id="line2d_3">
      <path d="M 168.204893 296.910625 
L 168.204893 25.190625 
" clip-path="url(#p81f66c5823)" style="fill: none; stroke: #e5e7eb; stroke-width: 0.8; stroke-linecap: square"/>
     </g>
     <g id="line2d_4">
      <g>
       <use xlink:href="#mc376d4afd7" x="168.204893" y="296.910625" style="stroke: #000000; stroke-width: 0.8"/>
      </g>
     </g>
     <g id="text_2">
      <!-- 0.25 -->
      <g transform="translate(158.204893 311.904375)scale(0.1 -0.1)">
       <defs>
        <path id="MicrosoftYaHei-32" d="M 2666 3572 
Q 2666 3963 2419 4186 
Q 2172 4409 1747 4409 
Q 1447 4409 1140 4256 
Q 834 4103 569 3819 
L 569 4413 
Q 806 4659 1107 4790 
Q 1409 4922 1816 4922 
Q 2472 4922 2872 4570 
Q 3272 4219 3272 3619 
Q 3272 3084 3026 2693 
Q 2781 2303 2188 1894 
Q 1581 1475 1376 1294 
Q 1172 1113 1090 947 
Q 1009 781 1009 544 
L 3416 544 
L 3416 0 
L 372 0 
L 372 241 
Q 372 659 486 951 
Q 600 1244 862 1520 
Q 1125 1797 1681 2184 
Q 2250 2584 2458 2886 
Q 2666 3188 2666 3572 
z
" transform="scale(0.015625)"/>
        <path id="MicrosoftYaHei-35" d="M 3294 1494 
Q 3294 784 2823 350 
Q 2353 -84 1559 -84 
Q 878 -84 544 119 
L 544 744 
Q 1034 425 1544 425 
Q 2050 425 2361 704 
Q 2672 984 2672 1447 
Q 2672 1909 2348 2167 
Q 2025 2425 1434 2425 
Q 978 2425 613 2384 
L 791 4841 
L 3053 4841 
L 3053 4303 
L 1306 4303 
L 1206 2931 
L 1647 2950 
Q 2416 2950 2855 2567 
Q 3294 2184 3294 1494 
z
" transform="scale(0.015625)"/>
       </defs>
       <use xlink:href="#MicrosoftYaHei-30"/>
       <use xlink:href="#MicrosoftYaHei-2e" x="58.642578"/>
       <use xlink:href="#MicrosoftYaHei-32" x="82.714844"/>
       <use xlink:href="#MicrosoftYaHei-35" x="141.357422"/>
      </g>
     </g>
    </g>
    <g id="xtick_3">
     <g id="line2d_5">
      <path d="M 241.492986 296.910625 
L 241.492986 25.190625 
" clip-path="url(#p81f66c5823)" style="fill: none; stroke: #e5e7eb; stroke-width: 0.8; stroke-linecap: square"/>
     </g>
     <g id="line2d_6">
      <g>
       <use xlink:href="#mc376d4afd7" x="241.492986" y="296.910625" style="stroke: #000000; stroke-width: 0.8"/>
      </g>
     </g>
     <g id="text_3">
      <!-- 0.50 -->
      <g transform="translate(231.492986 311.904375)scale(0.1 -0.1)">
       <use xlink:href="#MicrosoftYaHei-30"/>
       <use xlink:href="#MicrosoftYaHei-2e" x="58.642578"/>
       <use xlink:href="#MicrosoftYaHei-35" x="82.714844"/>
       <use xlink:href="#MicrosoftYaHei-30" x="141.357422"/>
      </g>
     </g>
    </g>
    <g id="xtick_4">
     <g id="line2d_7">
      <path d="M 314.781079 296.910625 
L 314.781079 25.190625 
" clip-path="url(#p81f66c5823)" style="fill: none; stroke: #e5e7eb; stroke-width: 0.8; stroke-linecap: square"/>
     </g>
     <g id="line2d_8">
      <g>
       <use xlink:href="#mc376d4afd7" x="314.781079" y="296.910625" style="stroke: #000000; stroke-width: 0.8"/>
      </g>
     </g>
     <g id="text_4">
      <!-- 0.75 -->
      <g transform="translate(304.781079 311.904375)scale(0.1 -0.1)">
       <defs>
        <path id="MicrosoftYaHei-37" d="M 3422 4463 
Q 2659 3131 2223 1998 
Q 1788 866 1684 0 
L 1047 0 
Q 1163 853 1594 1947 
Q 2025 3041 2747 4300 
L 347 4300 
L 347 4841 
L 3422 4841 
L 3422 4463 
z
" transform="scale(0.015625)"/>
       </defs>
       <use xlink:href="#MicrosoftYaHei-30"/>
       <use xlink:href="#MicrosoftYaHei-2e" x="58.642578"/>
       <use xlink:href="#MicrosoftYaHei-37" x="82.714844"/>
       <use xlink:href="#MicrosoftYaHei-35" x="141.357422"/>
      </g>
     </g>
    </g>
    <g id="xtick_5">
     <g id="line2d_9">
      <path d="M 388.069172 296.910625 
L 388.069172 25.190625 
" clip-path="url(#p81f66c5823)" style="fill: none; stroke: #e5e7eb; stroke-width: 0.8; stroke-linecap: square"/>
     </g>
     <g id="line2d_10">
      <g>
       <use xlink:href="#mc376d4afd7" x="388.069172" y="296.910625" style="stroke: #000000; stroke-width: 0.8"/>
      </g>
     </g>
     <g id="text_5">
      <!-- 1.00 -->
      <g transform="translate(378.069172 311.904375)scale(0.1 -0.1)">
       <defs>
        <path id="MicrosoftYaHei-31" d="M 1781 0 
L 1781 4141 
Q 1638 3997 1295 3819 
Q 953 3641 663 3569 
L 663 4169 
Q 1047 4275 1484 4508 
Q 1922 4741 2156 4947 
L 2388 4947 
L 2388 0 
L 1781 0 
z
" transform="scale(0.015625)"/>
       </defs>
       <use xlink:href="#MicrosoftYaHei-31"/>
       <use xlink:href="#MicrosoftYaHei-2e" x="58.642578"/>
       <use xlink:href="#MicrosoftYaHei-30" x="82.714844"/>
       <use xlink:href="#MicrosoftYaHei-30" x="141.357422"/>
      </g>
     </g>
    </g>
    <g id="xtick_6">
     <g id="line2d_11">
      <path d="M 461.357265 296.910625 
L 461.357265 25.190625 
" clip-path="url(#p81f66c5823)" style="fill: none; stroke: #e5e7eb; stroke-width: 0.8; stroke-linecap: square"/>
     </g>
     <g id="line2d_12">
      <g>
       <use xlink:href="#mc376d4afd7" x="461.357265" y="296.910625" style="stroke: #000000; stroke-width: 0.8"/>
      </g>
     </g>
     <g id="text_6">
      <!-- 1.25 -->
      <g transform="translate(451.357265 311.904375)scale(0.1 -0.1)">
       <use xlink:href="#MicrosoftYaHei-31"/>
       <use xlink:href="#MicrosoftYaHei-2e" x="58.642578"/>
       <use xlink:href="#MicrosoftYaHei-32" x="82.714844"/>
       <use xlink:href="#MicrosoftYaHei-35" x="141.357422"/>
      </g>
     </g>
    </g>
    <g id="xtick_7">
     <g id="line2d_13">
      <path d="M 534.645358 296.910625 
L 534.645358 25.190625 
" clip-path="url(#p81f66c5823)" style="fill: none; stroke: #e5e7eb; stroke-width: 0.8; stroke-linecap: square"/>
     </g>
     <g id="line2d_14">
      <g>
       <use xlink:href="#mc376d4afd7" x="534.645358" y="296.910625" style="stroke: #000000; stroke-width: 0.8"/>
      </g>
     </g>
     <g id="text_7">
      <!-- 1.50 -->
      <g transform="translate(524.645358 311.904375)scale(0.1 -0.1)">
       <use xlink:href="#MicrosoftYaHei-31"/>
       <use xlink:href="#MicrosoftYaHei-2e" x="58.642578"/>
       <use xlink:href="#MicrosoftYaHei-35" x="82.714844"/>
       <use xlink:href="#MicrosoftYaHei-30" x="141.357422"/>
      </g>
     </g>
    </g>
    <g id="text_8">
     <!-- Treatment effect bounds -->
     <g transform="translate(273.056406 326.384062)scale(0.1 -0.1)">
      <defs>
       <path id="MicrosoftYaHei-54" d="M 3550 4284 
L 2153 4284 
L 2153 0 
L 1525 0 
L 1525 4284 
L 134 4284 
L 134 4841 
L 3550 4841 
L 3550 4284 
z
" transform="scale(0.015625)"/>
       <path id="MicrosoftYaHei-72" d="M 2400 2850 
Q 2247 2959 1978 2959 
Q 1622 2959 1390 2626 
Q 1159 2294 1159 1750 
L 1159 0 
L 547 0 
L 547 3456 
L 1159 3456 
L 1159 2753 
L 1172 2753 
Q 1434 3516 2078 3516 
Q 2288 3516 2400 3469 
L 2400 2850 
z
" transform="scale(0.015625)"/>
       <path id="MicrosoftYaHei-65" d="M 3363 1572 
L 944 1572 
Q 959 1019 1246 717 
Q 1534 416 2050 416 
Q 2631 416 3116 788 
L 3116 241 
Q 2659 -81 1906 -81 
Q 1156 -81 736 394 
Q 316 869 316 1713 
Q 316 2506 777 3022 
Q 1238 3538 1922 3538 
Q 2600 3538 2981 3102 
Q 3363 2666 3363 1881 
L 3363 1572 
z
M 2750 2063 
Q 2747 2531 2528 2787 
Q 2309 3044 1913 3044 
Q 1547 3044 1280 2772 
Q 1013 2500 944 2063 
L 2750 2063 
z
" transform="scale(0.015625)"/>
       <path id="MicrosoftYaHei-61" d="M 628 3216 
Q 1144 3538 1819 3538 
Q 3069 3538 3069 2225 
L 3069 0 
L 2463 0 
L 2463 534 
L 2447 534 
Q 2088 -81 1388 -81 
Q 884 -81 587 191 
Q 291 463 291 925 
Q 291 1894 1438 2053 
L 2463 2197 
Q 2463 3044 1763 3044 
Q 1141 3044 628 2625 
L 628 3216 
z
M 1653 1625 
Q 1228 1569 1067 1412 
Q 906 1256 906 975 
Q 906 728 1081 572 
Q 1256 416 1544 416 
Q 1944 416 2203 697 
Q 2463 978 2463 1403 
L 2463 1734 
L 1653 1625 
z
" transform="scale(0.015625)"/>
       <path id="MicrosoftYaHei-74" d="M 2206 34 
Q 2006 -75 1666 -75 
Q 738 -75 738 953 
L 738 2950 
L 144 2950 
L 144 3456 
L 738 3456 
L 738 4288 
L 1347 4481 
L 1347 3456 
L 2206 3456 
L 2206 2950 
L 1347 2950 
L 1347 1063 
Q 1347 722 1462 575 
Q 1578 428 1847 428 
Q 2053 428 2206 544 
L 2206 34 
z
" transform="scale(0.015625)"/>
       <path id="MicrosoftYaHei-6d" d="M 5522 0 
L 4909 0 
L 4909 1984 
Q 4909 2547 4734 2789 
Q 4559 3031 4159 3031 
Q 3822 3031 3581 2715 
Q 3341 2400 3341 1969 
L 3341 0 
L 2728 0 
L 2728 2047 
Q 2728 3031 1969 3031 
Q 1619 3031 1389 2731 
Q 1159 2431 1159 1966 
L 1159 0 
L 547 0 
L 547 3456 
L 1159 3456 
L 1159 2909 
L 1172 2909 
Q 1541 3538 2250 3538 
Q 2597 3538 2862 3347 
Q 3128 3156 3231 2831 
Q 3616 3538 4381 3538 
Q 5522 3538 5522 2131 
L 5522 0 
z
" transform="scale(0.015625)"/>
       <path id="MicrosoftYaHei-6e" d="M 3469 0 
L 2859 0 
L 2859 1966 
Q 2859 3031 2081 3031 
Q 1678 3031 1418 2731 
Q 1159 2431 1159 1972 
L 1159 0 
L 547 0 
L 547 3456 
L 1159 3456 
L 1159 2884 
L 1172 2884 
Q 1563 3538 2306 3538 
Q 2875 3538 3172 3173 
Q 3469 2809 3469 2113 
L 3469 0 
z
" transform="scale(0.015625)"/>
       <path id="MicrosoftYaHei-20" transform="scale(0.015625)"/>
       <path id="MicrosoftYaHei-66" d="M 2319 4594 
Q 2147 4684 1947 4684 
Q 1372 4684 1372 3972 
L 1372 3456 
L 2181 3456 
L 2181 2950 
L 1372 2950 
L 1372 0 
L 766 0 
L 766 2950 
L 175 2950 
L 175 3456 
L 766 3456 
L 766 4000 
Q 766 4556 1086 4873 
Q 1406 5191 1900 5191 
Q 2163 5191 2319 5131 
L 2319 4594 
z
" transform="scale(0.015625)"/>
       <path id="MicrosoftYaHei-63" d="M 2934 156 
Q 2538 -81 1978 -81 
Q 1228 -81 772 400 
Q 316 881 316 1647 
Q 316 2497 808 3017 
Q 1300 3538 2125 3538 
Q 2600 3538 2938 3369 
L 2938 2763 
Q 2572 3031 2125 3031 
Q 1600 3031 1270 2667 
Q 941 2303 941 1697 
Q 941 1100 1252 762 
Q 1563 425 2091 425 
Q 2538 425 2934 719 
L 2934 156 
z
" transform="scale(0.015625)"/>
       <path id="MicrosoftYaHei-62" d="M 1159 488 
L 1159 0 
L 547 0 
L 547 5116 
L 1159 5116 
L 1159 2859 
L 1172 2859 
Q 1578 3538 2359 3538 
Q 3009 3538 3392 3080 
Q 3775 2622 3775 1828 
Q 3775 953 3345 436 
Q 2916 -81 2200 -81 
Q 1525 -81 1172 488 
L 1159 488 
z
M 1156 1422 
Q 1156 1003 1428 714 
Q 1700 425 2109 425 
Q 2597 425 2872 800 
Q 3147 1175 3147 1838 
Q 3147 2384 2890 2707 
Q 2634 3031 2191 3031 
Q 1741 3031 1448 2709 
Q 1156 2388 1156 1891 
L 1156 1422 
z
" transform="scale(0.015625)"/>
       <path id="MicrosoftYaHei-6f" d="M 316 1691 
Q 316 2547 794 3042 
Q 1272 3538 2091 3538 
Q 2869 3538 3311 3061 
Q 3753 2584 3753 1744 
Q 3753 925 3281 422 
Q 2809 -81 2016 -81 
Q 1241 -81 778 406 
Q 316 894 316 1691 
z
M 941 1709 
Q 941 1113 1242 769 
Q 1544 425 2053 425 
Q 2578 425 2853 761 
Q 3128 1097 3128 1725 
Q 3128 2356 2853 2693 
Q 2578 3031 2053 3031 
Q 1538 3031 1239 2678 
Q 941 2325 941 1709 
z
" transform="scale(0.015625)"/>
       <path id="MicrosoftYaHei-75" d="M 3400 0 
L 2784 0 
L 2784 544 
L 2772 544 
Q 2425 -81 1706 -81 
Q 478 -81 478 1388 
L 478 3456 
L 1084 3456 
L 1084 1478 
Q 1084 425 1891 425 
Q 2291 425 2537 720 
Q 2784 1016 2784 1466 
L 2784 3456 
L 3400 3456 
L 3400 0 
z
" transform="scale(0.015625)"/>
       <path id="MicrosoftYaHei-64" d="M 3547 0 
L 2934 0 
L 2934 575 
L 2922 575 
Q 2544 -81 1747 -81 
Q 1091 -81 703 386 
Q 316 853 316 1647 
Q 316 2503 753 3020 
Q 1191 3538 1897 3538 
Q 2603 3538 2922 2988 
L 2934 2988 
L 2934 5116 
L 3547 5116 
L 3547 0 
z
M 2938 2056 
Q 2938 2472 2664 2751 
Q 2391 3031 1991 3031 
Q 1503 3031 1222 2667 
Q 941 2303 941 1675 
Q 941 1097 1211 761 
Q 1481 425 1931 425 
Q 2375 425 2656 754 
Q 2938 1084 2938 1575 
L 2938 2056 
z
" transform="scale(0.015625)"/>
       <path id="MicrosoftYaHei-73" d="M 353 747 
Q 816 413 1350 413 
Q 2066 413 2066 881 
Q 2066 1081 1909 1211 
Q 1753 1341 1275 1519 
Q 700 1750 528 1976 
Q 356 2203 356 2525 
Q 356 2984 745 3261 
Q 1134 3538 1703 3538 
Q 2144 3538 2522 3384 
L 2522 2794 
Q 2134 3044 1644 3044 
Q 1350 3044 1165 2916 
Q 981 2788 981 2578 
Q 981 2372 1114 2256 
Q 1247 2141 1703 1959 
Q 2281 1744 2484 1512 
Q 2688 1281 2688 941 
Q 2688 466 2298 192 
Q 1909 -81 1291 -81 
Q 753 -81 353 122 
L 353 747 
z
" transform="scale(0.015625)"/>
      </defs>
      <use xlink:href="#MicrosoftYaHei-54"/>
      <use xlink:href="#MicrosoftYaHei-72" x="47.949219"/>
      <use xlink:href="#MicrosoftYaHei-65" x="84.757812"/>
      <use xlink:href="#MicrosoftYaHei-61" x="141.496094"/>
      <use xlink:href="#MicrosoftYaHei-74" x="196.769531"/>
      <use xlink:href="#MicrosoftYaHei-6d" x="234.025391"/>
      <use xlink:href="#MicrosoftYaHei-65" x="327.726562"/>
      <use xlink:href="#MicrosoftYaHei-6e" x="384.464844"/>
      <use xlink:href="#MicrosoftYaHei-74" x="446.085938"/>
      <use xlink:href="#MicrosoftYaHei-20" x="483.341797"/>
      <use xlink:href="#MicrosoftYaHei-65" x="512.931641"/>
      <use xlink:href="#MicrosoftYaHei-66" x="569.669922"/>
      <use xlink:href="#MicrosoftYaHei-66" x="604.337891"/>
      <use xlink:href="#MicrosoftYaHei-65" x="639.005859"/>
      <use xlink:href="#MicrosoftYaHei-63" x="695.744141"/>
      <use xlink:href="#MicrosoftYaHei-74" x="745.890625"/>
      <use xlink:href="#MicrosoftYaHei-20" x="783.146484"/>
      <use xlink:href="#MicrosoftYaHei-62" x="812.736328"/>
      <use xlink:href="#MicrosoftYaHei-6f" x="876.603516"/>
      <use xlink:href="#MicrosoftYaHei-75" x="940.177734"/>
      <use xlink:href="#MicrosoftYaHei-6e" x="1001.798828"/>
      <use xlink:href="#MicrosoftYaHei-64" x="1063.419922"/>
      <use xlink:href="#MicrosoftYaHei-73" x="1127.384766"/>
     </g>
    </g>
   </g>
   <g id="matplotlib.axis_2">
    <g id="ytick_1">
     <g id="line2d_15">
      <defs>
       <path id="ma51a5da37e" d="M 0 0 
L -3.5 0 
" style="stroke: #000000; stroke-width: 0.8"/>
      </defs>
      <g>
       <use xlink:href="#ma51a5da37e" x="65.601562" y="284.559716" style="stroke: #000000; stroke-width: 0.8"/>
      </g>
     </g>
     <g id="text_9">
      <!-- delta=0.05 -->
      <g transform="translate(7.2 288.556591)scale(0.1 -0.1)">
       <defs>
        <path id="MicrosoftYaHei-6c" d="M 544 0 
L 544 5116 
L 1156 5116 
L 1156 0 
L 544 0 
z
" transform="scale(0.015625)"/>
        <path id="MicrosoftYaHei-3d" d="M 3972 2497 
L 788 2497 
L 788 2969 
L 3972 2969 
L 3972 2497 
z
M 3972 1053 
L 788 1053 
L 788 1525 
L 3972 1525 
L 3972 1053 
z
" transform="scale(0.015625)"/>
       </defs>
       <use xlink:href="#MicrosoftYaHei-64"/>
       <use xlink:href="#MicrosoftYaHei-65" x="63.964844"/>
       <use xlink:href="#MicrosoftYaHei-6c" x="120.703125"/>
       <use xlink:href="#MicrosoftYaHei-74" x="147.314453"/>
       <use xlink:href="#MicrosoftYaHei-61" x="184.570312"/>
       <use xlink:href="#MicrosoftYaHei-3d" x="239.84375"/>
       <use xlink:href="#MicrosoftYaHei-30" x="314.013672"/>
       <use xlink:href="#MicrosoftYaHei-2e" x="372.65625"/>
       <use xlink:href="#MicrosoftYaHei-30" x="396.728516"/>
       <use xlink:href="#MicrosoftYaHei-35" x="455.371094"/>
      </g>
     </g>
    </g>
    <g id="ytick_2">
     <g id="line2d_16">
      <g>
       <use xlink:href="#ma51a5da37e" x="65.601562" y="235.15608" style="stroke: #000000; stroke-width: 0.8"/>
      </g>
     </g>
     <g id="text_10">
      <!-- delta=0.10 -->
      <g transform="translate(7.2 239.152955)scale(0.1 -0.1)">
       <use xlink:href="#MicrosoftYaHei-64"/>
       <use xlink:href="#MicrosoftYaHei-65" x="63.964844"/>
       <use xlink:href="#MicrosoftYaHei-6c" x="120.703125"/>
       <use xlink:href="#MicrosoftYaHei-74" x="147.314453"/>
       <use xlink:href="#MicrosoftYaHei-61" x="184.570312"/>
       <use xlink:href="#MicrosoftYaHei-3d" x="239.84375"/>
       <use xlink:href="#MicrosoftYaHei-30" x="314.013672"/>
       <use xlink:href="#MicrosoftYaHei-2e" x="372.65625"/>
       <use xlink:href="#MicrosoftYaHei-31" x="396.728516"/>
       <use xlink:href="#MicrosoftYaHei-30" x="455.371094"/>
      </g>
     </g>
    </g>
    <g id="ytick_3">
     <g id="line2d_17">
      <g>
       <use xlink:href="#ma51a5da37e" x="65.601562" y="185.752443" style="stroke: #000000; stroke-width: 0.8"/>
      </g>
     </g>
     <g id="text_11">
      <!-- delta=0.15 -->
      <g transform="translate(7.2 189.749318)scale(0.1 -0.1)">
       <use xlink:href="#MicrosoftYaHei-64"/>
       <use xlink:href="#MicrosoftYaHei-65" x="63.964844"/>
       <use xlink:href="#MicrosoftYaHei-6c" x="120.703125"/>
       <use xlink:href="#MicrosoftYaHei-74" x="147.314453"/>
       <use xlink:href="#MicrosoftYaHei-61" x="184.570312"/>
       <use xlink:href="#MicrosoftYaHei-3d" x="239.84375"/>
       <use xlink:href="#MicrosoftYaHei-30" x="314.013672"/>
       <use xlink:href="#MicrosoftYaHei-2e" x="372.65625"/>
       <use xlink:href="#MicrosoftYaHei-31" x="396.728516"/>
       <use xlink:href="#MicrosoftYaHei-35" x="455.371094"/>
      </g>
     </g>
    </g>
    <g id="ytick_4">
     <g id="line2d_18">
      <g>
       <use xlink:href="#ma51a5da37e" x="65.601562" y="136.348807" style="stroke: #000000; stroke-width: 0.8"/>
      </g>
     </g>
     <g id="text_12">
      <!-- delta=0.20 -->
      <g transform="translate(7.2 140.345682)scale(0.1 -0.1)">
       <use xlink:href="#MicrosoftYaHei-64"/>
       <use xlink:href="#MicrosoftYaHei-65" x="63.964844"/>
       <use xlink:href="#MicrosoftYaHei-6c" x="120.703125"/>
       <use xlink:href="#MicrosoftYaHei-74" x="147.314453"/>
       <use xlink:href="#MicrosoftYaHei-61" x="184.570312"/>
       <use xlink:href="#MicrosoftYaHei-3d" x="239.84375"/>
       <use xlink:href="#MicrosoftYaHei-30" x="314.013672"/>
       <use xlink:href="#MicrosoftYaHei-2e" x="372.65625"/>
       <use xlink:href="#MicrosoftYaHei-32" x="396.728516"/>
       <use xlink:href="#MicrosoftYaHei-30" x="455.371094"/>
      </g>
     </g>
    </g>
    <g id="ytick_5">
     <g id="line2d_19">
      <g>
       <use xlink:href="#ma51a5da37e" x="65.601562" y="86.94517" style="stroke: #000000; stroke-width: 0.8"/>
      </g>
     </g>
     <g id="text_13">
      <!-- delta=0.25 -->
      <g transform="translate(7.2 90.942045)scale(0.1 -0.1)">
       <use xlink:href="#MicrosoftYaHei-64"/>
       <use xlink:href="#MicrosoftYaHei-65" x="63.964844"/>
       <use xlink:href="#MicrosoftYaHei-6c" x="120.703125"/>
       <use xlink:href="#MicrosoftYaHei-74" x="147.314453"/>
       <use xlink:href="#MicrosoftYaHei-61" x="184.570312"/>
       <use xlink:href="#MicrosoftYaHei-3d" x="239.84375"/>
       <use xlink:href="#MicrosoftYaHei-30" x="314.013672"/>
       <use xlink:href="#MicrosoftYaHei-2e" x="372.65625"/>
       <use xlink:href="#MicrosoftYaHei-32" x="396.728516"/>
       <use xlink:href="#MicrosoftYaHei-35" x="455.371094"/>
      </g>
     </g>
    </g>
    <g id="ytick_6">
     <g id="line2d_20">
      <g>
       <use xlink:href="#ma51a5da37e" x="65.601562" y="37.541534" style="stroke: #000000; stroke-width: 0.8"/>
      </g>
     </g>
     <g id="text_14">
      <!-- delta=0.30 -->
      <g transform="translate(7.2 41.538409)scale(0.1 -0.1)">
       <defs>
        <path id="MicrosoftYaHei-33" d="M 447 809 
Q 944 425 1569 425 
Q 2069 425 2361 670 
Q 2653 916 2653 1328 
Q 2653 2247 1338 2247 
L 934 2247 
L 934 2753 
L 1319 2753 
Q 2484 2753 2484 3616 
Q 2484 4413 1594 4413 
Q 1084 4413 634 4069 
L 634 4647 
Q 1109 4922 1744 4922 
Q 2363 4922 2738 4598 
Q 3113 4275 3113 3759 
Q 3113 2809 2144 2538 
L 2144 2525 
Q 2669 2469 2973 2155 
Q 3278 1841 3278 1372 
Q 3278 719 2808 319 
Q 2338 -81 1556 -81 
Q 869 -81 447 175 
L 447 809 
z
" transform="scale(0.015625)"/>
       </defs>
       <use xlink:href="#MicrosoftYaHei-64"/>
       <use xlink:href="#MicrosoftYaHei-65" x="63.964844"/>
       <use xlink:href="#MicrosoftYaHei-6c" x="120.703125"/>
       <use xlink:href="#MicrosoftYaHei-74" x="147.314453"/>
       <use xlink:href="#MicrosoftYaHei-61" x="184.570312"/>
       <use xlink:href="#MicrosoftYaHei-3d" x="239.84375"/>
       <use xlink:href="#MicrosoftYaHei-30" x="314.013672"/>
       <use xlink:href="#MicrosoftYaHei-2e" x="372.65625"/>
       <use xlink:href="#MicrosoftYaHei-33" x="396.728516"/>
       <use xlink:href="#MicrosoftYaHei-30" x="455.371094"/>
      </g>
     </g>
    </g>
   </g>
   <g id="LineCollection_1">
    <path d="M 243.379552 284.559716 
L 260.440485 284.559716 
" clip-path="url(#p81f66c5823)" style="fill: none; stroke: #2f6f73; stroke-opacity: 0.78; stroke-width: 6"/>
   </g>
   <g id="LineCollection_2">
    <path d="M 163.178698 284.559716 
L 345.823109 284.559716 
" clip-path="url(#p81f66c5823)" style="fill: none; stroke: #8bb8ba; stroke-opacity: 0.9; stroke-width: 2"/>
   </g>
   <g id="LineCollection_3">
    <path d="M 235.690984 235.15608 
L 272.221809 235.15608 
" clip-path="url(#p81f66c5823)" style="fill: none; stroke: #2f6f73; stroke-opacity: 0.78; stroke-width: 6"/>
   </g>
   <g id="LineCollection_4">
    <path d="M 154.109573 235.15608 
L 361.506768 235.15608 
" clip-path="url(#p81f66c5823)" style="fill: none; stroke: #8bb8ba; stroke-opacity: 0.9; stroke-width: 2"/>
   </g>
   <g id="LineCollection_5">
    <path d="M 229.078587 185.752443 
L 278.245327 185.752443 
" clip-path="url(#p81f66c5823)" style="fill: none; stroke: #2f6f73; stroke-opacity: 0.78; stroke-width: 6"/>
   </g>
   <g id="LineCollection_6">
    <path d="M 142.421365 185.752443 
L 376.864773 185.752443 
" clip-path="url(#p81f66c5823)" style="fill: none; stroke: #8bb8ba; stroke-opacity: 0.9; stroke-width: 2"/>
   </g>
   <g id="LineCollection_7">
    <path d="M 221.638631 136.348807 
L 291.352256 136.348807 
" clip-path="url(#p81f66c5823)" style="fill: none; stroke: #2f6f73; stroke-opacity: 0.78; stroke-width: 6"/>
   </g>
   <g id="LineCollection_8">
    <path d="M 136.013619 136.348807 
L 401.046243 136.348807 
" clip-path="url(#p81f66c5823)" style="fill: none; stroke: #8bb8ba; stroke-opacity: 0.9; stroke-width: 2"/>
   </g>
   <g id="LineCollection_9">
    <path d="M 216.505947 86.94517 
L 305.135414 86.94517 
" clip-path="url(#p81f66c5823)" style="fill: none; stroke: #2f6f73; stroke-opacity: 0.78; stroke-width: 6"/>
   </g>
   <g id="LineCollection_10">
    <path d="M 127.687079 86.94517 
L 429.820659 86.94517 
" clip-path="url(#p81f66c5823)" style="fill: none; stroke: #8bb8ba; stroke-opacity: 0.9; stroke-width: 2"/>
   </g>
   <g id="LineCollection_11">
    <path d="M 218.872286 37.541534 
L 324.52278 37.541534 
" clip-path="url(#p81f66c5823)" style="fill: none; stroke: #2f6f73; stroke-opacity: 0.78; stroke-width: 6"/>
   </g>
   <g id="LineCollection_12">
    <path d="M 129.017975 37.541534 
L 465.962995 37.541534 
" clip-path="url(#p81f66c5823)" style="fill: none; stroke: #8bb8ba; stroke-opacity: 0.9; stroke-width: 2"/>
   </g>
   <g id="line2d_21">
    <path d="M 94.9168 296.910625 
L 94.9168 25.190625 
" clip-path="url(#p81f66c5823)" style="fill: none; stroke-dasharray: 4.07,1.76; stroke-dashoffset: 0; stroke: #1f2937; stroke-width: 1.1"/>
   </g>
   <g id="patch_3">
    <path d="M 65.601562 296.910625 
L 597.881562 296.910625 
" style="fill: none; stroke: #cbd5e1; stroke-width: 0.8; stroke-linejoin: miter; stroke-linecap: square"/>
   </g>
   <g id="text_15">
    <!-- [0.506, 0.565] -->
    <g style="fill: #334e68" transform="translate(354.61768 287.313622)scale(0.1 -0.1)">
     <defs>
      <path id="MicrosoftYaHei-5b" d="M 1959 -1100 
L 681 -1100 
L 681 4841 
L 1959 4841 
L 1959 4406 
L 1219 4406 
L 1219 -669 
L 1959 -669 
L 1959 -1100 
z
" transform="scale(0.015625)"/>
      <path id="MicrosoftYaHei-36" d="M 3181 4219 
Q 2803 4413 2391 4413 
Q 1763 4413 1381 3866 
Q 1000 3319 994 2372 
L 1009 2372 
Q 1353 3038 2106 3038 
Q 2734 3038 3109 2628 
Q 3484 2219 3484 1541 
Q 3484 831 3051 375 
Q 2619 -81 1947 -81 
Q 1209 -81 789 495 
Q 369 1072 369 2131 
Q 369 3413 920 4167 
Q 1472 4922 2372 4922 
Q 2888 4922 3181 4781 
L 3181 4219 
z
M 1031 1584 
Q 1031 1106 1286 765 
Q 1541 425 1963 425 
Q 2363 425 2613 719 
Q 2863 1013 2863 1475 
Q 2863 1975 2627 2253 
Q 2391 2531 1956 2531 
Q 1544 2531 1287 2250 
Q 1031 1969 1031 1584 
z
" transform="scale(0.015625)"/>
      <path id="MicrosoftYaHei-2c" d="M 1109 778 
L 575 -888 
L 131 -888 
L 519 778 
L 1109 778 
z
" transform="scale(0.015625)"/>
      <path id="MicrosoftYaHei-5d" d="M 1466 -1100 
L 184 -1100 
L 184 -669 
L 928 -669 
L 928 4406 
L 184 4406 
L 184 4841 
L 1466 4841 
L 1466 -1100 
z
" transform="scale(0.015625)"/>
     </defs>
     <use xlink:href="#MicrosoftYaHei-5b"/>
     <use xlink:href="#MicrosoftYaHei-30" x="33.398438"/>
     <use xlink:href="#MicrosoftYaHei-2e" x="92.041016"/>
     <use xlink:href="#MicrosoftYaHei-35" x="116.113281"/>
     <use xlink:href="#MicrosoftYaHei-30" x="174.755859"/>
     <use xlink:href="#MicrosoftYaHei-36" x="233.398438"/>
     <use xlink:href="#MicrosoftYaHei-2c" x="292.041016"/>
     <use xlink:href="#MicrosoftYaHei-20" x="316.113281"/>
     <use xlink:href="#MicrosoftYaHei-30" x="345.703125"/>
     <use xlink:href="#MicrosoftYaHei-2e" x="404.345703"/>
     <use xlink:href="#MicrosoftYaHei-35" x="428.417969"/>
     <use xlink:href="#MicrosoftYaHei-36" x="487.060547"/>
     <use xlink:href="#MicrosoftYaHei-35" x="545.703125"/>
     <use xlink:href="#MicrosoftYaHei-5d" x="604.345703"/>
    </g>
   </g>
   <g id="text_16">
    <!-- [0.480, 0.605] -->
    <g style="fill: #334e68" transform="translate(370.30134 237.909986)scale(0.1 -0.1)">
     <defs>
      <path id="MicrosoftYaHei-34" d="M 2906 4841 
L 2906 1644 
L 3631 1644 
L 3631 1138 
L 2906 1138 
L 2906 0 
L 2313 0 
L 2313 1138 
L 53 1138 
L 53 1616 
Q 656 2294 1265 3178 
Q 1875 4063 2272 4841 
L 2906 4841 
z
M 741 1644 
L 2313 1644 
L 2313 3950 
Q 1988 3366 1616 2817 
Q 1244 2269 741 1644 
z
" transform="scale(0.015625)"/>
      <path id="MicrosoftYaHei-38" d="M 306 1350 
Q 306 1769 556 2122 
Q 806 2475 1200 2625 
Q 884 2803 700 3081 
Q 516 3359 516 3684 
Q 516 4028 692 4312 
Q 869 4597 1183 4759 
Q 1497 4922 1875 4922 
Q 2256 4922 2572 4761 
Q 2888 4600 3063 4315 
Q 3238 4031 3238 3684 
Q 3238 3366 3058 3086 
Q 2878 2806 2559 2625 
Q 2953 2472 3200 2119 
Q 3447 1766 3447 1350 
Q 3447 938 3250 611 
Q 3053 284 2690 103 
Q 2328 -78 1875 -78 
Q 1425 -78 1065 103 
Q 706 284 506 612 
Q 306 941 306 1350 
z
M 906 1378 
Q 906 947 1172 687 
Q 1438 428 1878 428 
Q 2309 428 2582 692 
Q 2856 956 2856 1378 
Q 2856 1778 2579 2051 
Q 2303 2325 1878 2325 
Q 1456 2325 1181 2058 
Q 906 1791 906 1378 
z
M 1081 3634 
Q 1081 3309 1312 3076 
Q 1544 2844 1878 2844 
Q 2206 2844 2445 3078 
Q 2684 3313 2684 3634 
Q 2684 3963 2454 4191 
Q 2225 4419 1878 4419 
Q 1534 4419 1307 4195 
Q 1081 3972 1081 3634 
z
" transform="scale(0.015625)"/>
     </defs>
     <use xlink:href="#MicrosoftYaHei-5b"/>
     <use xlink:href="#MicrosoftYaHei-30" x="33.398438"/>
     <use xlink:href="#MicrosoftYaHei-2e" x="92.041016"/>
     <use xlink:href="#MicrosoftYaHei-34" x="116.113281"/>
     <use xlink:href="#MicrosoftYaHei-38" x="174.755859"/>
     <use xlink:href="#MicrosoftYaHei-30" x="233.398438"/>
     <use xlink:href="#MicrosoftYaHei-2c" x="292.041016"/>
     <use xlink:href="#MicrosoftYaHei-20" x="316.113281"/>
     <use xlink:href="#MicrosoftYaHei-30" x="345.703125"/>
     <use xlink:href="#MicrosoftYaHei-2e" x="404.345703"/>
     <use xlink:href="#MicrosoftYaHei-36" x="428.417969"/>
     <use xlink:href="#MicrosoftYaHei-30" x="487.060547"/>
     <use xlink:href="#MicrosoftYaHei-35" x="545.703125"/>
     <use xlink:href="#MicrosoftYaHei-5d" x="604.345703"/>
    </g>
   </g>
   <g id="text_17">
    <!-- [0.458, 0.625] -->
    <g style="fill: #334e68" transform="translate(385.659344 188.506349)scale(0.1 -0.1)">
     <use xlink:href="#MicrosoftYaHei-5b"/>
     <use xlink:href="#MicrosoftYaHei-30" x="33.398438"/>
     <use xlink:href="#MicrosoftYaHei-2e" x="92.041016"/>
     <use xlink:href="#MicrosoftYaHei-34" x="116.113281"/>
     <use xlink:href="#MicrosoftYaHei-35" x="174.755859"/>
     <use xlink:href="#MicrosoftYaHei-38" x="233.398438"/>
     <use xlink:href="#MicrosoftYaHei-2c" x="292.041016"/>
     <use xlink:href="#MicrosoftYaHei-20" x="316.113281"/>
     <use xlink:href="#MicrosoftYaHei-30" x="345.703125"/>
     <use xlink:href="#MicrosoftYaHei-2e" x="404.345703"/>
     <use xlink:href="#MicrosoftYaHei-36" x="428.417969"/>
     <use xlink:href="#MicrosoftYaHei-32" x="487.060547"/>
     <use xlink:href="#MicrosoftYaHei-35" x="545.703125"/>
     <use xlink:href="#MicrosoftYaHei-5d" x="604.345703"/>
    </g>
   </g>
   <g id="text_18">
    <!-- [0.432, 0.670] -->
    <g style="fill: #334e68" transform="translate(409.840814 139.102713)scale(0.1 -0.1)">
     <use xlink:href="#MicrosoftYaHei-5b"/>
     <use xlink:href="#MicrosoftYaHei-30" x="33.398438"/>
     <use xlink:href="#MicrosoftYaHei-2e" x="92.041016"/>
     <use xlink:href="#MicrosoftYaHei-34" x="116.113281"/>
     <use xlink:href="#MicrosoftYaHei-33" x="174.755859"/>
     <use xlink:href="#MicrosoftYaHei-32" x="233.398438"/>
     <use xlink:href="#MicrosoftYaHei-2c" x="292.041016"/>
     <use xlink:href="#MicrosoftYaHei-20" x="316.113281"/>
     <use xlink:href="#MicrosoftYaHei-30" x="345.703125"/>
     <use xlink:href="#MicrosoftYaHei-2e" x="404.345703"/>
     <use xlink:href="#MicrosoftYaHei-36" x="428.417969"/>
     <use xlink:href="#MicrosoftYaHei-37" x="487.060547"/>
     <use xlink:href="#MicrosoftYaHei-30" x="545.703125"/>
     <use xlink:href="#MicrosoftYaHei-5d" x="604.345703"/>
    </g>
   </g>
   <g id="text_19">
    <!-- [0.415, 0.717] -->
    <g style="fill: #334e68" transform="translate(438.615231 89.699077)scale(0.1 -0.1)">
     <use xlink:href="#MicrosoftYaHei-5b"/>
     <use xlink:href="#MicrosoftYaHei-30" x="33.398438"/>
     <use xlink:href="#MicrosoftYaHei-2e" x="92.041016"/>
     <use xlink:href="#MicrosoftYaHei-34" x="116.113281"/>
     <use xlink:href="#MicrosoftYaHei-31" x="174.755859"/>
     <use xlink:href="#MicrosoftYaHei-35" x="233.398438"/>
     <use xlink:href="#MicrosoftYaHei-2c" x="292.041016"/>
     <use xlink:href="#MicrosoftYaHei-20" x="316.113281"/>
     <use xlink:href="#MicrosoftYaHei-30" x="345.703125"/>
     <use xlink:href="#MicrosoftYaHei-2e" x="404.345703"/>
     <use xlink:href="#MicrosoftYaHei-37" x="428.417969"/>
     <use xlink:href="#MicrosoftYaHei-31" x="487.060547"/>
     <use xlink:href="#MicrosoftYaHei-37" x="545.703125"/>
     <use xlink:href="#MicrosoftYaHei-5d" x="604.345703"/>
    </g>
   </g>
   <g id="text_20">
    <!-- [0.423, 0.783] -->
    <g style="fill: #334e68" transform="translate(474.757566 40.29544)scale(0.1 -0.1)">
     <use xlink:href="#MicrosoftYaHei-5b"/>
     <use xlink:href="#MicrosoftYaHei-30" x="33.398438"/>
     <use xlink:href="#MicrosoftYaHei-2e" x="92.041016"/>
     <use xlink:href="#MicrosoftYaHei-34" x="116.113281"/>
     <use xlink:href="#MicrosoftYaHei-32" x="174.755859"/>
     <use xlink:href="#MicrosoftYaHei-33" x="233.398438"/>
     <use xlink:href="#MicrosoftYaHei-2c" x="292.041016"/>
     <use xlink:href="#MicrosoftYaHei-20" x="316.113281"/>
     <use xlink:href="#MicrosoftYaHei-30" x="345.703125"/>
     <use xlink:href="#MicrosoftYaHei-2e" x="404.345703"/>
     <use xlink:href="#MicrosoftYaHei-37" x="428.417969"/>
     <use xlink:href="#MicrosoftYaHei-38" x="487.060547"/>
     <use xlink:href="#MicrosoftYaHei-33" x="545.703125"/>
     <use xlink:href="#MicrosoftYaHei-5d" x="604.345703"/>
    </g>
   </g>
   <g id="text_21">
    <!-- Partial Identification: Treatment Effect Bounds -->
    <g transform="translate(65.601562 19.190625)scale(0.15 -0.15)">
     <defs>
      <path id="MicrosoftYaHei-Bold-50" d="M 1591 1688 
L 1591 0 
L 559 0 
L 559 4841 
L 2225 4841 
Q 4031 4841 4031 3309 
Q 4031 2566 3486 2117 
Q 2941 1669 2122 1688 
L 1591 1688 
z
M 1591 4041 
L 1591 2478 
L 2038 2478 
Q 2947 2478 2947 3269 
Q 2947 4041 2047 4041 
L 1591 4041 
z
" transform="scale(0.015625)"/>
      <path id="MicrosoftYaHei-Bold-61" d="M 544 3247 
Q 778 3378 1170 3459 
Q 1563 3541 1841 3541 
Q 3291 3541 3291 2088 
L 3291 0 
L 2331 0 
L 2331 503 
L 2319 503 
Q 1966 -84 1284 -84 
Q 794 -84 498 195 
Q 203 475 203 956 
Q 203 1950 1388 2113 
L 2338 2241 
Q 2338 2844 1709 2844 
Q 1091 2844 544 2469 
L 544 3247 
z
M 1684 1566 
Q 1138 1494 1138 1072 
Q 1138 878 1270 759 
Q 1403 641 1628 641 
Q 1938 641 2138 859 
Q 2338 1078 2338 1403 
L 2338 1650 
L 1684 1566 
z
" transform="scale(0.015625)"/>
      <path id="MicrosoftYaHei-Bold-72" d="M 2663 2541 
Q 2478 2647 2216 2647 
Q 1872 2647 1670 2384 
Q 1469 2122 1469 1663 
L 1469 0 
L 459 0 
L 459 3456 
L 1469 3456 
L 1469 2806 
L 1481 2806 
Q 1731 3516 2391 3516 
Q 2569 3516 2663 3475 
L 2663 2541 
z
" transform="scale(0.015625)"/>
      <path id="MicrosoftYaHei-Bold-74" d="M 2494 41 
Q 2266 -84 1803 -84 
Q 703 -84 703 1072 
L 703 2703 
L 134 2703 
L 134 3456 
L 703 3456 
L 703 4216 
L 1706 4503 
L 1706 3456 
L 2494 3456 
L 2494 2703 
L 1706 2703 
L 1706 1247 
Q 1706 694 2144 694 
Q 2313 694 2494 794 
L 2494 41 
z
" transform="scale(0.015625)"/>
      <path id="MicrosoftYaHei-Bold-69" d="M 369 4572 
Q 369 4803 533 4948 
Q 697 5094 953 5094 
Q 1216 5094 1378 4945 
Q 1541 4797 1541 4572 
Q 1541 4344 1375 4192 
Q 1209 4041 953 4041 
Q 700 4041 534 4194 
Q 369 4347 369 4572 
z
M 444 0 
L 444 3456 
L 1450 3456 
L 1450 0 
L 444 0 
z
" transform="scale(0.015625)"/>
      <path id="MicrosoftYaHei-Bold-6c" d="M 444 0 
L 444 5116 
L 1450 5116 
L 1450 0 
L 444 0 
z
" transform="scale(0.015625)"/>
      <path id="MicrosoftYaHei-Bold-20" transform="scale(0.015625)"/>
      <path id="MicrosoftYaHei-Bold-49" d="M 1588 4841 
L 1588 0 
L 556 0 
L 556 4841 
L 1588 4841 
z
" transform="scale(0.015625)"/>
      <path id="MicrosoftYaHei-Bold-64" d="M 3794 0 
L 2788 0 
L 2788 488 
L 2772 488 
Q 2406 -84 1691 -84 
Q 1031 -84 642 381 
Q 253 847 253 1650 
Q 253 2500 689 3020 
Q 1125 3541 1828 3541 
Q 2503 3541 2772 3053 
L 2788 3053 
L 2788 5116 
L 3794 5116 
L 3794 0 
z
M 2803 1956 
Q 2803 2306 2592 2536 
Q 2381 2766 2066 2766 
Q 1697 2766 1486 2473 
Q 1275 2181 1275 1681 
Q 1275 1206 1478 948 
Q 1681 691 2038 691 
Q 2372 691 2587 962 
Q 2803 1234 2803 1669 
L 2803 1956 
z
" transform="scale(0.015625)"/>
      <path id="MicrosoftYaHei-Bold-65" d="M 3528 1444 
L 1253 1444 
Q 1306 641 2222 641 
Q 2794 641 3231 922 
L 3231 181 
Q 2759 -84 1994 -84 
Q 1169 -84 711 381 
Q 253 847 253 1678 
Q 253 2506 740 3023 
Q 1228 3541 1966 3541 
Q 2700 3541 3114 3095 
Q 3528 2650 3528 1872 
L 3528 1444 
z
M 2588 2075 
Q 2588 2850 1959 2850 
Q 1700 2850 1500 2637 
Q 1300 2425 1250 2075 
L 2588 2075 
z
" transform="scale(0.015625)"/>
      <path id="MicrosoftYaHei-Bold-6e" d="M 3744 0 
L 2741 0 
L 2741 1928 
Q 2741 2766 2138 2766 
Q 1850 2766 1659 2542 
Q 1469 2319 1469 1972 
L 1469 0 
L 459 0 
L 459 3456 
L 1469 3456 
L 1469 2906 
L 1481 2906 
Q 1859 3541 2594 3541 
Q 3744 3541 3744 2116 
L 3744 0 
z
" transform="scale(0.015625)"/>
      <path id="MicrosoftYaHei-Bold-66" d="M 2653 4338 
Q 2447 4419 2263 4419 
Q 1744 4419 1744 3844 
L 1744 3456 
L 2531 3456 
L 2531 2703 
L 1744 2703 
L 1744 0 
L 734 0 
L 734 2703 
L 156 2703 
L 156 3456 
L 734 3456 
L 734 3900 
Q 734 4491 1118 4844 
Q 1503 5197 2128 5197 
Q 2447 5197 2653 5131 
L 2653 4338 
z
" transform="scale(0.015625)"/>
      <path id="MicrosoftYaHei-Bold-63" d="M 3050 128 
Q 2688 -84 2019 -84 
Q 1228 -84 740 397 
Q 253 878 253 1644 
Q 253 2525 778 3033 
Q 1303 3541 2178 3541 
Q 2769 3541 3053 3378 
L 3053 2513 
Q 2706 2766 2297 2766 
Q 1834 2766 1554 2484 
Q 1275 2203 1275 1713 
Q 1275 1238 1540 964 
Q 1806 691 2263 691 
Q 2666 691 3050 947 
L 3050 128 
z
" transform="scale(0.015625)"/>
      <path id="MicrosoftYaHei-Bold-6f" d="M 253 1713 
Q 253 2566 764 3053 
Q 1275 3541 2138 3541 
Q 2972 3541 3462 3061 
Q 3953 2581 3953 1772 
Q 3953 922 3450 419 
Q 2947 -84 2088 -84 
Q 1244 -84 748 398 
Q 253 881 253 1713 
z
M 1275 1725 
Q 1275 691 2119 691 
Q 2928 691 2928 1753 
Q 2928 2766 2113 2766 
Q 1716 2766 1495 2494 
Q 1275 2222 1275 1725 
z
" transform="scale(0.015625)"/>
      <path id="MicrosoftYaHei-Bold-3a" d="M 313 2969 
Q 313 3200 491 3350 
Q 669 3500 916 3500 
Q 1166 3500 1337 3350 
Q 1509 3200 1509 2969 
Q 1509 2728 1337 2579 
Q 1166 2431 903 2431 
Q 653 2431 483 2584 
Q 313 2738 313 2969 
z
M 313 453 
Q 313 688 491 838 
Q 669 988 916 988 
Q 1166 988 1337 834 
Q 1509 681 1509 453 
Q 1509 213 1337 64 
Q 1166 -84 903 -84 
Q 659 -84 486 69 
Q 313 222 313 453 
z
" transform="scale(0.015625)"/>
      <path id="MicrosoftYaHei-Bold-54" d="M 3900 3997 
L 2519 3997 
L 2519 0 
L 1484 0 
L 1484 3997 
L 106 3997 
L 106 4841 
L 3900 4841 
L 3900 3997 
z
" transform="scale(0.015625)"/>
      <path id="MicrosoftYaHei-Bold-6d" d="M 5881 0 
L 4875 0 
L 4875 1972 
Q 4875 2766 4297 2766 
Q 4028 2766 3850 2525 
Q 3672 2284 3672 1938 
L 3672 0 
L 2666 0 
L 2666 1997 
Q 2666 2766 2094 2766 
Q 1809 2766 1639 2536 
Q 1469 2306 1469 1928 
L 1469 0 
L 459 0 
L 459 3456 
L 1469 3456 
L 1469 2916 
L 1481 2916 
Q 1663 3213 1963 3377 
Q 2263 3541 2594 3541 
Q 3322 3541 3591 2888 
Q 3991 3541 4753 3541 
Q 5881 3541 5881 2147 
L 5881 0 
z
" transform="scale(0.015625)"/>
      <path id="MicrosoftYaHei-Bold-45" d="M 3425 0 
L 559 0 
L 559 4841 
L 3313 4841 
L 3313 3997 
L 1591 3997 
L 1591 2856 
L 3191 2856 
L 3191 2016 
L 1591 2016 
L 1591 844 
L 3425 844 
L 3425 0 
z
" transform="scale(0.015625)"/>
      <path id="MicrosoftYaHei-Bold-42" d="M 559 0 
L 559 4841 
L 2278 4841 
Q 3069 4841 3497 4541 
Q 3925 4241 3925 3709 
Q 3925 3316 3659 3019 
Q 3394 2722 2991 2609 
L 2991 2597 
Q 3497 2534 3808 2221 
Q 4119 1909 4119 1438 
Q 4119 778 3650 389 
Q 3181 0 2369 0 
L 559 0 
z
M 1591 4072 
L 1591 2875 
L 2081 2875 
Q 2434 2875 2637 3044 
Q 2841 3213 2841 3516 
Q 2841 4072 2028 4072 
L 1591 4072 
z
M 1591 2097 
L 1591 769 
L 2203 769 
Q 2594 769 2814 950 
Q 3034 1131 3034 1453 
Q 3034 1759 2815 1928 
Q 2597 2097 2194 2097 
L 1591 2097 
z
" transform="scale(0.015625)"/>
      <path id="MicrosoftYaHei-Bold-75" d="M 3691 0 
L 2688 0 
L 2688 528 
L 2672 528 
Q 2284 -84 1613 -84 
Q 406 -84 406 1372 
L 406 3456 
L 1416 3456 
L 1416 1466 
Q 1416 691 2022 691 
Q 2325 691 2506 903 
Q 2688 1116 2688 1478 
L 2688 3456 
L 3691 3456 
L 3691 0 
z
" transform="scale(0.015625)"/>
      <path id="MicrosoftYaHei-Bold-73" d="M 369 928 
Q 888 613 1384 613 
Q 2009 613 2009 947 
Q 2009 1184 1494 1344 
Q 850 1544 609 1789 
Q 369 2034 369 2453 
Q 369 2963 781 3252 
Q 1194 3541 1863 3541 
Q 2338 3541 2778 3400 
L 2778 2606 
Q 2375 2844 1891 2844 
Q 1650 2844 1503 2758 
Q 1356 2672 1356 2531 
Q 1356 2294 1794 2147 
Q 2263 1991 2498 1862 
Q 2734 1734 2857 1525 
Q 2981 1316 2981 1041 
Q 2981 506 2553 211 
Q 2125 -84 1409 -84 
Q 847 -84 369 94 
L 369 928 
z
" transform="scale(0.015625)"/>
     </defs>
     <use xlink:href="#MicrosoftYaHei-Bold-50"/>
     <use xlink:href="#MicrosoftYaHei-Bold-61" x="62.972656"/>
     <use xlink:href="#MicrosoftYaHei-Bold-72" x="120.736328"/>
     <use xlink:href="#MicrosoftYaHei-Bold-74" x="166.244141"/>
     <use xlink:href="#MicrosoftYaHei-Bold-69" x="207.650391"/>
     <use xlink:href="#MicrosoftYaHei-Bold-61" x="237.240234"/>
     <use xlink:href="#MicrosoftYaHei-Bold-6c" x="295.003906"/>
     <use xlink:href="#MicrosoftYaHei-Bold-20" x="324.59375"/>
     <use xlink:href="#MicrosoftYaHei-Bold-49" x="354.378906"/>
     <use xlink:href="#MicrosoftYaHei-Bold-64" x="387.923828"/>
     <use xlink:href="#MicrosoftYaHei-Bold-65" x="454.378906"/>
     <use xlink:href="#MicrosoftYaHei-Bold-6e" x="512.582031"/>
     <use xlink:href="#MicrosoftYaHei-Bold-74" x="577.376953"/>
     <use xlink:href="#MicrosoftYaHei-Bold-69" x="618.783203"/>
     <use xlink:href="#MicrosoftYaHei-Bold-66" x="648.373047"/>
     <use xlink:href="#MicrosoftYaHei-Bold-69" x="688.900391"/>
     <use xlink:href="#MicrosoftYaHei-Bold-63" x="718.490234"/>
     <use xlink:href="#MicrosoftYaHei-Bold-61" x="770.150391"/>
     <use xlink:href="#MicrosoftYaHei-Bold-74" x="827.914062"/>
     <use xlink:href="#MicrosoftYaHei-Bold-69" x="869.320312"/>
     <use xlink:href="#MicrosoftYaHei-Bold-6f" x="898.910156"/>
     <use xlink:href="#MicrosoftYaHei-Bold-6e" x="964.632812"/>
     <use xlink:href="#MicrosoftYaHei-Bold-3a" x="1029.427734"/>
     <use xlink:href="#MicrosoftYaHei-Bold-20" x="1057.992188"/>
     <use xlink:href="#MicrosoftYaHei-Bold-54" x="1087.777344"/>
     <use xlink:href="#MicrosoftYaHei-Bold-72" x="1142.076172"/>
     <use xlink:href="#MicrosoftYaHei-Bold-65" x="1183.958984"/>
     <use xlink:href="#MicrosoftYaHei-Bold-61" x="1242.162109"/>
     <use xlink:href="#MicrosoftYaHei-Bold-74" x="1299.925781"/>
     <use xlink:href="#MicrosoftYaHei-Bold-6d" x="1341.332031"/>
     <use xlink:href="#MicrosoftYaHei-Bold-65" x="1439.525391"/>
     <use xlink:href="#MicrosoftYaHei-Bold-6e" x="1497.728516"/>
     <use xlink:href="#MicrosoftYaHei-Bold-74" x="1562.523438"/>
     <use xlink:href="#MicrosoftYaHei-Bold-20" x="1603.929688"/>
     <use xlink:href="#MicrosoftYaHei-Bold-45" x="1633.714844"/>
     <use xlink:href="#MicrosoftYaHei-Bold-66" x="1690.892578"/>
     <use xlink:href="#MicrosoftYaHei-Bold-66" x="1731.419922"/>
     <use xlink:href="#MicrosoftYaHei-Bold-65" x="1771.947266"/>
     <use xlink:href="#MicrosoftYaHei-Bold-63" x="1830.150391"/>
     <use xlink:href="#MicrosoftYaHei-Bold-74" x="1881.810547"/>
     <use xlink:href="#MicrosoftYaHei-Bold-20" x="1923.216797"/>
     <use xlink:href="#MicrosoftYaHei-Bold-42" x="1953.001953"/>
     <use xlink:href="#MicrosoftYaHei-Bold-6f" x="2021.361328"/>
     <use xlink:href="#MicrosoftYaHei-Bold-75" x="2087.083984"/>
     <use xlink:href="#MicrosoftYaHei-Bold-6e" x="2151.878906"/>
     <use xlink:href="#MicrosoftYaHei-Bold-64" x="2216.673828"/>
     <use xlink:href="#MicrosoftYaHei-Bold-73" x="2283.128906"/>
    </g>
   </g>
  </g>
 </g>
 <defs>
  <clipPath id="p81f66c5823">
   <rect x="65.601562" y="25.190625" width="532.28" height="271.72"/>
  </clipPath>
 </defs>
</svg>
