<?xml version="1.0" encoding="utf-8" standalone="no"?>
<!DOCTYPE svg PUBLIC "-//W3C//DTD SVG 1.1//EN"
  "http://www.w3.org/Graphics/SVG/1.1/DTD/svg11.dtd">
<svg xmlns:xlink="http://www.w3.org/1999/xlink" width="655.552187pt" height="337.512344pt" viewBox="0 0 655.552187 337.512344" xmlns="http://www.w3.org/2000/svg" version="1.1">
 <metadata>
  <rdf:RDF xmlns:dc="http://purl.org/dc/elements/1.1/" xmlns:cc="http://creativecommons.org/ns#" xmlns:rdf="http://www.w3.org/1999/02/22-rdf-syntax-ns#">
   <cc:Work>
    <dc:type rdf:resource="http://purl.org/dc/dcmitype/StillImage"/>
    <dc:date>2026-07-02T11:03:53.308072</dc:date>
    <dc:format>image/svg+xml</dc:format>
    <dc:creator>
     <cc:Agent>
      <dc:title>Matplotlib v3.5.3, https://matplotlib.org/</dc:title>
     </cc:Agent>
    </dc:creator>
   </cc:Work>
  </rdf:RDF>
 </metadata>
 <defs>
  <style type="text/css">*{stroke-linejoin: round; stroke-linecap: butt}</style>
 </defs>
 <g id="figure_1">
  <g id="patch_1">
   <path d="M 0 337.512344 
L 655.552187 337.512344 
L 655.552187 0 
L 0 0 
z
" style="fill: #ffffff"/>
  </g>
  <g id="axes_1">
   <g id="patch_2">
    <path d="M 146.492188 297.305 
L 648.352188 297.305 
L 648.352188 25.99 
L 146.492188 25.99 
z
" style="fill: #ffffff"/>
   </g>
   <g id="matplotlib.axis_1">
    <g id="xtick_1">
     <g id="line2d_1">
      <path d="M 164.545458 297.305 
L 164.545458 25.99 
" clip-path="url(#p3a3fb1482c)" style="fill: none; stroke: #e5e7eb; stroke-linecap: square"/>
     </g>
     <g id="line2d_2">
      <defs>
       <path id="m2511ad8ee9" d="M 0 0 
L 0 3.5 
" style="stroke: #000000; stroke-width: 0.8"/>
      </defs>
      <g>
       <use xlink:href="#m2511ad8ee9" x="164.545458" y="297.305" style="stroke: #000000; stroke-width: 0.8"/>
      </g>
     </g>
     <g id="text_1">
      <!-- 0.0 -->
      <g transform="translate(157.477489 312.29875)scale(0.1 -0.1)">
       <defs>
        <path id="MicrosoftYaHei-30" d="M 284 2325 
Q 284 3606 709 4264 
Q 1134 4922 1941 4922 
Q 3478 4922 3478 2441 
Q 3478 1216 3045 567 
Q 2613 -81 1831 -81 
Q 1094 -81 689 534 
Q 284 1150 284 2325 
z
M 909 2353 
Q 909 425 1888 425 
Q 2850 425 2850 2384 
Q 2850 4413 1906 4413 
Q 909 4413 909 2353 
z
" transform="scale(0.015625)"/>
        <path id="MicrosoftYaHei-2e" d="M 372 322 
Q 372 491 487 606 
Q 603 722 775 722 
Q 950 722 1065 605 
Q 1181 488 1181 322 
Q 1181 159 1065 42 
Q 950 -75 772 -75 
Q 600 -75 486 42 
Q 372 159 372 322 
z
" transform="scale(0.015625)"/>
       </defs>
       <use xlink:href="#MicrosoftYaHei-30"/>
       <use xlink:href="#MicrosoftYaHei-2e" x="58.642578"/>
       <use xlink:href="#MicrosoftYaHei-30" x="82.714844"/>
      </g>
     </g>
    </g>
    <g id="xtick_2">
     <g id="line2d_3">
      <path d="M 236.758538 297.305 
L 236.758538 25.99 
" clip-path="url(#p3a3fb1482c)" style="fill: none; stroke: #e5e7eb; stroke-linecap: square"/>
     </g>
     <g id="line2d_4">
      <g>
       <use xlink:href="#m2511ad8ee9" x="236.758538" y="297.305" style="stroke: #000000; stroke-width: 0.8"/>
      </g>
     </g>
     <g id="text_2">
      <!-- 0.2 -->
      <g transform="translate(229.690569 312.29875)scale(0.1 -0.1)">
       <defs>
        <path id="MicrosoftYaHei-32" d="M 2666 3572 
Q 2666 3963 2419 4186 
Q 2172 4409 1747 4409 
Q 1447 4409 1140 4256 
Q 834 4103 569 3819 
L 569 4413 
Q 806 4659 1107 4790 
Q 1409 4922 1816 4922 
Q 2472 4922 2872 4570 
Q 3272 4219 3272 3619 
Q 3272 3084 3026 2693 
Q 2781 2303 2188 1894 
Q 1581 1475 1376 1294 
Q 1172 1113 1090 947 
Q 1009 781 1009 544 
L 3416 544 
L 3416 0 
L 372 0 
L 372 241 
Q 372 659 486 951 
Q 600 1244 862 1520 
Q 1125 1797 1681 2184 
Q 2250 2584 2458 2886 
Q 2666 3188 2666 3572 
z
" transform="scale(0.015625)"/>
       </defs>
       <use xlink:href="#MicrosoftYaHei-30"/>
       <use xlink:href="#MicrosoftYaHei-2e" x="58.642578"/>
       <use xlink:href="#MicrosoftYaHei-32" x="82.714844"/>
      </g>
     </g>
    </g>
    <g id="xtick_3">
     <g id="line2d_5">
      <path d="M 308.971618 297.305 
L 308.971618 25.99 
" clip-path="url(#p3a3fb1482c)" style="fill: none; stroke: #e5e7eb; stroke-linecap: square"/>
     </g>
     <g id="line2d_6">
      <g>
       <use xlink:href="#m2511ad8ee9" x="308.971618" y="297.305" style="stroke: #000000; stroke-width: 0.8"/>
      </g>
     </g>
     <g id="text_3">
      <!-- 0.4 -->
      <g transform="translate(301.903649 312.29875)scale(0.1 -0.1)">
       <defs>
        <path id="MicrosoftYaHei-34" d="M 2906 4841 
L 2906 1644 
L 3631 1644 
L 3631 1138 
L 2906 1138 
L 2906 0 
L 2313 0 
L 2313 1138 
L 53 1138 
L 53 1616 
Q 656 2294 1265 3178 
Q 1875 4063 2272 4841 
L 2906 4841 
z
M 741 1644 
L 2313 1644 
L 2313 3950 
Q 1988 3366 1616 2817 
Q 1244 2269 741 1644 
z
" transform="scale(0.015625)"/>
       </defs>
       <use xlink:href="#MicrosoftYaHei-30"/>
       <use xlink:href="#MicrosoftYaHei-2e" x="58.642578"/>
       <use xlink:href="#MicrosoftYaHei-34" x="82.714844"/>
      </g>
     </g>
    </g>
    <g id="xtick_4">
     <g id="line2d_7">
      <path d="M 381.184698 297.305 
L 381.184698 25.99 
" clip-path="url(#p3a3fb1482c)" style="fill: none; stroke: #e5e7eb; stroke-linecap: square"/>
     </g>
     <g id="line2d_8">
      <g>
       <use xlink:href="#m2511ad8ee9" x="381.184698" y="297.305" style="stroke: #000000; stroke-width: 0.8"/>
      </g>
     </g>
     <g id="text_4">
      <!-- 0.6 -->
      <g transform="translate(374.116729 312.29875)scale(0.1 -0.1)">
       <defs>
        <path id="MicrosoftYaHei-36" d="M 3181 4219 
Q 2803 4413 2391 4413 
Q 1763 4413 1381 3866 
Q 1000 3319 994 2372 
L 1009 2372 
Q 1353 3038 2106 3038 
Q 2734 3038 3109 2628 
Q 3484 2219 3484 1541 
Q 3484 831 3051 375 
Q 2619 -81 1947 -81 
Q 1209 -81 789 495 
Q 369 1072 369 2131 
Q 369 3413 920 4167 
Q 1472 4922 2372 4922 
Q 2888 4922 3181 4781 
L 3181 4219 
z
M 1031 1584 
Q 1031 1106 1286 765 
Q 1541 425 1963 425 
Q 2363 425 2613 719 
Q 2863 1013 2863 1475 
Q 2863 1975 2627 2253 
Q 2391 2531 1956 2531 
Q 1544 2531 1287 2250 
Q 1031 1969 1031 1584 
z
" transform="scale(0.015625)"/>
       </defs>
       <use xlink:href="#MicrosoftYaHei-30"/>
       <use xlink:href="#MicrosoftYaHei-2e" x="58.642578"/>
       <use xlink:href="#MicrosoftYaHei-36" x="82.714844"/>
      </g>
     </g>
    </g>
    <g id="xtick_5">
     <g id="line2d_9">
      <path d="M 453.397778 297.305 
L 453.397778 25.99 
" clip-path="url(#p3a3fb1482c)" style="fill: none; stroke: #e5e7eb; stroke-linecap: square"/>
     </g>
     <g id="line2d_10">
      <g>
       <use xlink:href="#m2511ad8ee9" x="453.397778" y="297.305" style="stroke: #000000; stroke-width: 0.8"/>
      </g>
     </g>
     <g id="text_5">
      <!-- 0.8 -->
      <g transform="translate(446.329809 312.29875)scale(0.1 -0.1)">
       <defs>
        <path id="MicrosoftYaHei-38" d="M 306 1350 
Q 306 1769 556 2122 
Q 806 2475 1200 2625 
Q 884 2803 700 3081 
Q 516 3359 516 3684 
Q 516 4028 692 4312 
Q 869 4597 1183 4759 
Q 1497 4922 1875 4922 
Q 2256 4922 2572 4761 
Q 2888 4600 3063 4315 
Q 3238 4031 3238 3684 
Q 3238 3366 3058 3086 
Q 2878 2806 2559 2625 
Q 2953 2472 3200 2119 
Q 3447 1766 3447 1350 
Q 3447 938 3250 611 
Q 3053 284 2690 103 
Q 2328 -78 1875 -78 
Q 1425 -78 1065 103 
Q 706 284 506 612 
Q 306 941 306 1350 
z
M 906 1378 
Q 906 947 1172 687 
Q 1438 428 1878 428 
Q 2309 428 2582 692 
Q 2856 956 2856 1378 
Q 2856 1778 2579 2051 
Q 2303 2325 1878 2325 
Q 1456 2325 1181 2058 
Q 906 1791 906 1378 
z
M 1081 3634 
Q 1081 3309 1312 3076 
Q 1544 2844 1878 2844 
Q 2206 2844 2445 3078 
Q 2684 3313 2684 3634 
Q 2684 3963 2454 4191 
Q 2225 4419 1878 4419 
Q 1534 4419 1307 4195 
Q 1081 3972 1081 3634 
z
" transform="scale(0.015625)"/>
       </defs>
       <use xlink:href="#MicrosoftYaHei-30"/>
       <use xlink:href="#MicrosoftYaHei-2e" x="58.642578"/>
       <use xlink:href="#MicrosoftYaHei-38" x="82.714844"/>
      </g>
     </g>
    </g>
    <g id="xtick_6">
     <g id="line2d_11">
      <path d="M 525.610858 297.305 
L 525.610858 25.99 
" clip-path="url(#p3a3fb1482c)" style="fill: none; stroke: #e5e7eb; stroke-linecap: square"/>
     </g>
     <g id="line2d_12">
      <g>
       <use xlink:href="#m2511ad8ee9" x="525.610858" y="297.305" style="stroke: #000000; stroke-width: 0.8"/>
      </g>
     </g>
     <g id="text_6">
      <!-- 1.0 -->
      <g transform="translate(518.542889 312.29875)scale(0.1 -0.1)">
       <defs>
        <path id="MicrosoftYaHei-31" d="M 1781 0 
L 1781 4141 
Q 1638 3997 1295 3819 
Q 953 3641 663 3569 
L 663 4169 
Q 1047 4275 1484 4508 
Q 1922 4741 2156 4947 
L 2388 4947 
L 2388 0 
L 1781 0 
z
" transform="scale(0.015625)"/>
       </defs>
       <use xlink:href="#MicrosoftYaHei-31"/>
       <use xlink:href="#MicrosoftYaHei-2e" x="58.642578"/>
       <use xlink:href="#MicrosoftYaHei-30" x="82.714844"/>
      </g>
     </g>
    </g>
    <g id="xtick_7">
     <g id="line2d_13">
      <path d="M 597.823938 297.305 
L 597.823938 25.99 
" clip-path="url(#p3a3fb1482c)" style="fill: none; stroke: #e5e7eb; stroke-linecap: square"/>
     </g>
     <g id="line2d_14">
      <g>
       <use xlink:href="#m2511ad8ee9" x="597.823938" y="297.305" style="stroke: #000000; stroke-width: 0.8"/>
      </g>
     </g>
     <g id="text_7">
      <!-- 1.2 -->
      <g transform="translate(590.755969 312.29875)scale(0.1 -0.1)">
       <use xlink:href="#MicrosoftYaHei-31"/>
       <use xlink:href="#MicrosoftYaHei-2e" x="58.642578"/>
       <use xlink:href="#MicrosoftYaHei-32" x="82.714844"/>
      </g>
     </g>
    </g>
    <g id="text_8">
     <!-- 估计处理效应 -->
     <g transform="translate(364.422188 327.577812)scale(0.11 -0.11)">
      <defs>
       <path id="MicrosoftYaHei-4f30" d="M 2250 2284 
L 3781 2284 
L 3781 3553 
L 1800 3553 
L 1800 4016 
L 3781 4016 
L 3781 5316 
L 4294 5316 
L 4294 4016 
L 6300 4016 
L 6300 3553 
L 4294 3553 
L 4294 2284 
L 5831 2284 
L 5831 -841 
L 5319 -841 
L 5319 -353 
L 2763 -353 
L 2763 -841 
L 2250 -841 
L 2250 2284 
z
M 5319 1822 
L 2763 1822 
L 2763 97 
L 5319 97 
L 5319 1822 
z
M 44 2259 
Q 919 3559 1431 5347 
L 1944 5197 
Q 1713 4494 1456 3878 
L 1456 -853 
L 963 -853 
L 963 2834 
Q 634 2213 269 1716 
Q 175 1984 44 2259 
z
" transform="scale(0.015625)"/>
       <path id="MicrosoftYaHei-8ba1" d="M 2100 3153 
L 3919 3153 
L 3919 5303 
L 4456 5303 
L 4456 3153 
L 6288 3153 
L 6288 2703 
L 4456 2703 
L 4456 -822 
L 3919 -822 
L 3919 2703 
L 2100 2703 
L 2100 3153 
z
M 2675 903 
Q 2694 578 2719 359 
Q 1719 -266 1069 -728 
L 769 -303 
Q 988 -116 988 266 
L 988 2741 
L 100 2741 
L 100 3191 
L 1488 3191 
L 1488 153 
Q 2031 484 2675 903 
z
M 738 5222 
Q 1419 4522 1725 4184 
L 1288 3816 
Q 894 4334 356 4891 
L 738 5222 
z
" transform="scale(0.015625)"/>
       <path id="MicrosoftYaHei-5904" d="M 1706 5197 
Q 1575 4591 1413 4034 
L 3081 4034 
L 3081 3578 
Q 2906 1966 2150 772 
Q 2719 128 3531 -16 
Q 4488 -184 6319 -103 
Q 6213 -347 6138 -622 
Q 4425 -684 3475 -497 
Q 2519 -334 1869 359 
Q 1325 -353 550 -903 
Q 344 -709 138 -534 
Q 981 34 1538 766 
Q 1088 1434 825 2434 
Q 631 2003 413 1609 
Q 281 1784 50 2041 
Q 819 3409 1188 5278 
L 1706 5197 
z
M 3850 5253 
L 4369 5253 
L 4369 3159 
L 4644 3478 
Q 5531 2878 6244 2297 
L 5906 1866 
Q 5244 2447 4369 3078 
L 4369 147 
L 3850 147 
L 3850 5253 
z
M 2575 3559 
L 1263 3559 
Q 1188 3334 1113 3122 
Q 1369 1941 1831 1197 
Q 2463 2234 2575 3559 
z
" transform="scale(0.015625)"/>
       <path id="MicrosoftYaHei-7406" d="M 2031 -166 
L 3988 -166 
L 3988 734 
L 2394 734 
L 2394 1172 
L 3988 1172 
L 3988 1997 
L 2988 1997 
L 2988 1766 
L 2525 1766 
L 2525 4991 
L 5913 4991 
L 5913 1766 
L 5450 1766 
L 5450 1997 
L 4450 1997 
L 4450 1172 
L 6044 1172 
L 6044 734 
L 4450 734 
L 4450 -166 
L 6319 -166 
L 6319 -603 
L 2031 -603 
L 2031 -166 
z
M 44 203 
Q 525 319 975 434 
L 975 2328 
L 194 2328 
L 194 2766 
L 975 2766 
L 975 4328 
L 131 4328 
L 131 4766 
L 2281 4766 
L 2281 4328 
L 1438 4328 
L 1438 2766 
L 2231 2766 
L 2231 2328 
L 1438 2328 
L 1438 559 
Q 1850 675 2238 791 
Q 2269 509 2306 303 
Q 1238 16 213 -303 
L 44 203 
z
M 4450 2422 
L 5450 2422 
L 5450 3291 
L 4450 3291 
L 4450 2422 
z
M 2988 2422 
L 3988 2422 
L 3988 3291 
L 2988 3291 
L 2988 2422 
z
M 5450 4566 
L 4450 4566 
L 4450 3703 
L 5450 3703 
L 5450 4566 
z
M 2988 3703 
L 3988 3703 
L 3988 4566 
L 2988 4566 
L 2988 3703 
z
" transform="scale(0.015625)"/>
       <path id="MicrosoftYaHei-6548" d="M 4088 5334 
L 4581 5253 
Q 4453 4653 4259 4122 
L 6269 4122 
L 6269 3697 
L 5838 3697 
Q 5672 1869 5050 841 
Q 5572 128 6388 -347 
Q 6188 -622 6050 -841 
Q 5250 -313 4728 391 
Q 4153 -328 3300 -891 
Q 3163 -709 2944 -497 
Q 3872 125 4428 853 
Q 3897 1797 3753 3025 
Q 3603 2766 3431 2528 
Q 3300 2716 3119 2928 
Q 3844 3941 4088 5334 
z
M 694 1909 
L 1031 2203 
Q 1456 1800 1863 1394 
Q 2138 1847 2350 2378 
L 2800 2141 
Q 2538 1550 2209 1047 
Q 2659 591 3088 134 
L 2669 -222 
Q 2275 225 1913 625 
Q 1250 -238 356 -809 
Q 238 -641 31 -397 
Q 947 128 1584 981 
Q 1113 1491 694 1909 
z
M 5344 3697 
L 4125 3697 
Q 4222 2322 4741 1338 
Q 5263 2306 5344 3697 
z
M 175 4297 
L 3325 4297 
L 3325 3872 
L 175 3872 
L 175 4297 
z
M 1063 3628 
L 1475 3372 
Q 963 2641 413 1953 
Q 256 2084 44 2241 
Q 506 2797 1063 3628 
z
M 2344 3609 
Q 2744 3197 3263 2591 
L 2894 2278 
Q 2506 2759 2006 3341 
L 2344 3609 
z
M 1306 5141 
L 1731 5359 
Q 1988 4953 2206 4547 
L 1769 4322 
Q 1544 4772 1306 5141 
z
" transform="scale(0.015625)"/>
       <path id="MicrosoftYaHei-5e94" d="M 2969 5134 
L 3425 5378 
Q 3694 5034 3938 4634 
L 3634 4459 
L 6169 4459 
L 6169 3984 
L 1300 3984 
L 1300 2453 
Q 1300 241 388 -853 
Q 238 -647 25 -422 
Q 775 416 775 2441 
L 775 4459 
L 3419 4459 
Q 3216 4803 2969 5134 
z
M 1263 -9 
L 4153 -9 
Q 4641 1238 5188 3403 
L 5731 3253 
Q 5147 1191 4694 -9 
L 6238 -9 
L 6238 -484 
L 1263 -484 
L 1263 -9 
z
M 1600 3059 
L 2075 3222 
Q 2463 2084 2825 672 
L 2294 509 
Q 2006 1747 1600 3059 
z
M 3106 3372 
L 3588 3509 
Q 3913 2384 4163 991 
L 3613 847 
Q 3431 2084 3106 3372 
z
" transform="scale(0.015625)"/>
      </defs>
      <use xlink:href="#MicrosoftYaHei-4f30"/>
      <use xlink:href="#MicrosoftYaHei-8ba1" x="100"/>
      <use xlink:href="#MicrosoftYaHei-5904" x="200"/>
      <use xlink:href="#MicrosoftYaHei-7406" x="300"/>
      <use xlink:href="#MicrosoftYaHei-6548" x="400"/>
      <use xlink:href="#MicrosoftYaHei-5e94" x="500"/>
     </g>
    </g>
   </g>
   <g id="matplotlib.axis_2">
    <g id="ytick_1">
     <g id="line2d_15">
      <path d="M 146.492188 284.9725 
L 648.352188 284.9725 
" clip-path="url(#p3a3fb1482c)" style="fill: none; stroke: #edf2f7; stroke-width: 0.8; stroke-linecap: square"/>
     </g>
     <g id="line2d_16">
      <defs>
       <path id="m00b937fe78" d="M 0 0 
L -3.5 0 
" style="stroke: #000000; stroke-width: 0.8"/>
      </defs>
      <g>
       <use xlink:href="#m00b937fe78" x="146.492188" y="284.9725" style="stroke: #000000; stroke-width: 0.8"/>
      </g>
     </g>
     <g id="text_9">
      <!-- PLR-DML Boosting -->
      <g transform="translate(40.328906 289.337266)scale(0.11 -0.11)">
       <defs>
        <path id="MicrosoftYaHei-50" d="M 1250 1809 
L 1250 0 
L 625 0 
L 625 4841 
L 2000 4841 
Q 2784 4841 3217 4462 
Q 3650 4084 3650 3381 
Q 3650 2669 3144 2226 
Q 2638 1784 1878 1809 
L 1250 1809 
z
M 1250 4291 
L 1250 2359 
L 1828 2359 
Q 2400 2359 2697 2617 
Q 2994 2875 2994 3356 
Q 2994 4291 1888 4291 
L 1250 4291 
z
" transform="scale(0.015625)"/>
        <path id="MicrosoftYaHei-4c" d="M 3178 0 
L 625 0 
L 625 4841 
L 1250 4841 
L 1250 553 
L 3178 553 
L 3178 0 
z
" transform="scale(0.015625)"/>
        <path id="MicrosoftYaHei-52" d="M 4159 0 
L 3422 0 
L 2619 1344 
Q 2378 1747 2178 1892 
Q 1978 2038 1700 2038 
L 1250 2038 
L 1250 0 
L 625 0 
L 625 4841 
L 2100 4841 
Q 2806 4841 3206 4500 
Q 3606 4159 3606 3547 
Q 3606 2541 2531 2241 
L 2531 2225 
Q 2731 2141 2876 1984 
Q 3022 1828 3253 1450 
L 4159 0 
z
M 1250 4294 
L 1250 2584 
L 1988 2584 
Q 2416 2584 2683 2834 
Q 2950 3084 2950 3491 
Q 2950 3869 2706 4081 
Q 2463 4294 1997 4294 
L 1250 4294 
z
" transform="scale(0.015625)"/>
        <path id="MicrosoftYaHei-2d" d="M 2328 1681 
L 488 1681 
L 488 2153 
L 2328 2153 
L 2328 1681 
z
" transform="scale(0.015625)"/>
        <path id="MicrosoftYaHei-44" d="M 625 0 
L 625 4841 
L 2006 4841 
Q 3106 4841 3836 4200 
Q 4566 3559 4566 2481 
Q 4566 1356 3836 678 
Q 3106 0 1956 0 
L 625 0 
z
M 1250 4284 
L 1250 553 
L 1953 553 
Q 2875 553 3392 1056 
Q 3909 1559 3909 2466 
Q 3909 3372 3378 3828 
Q 2847 4284 1981 4284 
L 1250 4284 
z
" transform="scale(0.015625)"/>
        <path id="MicrosoftYaHei-4d" d="M 5003 0 
L 5003 3206 
Q 5003 3603 5050 4159 
L 5034 4159 
Q 4953 3809 4891 3672 
L 3294 0 
L 2947 0 
L 1353 3644 
Q 1297 3769 1209 4159 
L 1191 4159 
Q 1222 3822 1222 3178 
L 1222 0 
L 625 0 
L 625 4841 
L 1472 4841 
L 2900 1522 
Q 3063 1141 3116 928 
L 3138 928 
Q 3300 1375 3366 1534 
L 4819 4841 
L 5625 4841 
L 5625 0 
L 5003 0 
z
" transform="scale(0.015625)"/>
        <path id="MicrosoftYaHei-20" transform="scale(0.015625)"/>
        <path id="MicrosoftYaHei-42" d="M 625 0 
L 625 4841 
L 2047 4841 
Q 2684 4841 3065 4536 
Q 3447 4231 3447 3728 
Q 3447 3328 3220 3022 
Q 2994 2716 2597 2588 
L 2597 2575 
Q 3091 2519 3386 2201 
Q 3681 1884 3681 1397 
Q 3681 772 3232 386 
Q 2784 0 2084 0 
L 625 0 
z
M 1250 4294 
L 1250 2778 
L 1819 2778 
Q 2272 2778 2530 2998 
Q 2788 3219 2788 3609 
Q 2788 4294 1875 4294 
L 1250 4294 
z
M 1250 2234 
L 1250 547 
L 2000 547 
Q 2491 547 2758 773 
Q 3025 1000 3025 1403 
Q 3025 2234 1897 2234 
L 1250 2234 
z
" transform="scale(0.015625)"/>
        <path id="MicrosoftYaHei-6f" d="M 316 1691 
Q 316 2547 794 3042 
Q 1272 3538 2091 3538 
Q 2869 3538 3311 3061 
Q 3753 2584 3753 1744 
Q 3753 925 3281 422 
Q 2809 -81 2016 -81 
Q 1241 -81 778 406 
Q 316 894 316 1691 
z
M 941 1709 
Q 941 1113 1242 769 
Q 1544 425 2053 425 
Q 2578 425 2853 761 
Q 3128 1097 3128 1725 
Q 3128 2356 2853 2693 
Q 2578 3031 2053 3031 
Q 1538 3031 1239 2678 
Q 941 2325 941 1709 
z
" transform="scale(0.015625)"/>
        <path id="MicrosoftYaHei-73" d="M 353 747 
Q 816 413 1350 413 
Q 2066 413 2066 881 
Q 2066 1081 1909 1211 
Q 1753 1341 1275 1519 
Q 700 1750 528 1976 
Q 356 2203 356 2525 
Q 356 2984 745 3261 
Q 1134 3538 1703 3538 
Q 2144 3538 2522 3384 
L 2522 2794 
Q 2134 3044 1644 3044 
Q 1350 3044 1165 2916 
Q 981 2788 981 2578 
Q 981 2372 1114 2256 
Q 1247 2141 1703 1959 
Q 2281 1744 2484 1512 
Q 2688 1281 2688 941 
Q 2688 466 2298 192 
Q 1909 -81 1291 -81 
Q 753 -81 353 122 
L 353 747 
z
" transform="scale(0.015625)"/>
        <path id="MicrosoftYaHei-74" d="M 2206 34 
Q 2006 -75 1666 -75 
Q 738 -75 738 953 
L 738 2950 
L 144 2950 
L 144 3456 
L 738 3456 
L 738 4288 
L 1347 4481 
L 1347 3456 
L 2206 3456 
L 2206 2950 
L 1347 2950 
L 1347 1063 
Q 1347 722 1462 575 
Q 1578 428 1847 428 
Q 2053 428 2206 544 
L 2206 34 
z
" transform="scale(0.015625)"/>
        <path id="MicrosoftYaHei-69" d="M 472 4675 
Q 472 4838 583 4948 
Q 694 5059 856 5059 
Q 1022 5059 1136 4950 
Q 1250 4841 1250 4675 
Q 1250 4513 1136 4405 
Q 1022 4297 856 4297 
Q 691 4297 581 4405 
Q 472 4513 472 4675 
z
M 544 0 
L 544 3456 
L 1156 3456 
L 1156 0 
L 544 0 
z
" transform="scale(0.015625)"/>
        <path id="MicrosoftYaHei-6e" d="M 3469 0 
L 2859 0 
L 2859 1966 
Q 2859 3031 2081 3031 
Q 1678 3031 1418 2731 
Q 1159 2431 1159 1972 
L 1159 0 
L 547 0 
L 547 3456 
L 1159 3456 
L 1159 2884 
L 1172 2884 
Q 1563 3538 2306 3538 
Q 2875 3538 3172 3173 
Q 3469 2809 3469 2113 
L 3469 0 
z
" transform="scale(0.015625)"/>
        <path id="MicrosoftYaHei-67" d="M 3547 291 
Q 3547 -1628 1684 -1628 
Q 1041 -1628 566 -1388 
L 566 -797 
Q 1144 -1119 1675 -1119 
Q 2934 -1119 2934 206 
L 2934 572 
L 2922 572 
Q 2528 -81 1747 -81 
Q 1097 -81 706 384 
Q 316 850 316 1619 
Q 316 2503 747 3020 
Q 1178 3538 1897 3538 
Q 2588 3538 2922 2988 
L 2934 2988 
L 2934 3456 
L 3547 3456 
L 3547 291 
z
M 2934 2056 
Q 2938 2456 2666 2743 
Q 2394 3031 1997 3031 
Q 1497 3031 1219 2664 
Q 941 2297 941 1656 
Q 941 1106 1209 765 
Q 1478 425 1922 425 
Q 2369 425 2653 750 
Q 2938 1075 2934 1575 
L 2934 2056 
z
" transform="scale(0.015625)"/>
       </defs>
       <use xlink:href="#MicrosoftYaHei-50"/>
       <use xlink:href="#MicrosoftYaHei-4c" x="61.181641"/>
       <use xlink:href="#MicrosoftYaHei-52" x="112.5"/>
       <use xlink:href="#MicrosoftYaHei-2d" x="177.783203"/>
       <use xlink:href="#MicrosoftYaHei-44" x="221.044922"/>
       <use xlink:href="#MicrosoftYaHei-4d" x="297.216797"/>
       <use xlink:href="#MicrosoftYaHei-4c" x="394.921875"/>
       <use xlink:href="#MicrosoftYaHei-20" x="446.240234"/>
       <use xlink:href="#MicrosoftYaHei-42" x="475.830078"/>
       <use xlink:href="#MicrosoftYaHei-6f" x="538.574219"/>
       <use xlink:href="#MicrosoftYaHei-6f" x="602.148438"/>
       <use xlink:href="#MicrosoftYaHei-73" x="665.722656"/>
       <use xlink:href="#MicrosoftYaHei-74" x="712.011719"/>
       <use xlink:href="#MicrosoftYaHei-69" x="749.267578"/>
       <use xlink:href="#MicrosoftYaHei-6e" x="775.878906"/>
       <use xlink:href="#MicrosoftYaHei-67" x="837.5"/>
      </g>
     </g>
    </g>
    <g id="ytick_2">
     <g id="line2d_17">
      <path d="M 146.492188 202.755833 
L 648.352188 202.755833 
" clip-path="url(#p3a3fb1482c)" style="fill: none; stroke: #edf2f7; stroke-width: 0.8; stroke-linecap: square"/>
     </g>
     <g id="line2d_18">
      <g>
       <use xlink:href="#m00b937fe78" x="146.492188" y="202.755833" style="stroke: #000000; stroke-width: 0.8"/>
      </g>
     </g>
     <g id="text_10">
      <!-- PLR-DML Decision Tree -->
      <g transform="translate(17.235781 207.152396)scale(0.11 -0.11)">
       <defs>
        <path id="MicrosoftYaHei-65" d="M 3363 1572 
L 944 1572 
Q 959 1019 1246 717 
Q 1534 416 2050 416 
Q 2631 416 3116 788 
L 3116 241 
Q 2659 -81 1906 -81 
Q 1156 -81 736 394 
Q 316 869 316 1713 
Q 316 2506 777 3022 
Q 1238 3538 1922 3538 
Q 2600 3538 2981 3102 
Q 3363 2666 3363 1881 
L 3363 1572 
z
M 2750 2063 
Q 2747 2531 2528 2787 
Q 2309 3044 1913 3044 
Q 1547 3044 1280 2772 
Q 1013 2500 944 2063 
L 2750 2063 
z
" transform="scale(0.015625)"/>
        <path id="MicrosoftYaHei-63" d="M 2934 156 
Q 2538 -81 1978 -81 
Q 1228 -81 772 400 
Q 316 881 316 1647 
Q 316 2497 808 3017 
Q 1300 3538 2125 3538 
Q 2600 3538 2938 3369 
L 2938 2763 
Q 2572 3031 2125 3031 
Q 1600 3031 1270 2667 
Q 941 2303 941 1697 
Q 941 1100 1252 762 
Q 1563 425 2091 425 
Q 2538 425 2934 719 
L 2934 156 
z
" transform="scale(0.015625)"/>
        <path id="MicrosoftYaHei-54" d="M 3550 4284 
L 2153 4284 
L 2153 0 
L 1525 0 
L 1525 4284 
L 134 4284 
L 134 4841 
L 3550 4841 
L 3550 4284 
z
" transform="scale(0.015625)"/>
        <path id="MicrosoftYaHei-72" d="M 2400 2850 
Q 2247 2959 1978 2959 
Q 1622 2959 1390 2626 
Q 1159 2294 1159 1750 
L 1159 0 
L 547 0 
L 547 3456 
L 1159 3456 
L 1159 2753 
L 1172 2753 
Q 1434 3516 2078 3516 
Q 2288 3516 2400 3469 
L 2400 2850 
z
" transform="scale(0.015625)"/>
       </defs>
       <use xlink:href="#MicrosoftYaHei-50"/>
       <use xlink:href="#MicrosoftYaHei-4c" x="61.181641"/>
       <use xlink:href="#MicrosoftYaHei-52" x="112.5"/>
       <use xlink:href="#MicrosoftYaHei-2d" x="177.783203"/>
       <use xlink:href="#MicrosoftYaHei-44" x="221.044922"/>
       <use xlink:href="#MicrosoftYaHei-4d" x="297.216797"/>
       <use xlink:href="#MicrosoftYaHei-4c" x="394.921875"/>
       <use xlink:href="#MicrosoftYaHei-20" x="446.240234"/>
       <use xlink:href="#MicrosoftYaHei-44" x="475.830078"/>
       <use xlink:href="#MicrosoftYaHei-65" x="552.001953"/>
       <use xlink:href="#MicrosoftYaHei-63" x="608.740234"/>
       <use xlink:href="#MicrosoftYaHei-69" x="658.886719"/>
       <use xlink:href="#MicrosoftYaHei-73" x="685.498047"/>
       <use xlink:href="#MicrosoftYaHei-69" x="731.787109"/>
       <use xlink:href="#MicrosoftYaHei-6f" x="758.398438"/>
       <use xlink:href="#MicrosoftYaHei-6e" x="821.972656"/>
       <use xlink:href="#MicrosoftYaHei-20" x="883.59375"/>
       <use xlink:href="#MicrosoftYaHei-54" x="913.183594"/>
       <use xlink:href="#MicrosoftYaHei-72" x="961.132812"/>
       <use xlink:href="#MicrosoftYaHei-65" x="997.941406"/>
       <use xlink:href="#MicrosoftYaHei-65" x="1054.679688"/>
      </g>
     </g>
    </g>
    <g id="ytick_3">
     <g id="line2d_19">
      <path d="M 146.492188 120.539167 
L 648.352188 120.539167 
" clip-path="url(#p3a3fb1482c)" style="fill: none; stroke: #edf2f7; stroke-width: 0.8; stroke-linecap: square"/>
     </g>
     <g id="line2d_20">
      <g>
       <use xlink:href="#m00b937fe78" x="146.492188" y="120.539167" style="stroke: #000000; stroke-width: 0.8"/>
      </g>
     </g>
     <g id="text_11">
      <!-- PLR-DML Random Forest -->
      <g transform="translate(7.2 124.935729)scale(0.11 -0.11)">
       <defs>
        <path id="MicrosoftYaHei-61" d="M 628 3216 
Q 1144 3538 1819 3538 
Q 3069 3538 3069 2225 
L 3069 0 
L 2463 0 
L 2463 534 
L 2447 534 
Q 2088 -81 1388 -81 
Q 884 -81 587 191 
Q 291 463 291 925 
Q 291 1894 1438 2053 
L 2463 2197 
Q 2463 3044 1763 3044 
Q 1141 3044 628 2625 
L 628 3216 
z
M 1653 1625 
Q 1228 1569 1067 1412 
Q 906 1256 906 975 
Q 906 728 1081 572 
Q 1256 416 1544 416 
Q 1944 416 2203 697 
Q 2463 978 2463 1403 
L 2463 1734 
L 1653 1625 
z
" transform="scale(0.015625)"/>
        <path id="MicrosoftYaHei-64" d="M 3547 0 
L 2934 0 
L 2934 575 
L 2922 575 
Q 2544 -81 1747 -81 
Q 1091 -81 703 386 
Q 316 853 316 1647 
Q 316 2503 753 3020 
Q 1191 3538 1897 3538 
Q 2603 3538 2922 2988 
L 2934 2988 
L 2934 5116 
L 3547 5116 
L 3547 0 
z
M 2938 2056 
Q 2938 2472 2664 2751 
Q 2391 3031 1991 3031 
Q 1503 3031 1222 2667 
Q 941 2303 941 1675 
Q 941 1097 1211 761 
Q 1481 425 1931 425 
Q 2375 425 2656 754 
Q 2938 1084 2938 1575 
L 2938 2056 
z
" transform="scale(0.015625)"/>
        <path id="MicrosoftYaHei-6d" d="M 5522 0 
L 4909 0 
L 4909 1984 
Q 4909 2547 4734 2789 
Q 4559 3031 4159 3031 
Q 3822 3031 3581 2715 
Q 3341 2400 3341 1969 
L 3341 0 
L 2728 0 
L 2728 2047 
Q 2728 3031 1969 3031 
Q 1619 3031 1389 2731 
Q 1159 2431 1159 1966 
L 1159 0 
L 547 0 
L 547 3456 
L 1159 3456 
L 1159 2909 
L 1172 2909 
Q 1541 3538 2250 3538 
Q 2597 3538 2862 3347 
Q 3128 3156 3231 2831 
Q 3616 3538 4381 3538 
Q 5522 3538 5522 2131 
L 5522 0 
z
" transform="scale(0.015625)"/>
        <path id="MicrosoftYaHei-46" d="M 3119 4284 
L 1250 4284 
L 1250 2666 
L 2981 2666 
L 2981 2116 
L 1250 2116 
L 1250 0 
L 625 0 
L 625 4841 
L 3119 4841 
L 3119 4284 
z
" transform="scale(0.015625)"/>
       </defs>
       <use xlink:href="#MicrosoftYaHei-50"/>
       <use xlink:href="#MicrosoftYaHei-4c" x="61.181641"/>
       <use xlink:href="#MicrosoftYaHei-52" x="112.5"/>
       <use xlink:href="#MicrosoftYaHei-2d" x="177.783203"/>
       <use xlink:href="#MicrosoftYaHei-44" x="221.044922"/>
       <use xlink:href="#MicrosoftYaHei-4d" x="297.216797"/>
       <use xlink:href="#MicrosoftYaHei-4c" x="394.921875"/>
       <use xlink:href="#MicrosoftYaHei-20" x="446.240234"/>
       <use xlink:href="#MicrosoftYaHei-52" x="475.830078"/>
       <use xlink:href="#MicrosoftYaHei-61" x="541.113281"/>
       <use xlink:href="#MicrosoftYaHei-6e" x="596.386719"/>
       <use xlink:href="#MicrosoftYaHei-64" x="658.007812"/>
       <use xlink:href="#MicrosoftYaHei-6f" x="721.972656"/>
       <use xlink:href="#MicrosoftYaHei-6d" x="785.546875"/>
       <use xlink:href="#MicrosoftYaHei-20" x="879.248047"/>
       <use xlink:href="#MicrosoftYaHei-46" x="908.837891"/>
       <use xlink:href="#MicrosoftYaHei-6f" x="961.962891"/>
       <use xlink:href="#MicrosoftYaHei-72" x="1025.537109"/>
       <use xlink:href="#MicrosoftYaHei-65" x="1062.345703"/>
       <use xlink:href="#MicrosoftYaHei-73" x="1119.083984"/>
       <use xlink:href="#MicrosoftYaHei-74" x="1165.373047"/>
      </g>
     </g>
    </g>
    <g id="ytick_4">
     <g id="line2d_21">
      <path d="M 146.492188 38.3225 
L 648.352188 38.3225 
" clip-path="url(#p3a3fb1482c)" style="fill: none; stroke: #edf2f7; stroke-width: 0.8; stroke-linecap: square"/>
     </g>
     <g id="line2d_22">
      <g>
       <use xlink:href="#m00b937fe78" x="146.492188" y="38.3225" style="stroke: #000000; stroke-width: 0.8"/>
      </g>
     </g>
     <g id="text_12">
      <!-- PLR-DML Ridge -->
      <g transform="translate(56.729219 42.719063)scale(0.11 -0.11)">
       <use xlink:href="#MicrosoftYaHei-50"/>
       <use xlink:href="#MicrosoftYaHei-4c" x="61.181641"/>
       <use xlink:href="#MicrosoftYaHei-52" x="112.5"/>
       <use xlink:href="#MicrosoftYaHei-2d" x="177.783203"/>
       <use xlink:href="#MicrosoftYaHei-44" x="221.044922"/>
       <use xlink:href="#MicrosoftYaHei-4d" x="297.216797"/>
       <use xlink:href="#MicrosoftYaHei-4c" x="394.921875"/>
       <use xlink:href="#MicrosoftYaHei-20" x="446.240234"/>
       <use xlink:href="#MicrosoftYaHei-52" x="475.830078"/>
       <use xlink:href="#MicrosoftYaHei-69" x="541.113281"/>
       <use xlink:href="#MicrosoftYaHei-64" x="567.724609"/>
       <use xlink:href="#MicrosoftYaHei-67" x="631.689453"/>
       <use xlink:href="#MicrosoftYaHei-65" x="695.654297"/>
      </g>
     </g>
    </g>
   </g>
   <g id="LineCollection_1">
    <path d="M 264.900418 284.9725 
L 405.016932 284.9725 
" clip-path="url(#p3a3fb1482c)" style="fill: none; stroke: #375a7f; stroke-width: 2.4"/>
   </g>
   <g id="line2d_23">
    <defs>
     <path id="ma428fbab8f" d="M 0 5 
L 0 -5 
" style="stroke: #375a7f"/>
    </defs>
    <g clip-path="url(#p3a3fb1482c)">
     <use xlink:href="#ma428fbab8f" x="264.900418" y="284.9725" style="fill: #375a7f; stroke: #375a7f"/>
    </g>
   </g>
   <g id="line2d_24">
    <g clip-path="url(#p3a3fb1482c)">
     <use xlink:href="#ma428fbab8f" x="405.016932" y="284.9725" style="fill: #375a7f; stroke: #375a7f"/>
    </g>
   </g>
   <g id="LineCollection_2">
    <path d="M 256.110369 202.755833 
L 423.291278 202.755833 
" clip-path="url(#p3a3fb1482c)" style="fill: none; stroke: #00a6a6; stroke-width: 2.4"/>
   </g>
   <g id="line2d_25">
    <defs>
     <path id="m85a9a7095d" d="M 0 5 
L 0 -5 
" style="stroke: #00a6a6"/>
    </defs>
    <g clip-path="url(#p3a3fb1482c)">
     <use xlink:href="#m85a9a7095d" x="256.110369" y="202.755833" style="fill: #00a6a6; stroke: #00a6a6"/>
    </g>
   </g>
   <g id="line2d_26">
    <g clip-path="url(#p3a3fb1482c)">
     <use xlink:href="#m85a9a7095d" x="423.291278" y="202.755833" style="fill: #00a6a6; stroke: #00a6a6"/>
    </g>
   </g>
   <g id="LineCollection_3">
    <path d="M 265.597047 120.539167 
L 425.912646 120.539167 
" clip-path="url(#p3a3fb1482c)" style="fill: none; stroke: #6a994e; stroke-width: 2.4"/>
   </g>
   <g id="line2d_27">
    <defs>
     <path id="mb309fcd0e7" d="M 0 5 
L 0 -5 
" style="stroke: #6a994e"/>
    </defs>
    <g clip-path="url(#p3a3fb1482c)">
     <use xlink:href="#mb309fcd0e7" x="265.597047" y="120.539167" style="fill: #6a994e; stroke: #6a994e"/>
    </g>
   </g>
   <g id="line2d_28">
    <g clip-path="url(#p3a3fb1482c)">
     <use xlink:href="#mb309fcd0e7" x="425.912646" y="120.539167" style="fill: #6a994e; stroke: #6a994e"/>
    </g>
   </g>
   <g id="LineCollection_4">
    <path d="M 255.336215 38.3225 
L 485.872757 38.3225 
" clip-path="url(#p3a3fb1482c)" style="fill: none; stroke: #d95f02; stroke-width: 2.4"/>
   </g>
   <g id="line2d_29">
    <defs>
     <path id="m8acb01b976" d="M 0 5 
L 0 -5 
" style="stroke: #d95f02"/>
    </defs>
    <g clip-path="url(#p3a3fb1482c)">
     <use xlink:href="#m8acb01b976" x="255.336215" y="38.3225" style="fill: #d95f02; stroke: #d95f02"/>
    </g>
   </g>
   <g id="line2d_30">
    <g clip-path="url(#p3a3fb1482c)">
     <use xlink:href="#m8acb01b976" x="485.872757" y="38.3225" style="fill: #d95f02; stroke: #d95f02"/>
    </g>
   </g>
   <g id="line2d_31">
    <path d="M 164.545458 297.305 
L 164.545458 25.99 
" clip-path="url(#p3a3fb1482c)" style="fill: none; stroke-dasharray: 4.44,1.92; stroke-dashoffset: 0; stroke: #1f2937; stroke-width: 1.2"/>
   </g>
   <g id="line2d_32">
    <defs>
     <path id="m4933a71cee" d="M 0 4 
C 1.060812 4 2.078319 3.578535 2.828427 2.828427 
C 3.578535 2.078319 4 1.060812 4 0 
C 4 -1.060812 3.578535 -2.078319 2.828427 -2.828427 
C 2.078319 -3.578535 1.060812 -4 0 -4 
C -1.060812 -4 -2.078319 -3.578535 -2.828427 -2.828427 
C -3.578535 -2.078319 -4 -1.060812 -4 0 
C -4 1.060812 -3.578535 2.078319 -2.828427 2.828427 
C -2.078319 3.578535 -1.060812 4 0 4 
z
" style="stroke: #375a7f"/>
    </defs>
    <g clip-path="url(#p3a3fb1482c)">
     <use xlink:href="#m4933a71cee" x="334.958675" y="284.9725" style="fill: #375a7f; stroke: #375a7f"/>
    </g>
   </g>
   <g id="line2d_33">
    <defs>
     <path id="m059de002ae" d="M 0 4 
C 1.060812 4 2.078319 3.578535 2.828427 2.828427 
C 3.578535 2.078319 4 1.060812 4 0 
C 4 -1.060812 3.578535 -2.078319 2.828427 -2.828427 
C 2.078319 -3.578535 1.060812 -4 0 -4 
C -1.060812 -4 -2.078319 -3.578535 -2.828427 -2.828427 
C -3.578535 -2.078319 -4 -1.060812 -4 0 
C -4 1.060812 -3.578535 2.078319 -2.828427 2.828427 
C -2.078319 3.578535 -1.060812 4 0 4 
z
" style="stroke: #00a6a6"/>
    </defs>
    <g clip-path="url(#p3a3fb1482c)">
     <use xlink:href="#m059de002ae" x="339.700823" y="202.755833" style="fill: #00a6a6; stroke: #00a6a6"/>
    </g>
   </g>
   <g id="line2d_34">
    <defs>
     <path id="mf55c52a083" d="M 0 4 
C 1.060812 4 2.078319 3.578535 2.828427 2.828427 
C 3.578535 2.078319 4 1.060812 4 0 
C 4 -1.060812 3.578535 -2.078319 2.828427 -2.828427 
C 2.078319 -3.578535 1.060812 -4 0 -4 
C -1.060812 -4 -2.078319 -3.578535 -2.828427 -2.828427 
C -3.578535 -2.078319 -4 -1.060812 -4 0 
C -4 1.060812 -3.578535 2.078319 -2.828427 2.828427 
C -2.078319 3.578535 -1.060812 4 0 4 
z
" style="stroke: #6a994e"/>
    </defs>
    <g clip-path="url(#p3a3fb1482c)">
     <use xlink:href="#mf55c52a083" x="345.754846" y="120.539167" style="fill: #6a994e; stroke: #6a994e"/>
    </g>
   </g>
   <g id="line2d_35">
    <defs>
     <path id="mf718e51859" d="M 0 4 
C 1.060812 4 2.078319 3.578535 2.828427 2.828427 
C 3.578535 2.078319 4 1.060812 4 0 
C 4 -1.060812 3.578535 -2.078319 2.828427 -2.828427 
C 2.078319 -3.578535 1.060812 -4 0 -4 
C -1.060812 -4 -2.078319 -3.578535 -2.828427 -2.828427 
C -3.578535 -2.078319 -4 -1.060812 -4 0 
C -4 1.060812 -3.578535 2.078319 -2.828427 2.828427 
C -2.078319 3.578535 -1.060812 4 0 4 
z
" style="stroke: #d95f02"/>
    </defs>
    <g clip-path="url(#p3a3fb1482c)">
     <use xlink:href="#mf718e51859" x="370.604486" y="38.3225" style="fill: #d95f02; stroke: #d95f02"/>
    </g>
   </g>
   <g id="patch_3">
    <path d="M 146.492188 297.305 
L 648.352188 297.305 
" style="fill: none; stroke: #cbd5e1; stroke-width: 0.8; stroke-linejoin: miter; stroke-linecap: square"/>
   </g>
   <g id="text_13">
    <!-- 0.472 [0.278, 0.666] *** -->
    <g style="fill: #334e68" transform="translate(417.654221 287.726406)scale(0.1 -0.1)">
     <defs>
      <path id="MicrosoftYaHei-37" d="M 3422 4463 
Q 2659 3131 2223 1998 
Q 1788 866 1684 0 
L 1047 0 
Q 1163 853 1594 1947 
Q 2025 3041 2747 4300 
L 347 4300 
L 347 4841 
L 3422 4841 
L 3422 4463 
z
" transform="scale(0.015625)"/>
      <path id="MicrosoftYaHei-5b" d="M 1959 -1100 
L 681 -1100 
L 681 4841 
L 1959 4841 
L 1959 4406 
L 1219 4406 
L 1219 -669 
L 1959 -669 
L 1959 -1100 
z
" transform="scale(0.015625)"/>
      <path id="MicrosoftYaHei-2c" d="M 1109 778 
L 575 -888 
L 131 -888 
L 519 778 
L 1109 778 
z
" transform="scale(0.015625)"/>
      <path id="MicrosoftYaHei-5d" d="M 1466 -1100 
L 184 -1100 
L 184 -669 
L 928 -669 
L 928 4406 
L 184 4406 
L 184 4841 
L 1466 4841 
L 1466 -1100 
z
" transform="scale(0.015625)"/>
      <path id="MicrosoftYaHei-2a" d="M 2663 3706 
L 1738 3525 
L 2384 2716 
L 1984 2441 
L 1466 3334 
L 941 2441 
L 541 2716 
L 1184 3525 
L 253 3706 
L 416 4156 
L 1297 3819 
L 1213 4841 
L 1716 4841 
L 1628 3819 
L 2509 4156 
L 2663 3706 
z
" transform="scale(0.015625)"/>
     </defs>
     <use xlink:href="#MicrosoftYaHei-30"/>
     <use xlink:href="#MicrosoftYaHei-2e" x="58.642578"/>
     <use xlink:href="#MicrosoftYaHei-34" x="82.714844"/>
     <use xlink:href="#MicrosoftYaHei-37" x="141.357422"/>
     <use xlink:href="#MicrosoftYaHei-32" x="200"/>
     <use xlink:href="#MicrosoftYaHei-20" x="258.642578"/>
     <use xlink:href="#MicrosoftYaHei-5b" x="288.232422"/>
     <use xlink:href="#MicrosoftYaHei-30" x="321.630859"/>
     <use xlink:href="#MicrosoftYaHei-2e" x="380.273438"/>
     <use xlink:href="#MicrosoftYaHei-32" x="404.345703"/>
     <use xlink:href="#MicrosoftYaHei-37" x="462.988281"/>
     <use xlink:href="#MicrosoftYaHei-38" x="521.630859"/>
     <use xlink:href="#MicrosoftYaHei-2c" x="580.273438"/>
     <use xlink:href="#MicrosoftYaHei-20" x="604.345703"/>
     <use xlink:href="#MicrosoftYaHei-30" x="633.935547"/>
     <use xlink:href="#MicrosoftYaHei-2e" x="692.578125"/>
     <use xlink:href="#MicrosoftYaHei-36" x="716.650391"/>
     <use xlink:href="#MicrosoftYaHei-36" x="775.292969"/>
     <use xlink:href="#MicrosoftYaHei-36" x="833.935547"/>
     <use xlink:href="#MicrosoftYaHei-5d" x="892.578125"/>
     <use xlink:href="#MicrosoftYaHei-20" x="925.976562"/>
     <use xlink:href="#MicrosoftYaHei-2a" x="955.566406"/>
     <use xlink:href="#MicrosoftYaHei-2a" x="1001.074219"/>
     <use xlink:href="#MicrosoftYaHei-2a" x="1046.582031"/>
    </g>
   </g>
   <g id="text_14">
    <!-- 0.485 [0.254, 0.717] *** -->
    <g style="fill: #334e68" transform="translate(435.928567 205.50974)scale(0.1 -0.1)">
     <defs>
      <path id="MicrosoftYaHei-35" d="M 3294 1494 
Q 3294 784 2823 350 
Q 2353 -84 1559 -84 
Q 878 -84 544 119 
L 544 744 
Q 1034 425 1544 425 
Q 2050 425 2361 704 
Q 2672 984 2672 1447 
Q 2672 1909 2348 2167 
Q 2025 2425 1434 2425 
Q 978 2425 613 2384 
L 791 4841 
L 3053 4841 
L 3053 4303 
L 1306 4303 
L 1206 2931 
L 1647 2950 
Q 2416 2950 2855 2567 
Q 3294 2184 3294 1494 
z
" transform="scale(0.015625)"/>
     </defs>
     <use xlink:href="#MicrosoftYaHei-30"/>
     <use xlink:href="#MicrosoftYaHei-2e" x="58.642578"/>
     <use xlink:href="#MicrosoftYaHei-34" x="82.714844"/>
     <use xlink:href="#MicrosoftYaHei-38" x="141.357422"/>
     <use xlink:href="#MicrosoftYaHei-35" x="200"/>
     <use xlink:href="#MicrosoftYaHei-20" x="258.642578"/>
     <use xlink:href="#MicrosoftYaHei-5b" x="288.232422"/>
     <use xlink:href="#MicrosoftYaHei-30" x="321.630859"/>
     <use xlink:href="#MicrosoftYaHei-2e" x="380.273438"/>
     <use xlink:href="#MicrosoftYaHei-32" x="404.345703"/>
     <use xlink:href="#MicrosoftYaHei-35" x="462.988281"/>
     <use xlink:href="#MicrosoftYaHei-34" x="521.630859"/>
     <use xlink:href="#MicrosoftYaHei-2c" x="580.273438"/>
     <use xlink:href="#MicrosoftYaHei-20" x="604.345703"/>
     <use xlink:href="#MicrosoftYaHei-30" x="633.935547"/>
     <use xlink:href="#MicrosoftYaHei-2e" x="692.578125"/>
     <use xlink:href="#MicrosoftYaHei-37" x="716.650391"/>
     <use xlink:href="#MicrosoftYaHei-31" x="775.292969"/>
     <use xlink:href="#MicrosoftYaHei-37" x="833.935547"/>
     <use xlink:href="#MicrosoftYaHei-5d" x="892.578125"/>
     <use xlink:href="#MicrosoftYaHei-20" x="925.976562"/>
     <use xlink:href="#MicrosoftYaHei-2a" x="955.566406"/>
     <use xlink:href="#MicrosoftYaHei-2a" x="1001.074219"/>
     <use xlink:href="#MicrosoftYaHei-2a" x="1046.582031"/>
    </g>
   </g>
   <g id="text_15">
    <!-- 0.502 [0.280, 0.724] *** -->
    <g style="fill: #334e68" transform="translate(438.549935 123.293073)scale(0.1 -0.1)">
     <use xlink:href="#MicrosoftYaHei-30"/>
     <use xlink:href="#MicrosoftYaHei-2e" x="58.642578"/>
     <use xlink:href="#MicrosoftYaHei-35" x="82.714844"/>
     <use xlink:href="#MicrosoftYaHei-30" x="141.357422"/>
     <use xlink:href="#MicrosoftYaHei-32" x="200"/>
     <use xlink:href="#MicrosoftYaHei-20" x="258.642578"/>
     <use xlink:href="#MicrosoftYaHei-5b" x="288.232422"/>
     <use xlink:href="#MicrosoftYaHei-30" x="321.630859"/>
     <use xlink:href="#MicrosoftYaHei-2e" x="380.273438"/>
     <use xlink:href="#MicrosoftYaHei-32" x="404.345703"/>
     <use xlink:href="#MicrosoftYaHei-38" x="462.988281"/>
     <use xlink:href="#MicrosoftYaHei-30" x="521.630859"/>
     <use xlink:href="#MicrosoftYaHei-2c" x="580.273438"/>
     <use xlink:href="#MicrosoftYaHei-20" x="604.345703"/>
     <use xlink:href="#MicrosoftYaHei-30" x="633.935547"/>
     <use xlink:href="#MicrosoftYaHei-2e" x="692.578125"/>
     <use xlink:href="#MicrosoftYaHei-37" x="716.650391"/>
     <use xlink:href="#MicrosoftYaHei-32" x="775.292969"/>
     <use xlink:href="#MicrosoftYaHei-34" x="833.935547"/>
     <use xlink:href="#MicrosoftYaHei-5d" x="892.578125"/>
     <use xlink:href="#MicrosoftYaHei-20" x="925.976562"/>
     <use xlink:href="#MicrosoftYaHei-2a" x="955.566406"/>
     <use xlink:href="#MicrosoftYaHei-2a" x="1001.074219"/>
     <use xlink:href="#MicrosoftYaHei-2a" x="1046.582031"/>
    </g>
   </g>
   <g id="text_16">
    <!-- 0.571 [0.251, 0.890] *** -->
    <g style="fill: #334e68" transform="translate(498.510046 41.076406)scale(0.1 -0.1)">
     <defs>
      <path id="MicrosoftYaHei-39" d="M 578 656 
Q 978 425 1441 425 
Q 2091 425 2448 937 
Q 2806 1450 2806 2394 
Q 2800 2388 2794 2394 
Q 2475 1788 1722 1788 
Q 1113 1788 713 2206 
Q 313 2625 313 3294 
Q 313 4006 750 4464 
Q 1188 4922 1884 4922 
Q 2606 4922 3012 4355 
Q 3419 3788 3419 2703 
Q 3419 1363 2894 641 
Q 2369 -81 1441 -81 
Q 931 -81 578 84 
L 578 656 
z
M 931 3372 
Q 931 2884 1181 2598 
Q 1431 2313 1872 2313 
Q 2253 2313 2512 2573 
Q 2772 2834 2772 3206 
Q 2772 3728 2514 4070 
Q 2256 4413 1834 4413 
Q 1444 4413 1187 4116 
Q 931 3819 931 3372 
z
" transform="scale(0.015625)"/>
     </defs>
     <use xlink:href="#MicrosoftYaHei-30"/>
     <use xlink:href="#MicrosoftYaHei-2e" x="58.642578"/>
     <use xlink:href="#MicrosoftYaHei-35" x="82.714844"/>
     <use xlink:href="#MicrosoftYaHei-37" x="141.357422"/>
     <use xlink:href="#MicrosoftYaHei-31" x="200"/>
     <use xlink:href="#MicrosoftYaHei-20" x="258.642578"/>
     <use xlink:href="#MicrosoftYaHei-5b" x="288.232422"/>
     <use xlink:href="#MicrosoftYaHei-30" x="321.630859"/>
     <use xlink:href="#MicrosoftYaHei-2e" x="380.273438"/>
     <use xlink:href="#MicrosoftYaHei-32" x="404.345703"/>
     <use xlink:href="#MicrosoftYaHei-35" x="462.988281"/>
     <use xlink:href="#MicrosoftYaHei-31" x="521.630859"/>
     <use xlink:href="#MicrosoftYaHei-2c" x="580.273438"/>
     <use xlink:href="#MicrosoftYaHei-20" x="604.345703"/>
     <use xlink:href="#MicrosoftYaHei-30" x="633.935547"/>
     <use xlink:href="#MicrosoftYaHei-2e" x="692.578125"/>
     <use xlink:href="#MicrosoftYaHei-38" x="716.650391"/>
     <use xlink:href="#MicrosoftYaHei-39" x="775.292969"/>
     <use xlink:href="#MicrosoftYaHei-30" x="833.935547"/>
     <use xlink:href="#MicrosoftYaHei-5d" x="892.578125"/>
     <use xlink:href="#MicrosoftYaHei-20" x="925.976562"/>
     <use xlink:href="#MicrosoftYaHei-2a" x="955.566406"/>
     <use xlink:href="#MicrosoftYaHei-2a" x="1001.074219"/>
     <use xlink:href="#MicrosoftYaHei-2a" x="1046.582031"/>
    </g>
   </g>
   <g id="text_17">
    <!-- 同一 PLR-DML 框架下更换 nuisance learner；线段为 95% 置信区间，标准误按省份聚类。 -->
    <g style="fill: #52616b" transform="translate(146.492188 17.85055)scale(0.1 -0.1)">
     <defs>
      <path id="MicrosoftYaHei-540c" d="M 1013 -772 
L 531 -772 
L 531 4959 
L 5856 4959 
L 5856 -47 
Q 5856 -741 5125 -741 
Q 4669 -741 4088 -716 
Q 4056 -497 4000 -216 
Q 4619 -272 5025 -272 
Q 5375 -272 5375 78 
L 5375 4497 
L 1013 4497 
L 1013 -772 
z
M 1875 2566 
L 4506 2566 
L 4506 597 
L 2338 597 
L 2338 272 
L 1875 272 
L 1875 2566 
z
M 4044 2116 
L 2338 2116 
L 2338 1047 
L 4044 1047 
L 4044 2116 
z
M 1363 3734 
L 5025 3734 
L 5025 3284 
L 1363 3284 
L 1363 3734 
z
" transform="scale(0.015625)"/>
      <path id="MicrosoftYaHei-4e00" d="M 100 2703 
L 6313 2703 
L 6313 2153 
L 100 2153 
L 100 2703 
z
" transform="scale(0.015625)"/>
      <path id="MicrosoftYaHei-6846" d="M 2475 4941 
L 6163 4941 
L 6163 4491 
L 2944 4491 
L 2944 -122 
L 6250 -122 
L 6250 -572 
L 2475 -572 
L 2475 4941 
z
M 88 1403 
Q 747 2447 1028 3666 
L 131 3666 
L 131 4103 
L 1031 4103 
L 1031 5322 
L 1494 5322 
L 1494 4103 
L 2275 4103 
L 2275 3666 
L 1494 3666 
L 1494 2669 
L 1769 2922 
Q 2038 2647 2419 2203 
L 2075 1884 
Q 1819 2228 1494 2603 
L 1494 -841 
L 1031 -841 
L 1031 2506 
Q 709 1456 288 853 
Q 206 1122 88 1403 
z
M 3156 1078 
L 4425 1078 
L 4425 2041 
L 3425 2041 
L 3425 2466 
L 4425 2466 
L 4425 3366 
L 3313 3366 
L 3313 3791 
L 6025 3791 
L 6025 3366 
L 4888 3366 
L 4888 2466 
L 5888 2466 
L 5888 2041 
L 4888 2041 
L 4888 1078 
L 6156 1078 
L 6156 653 
L 3156 653 
L 3156 1078 
z
" transform="scale(0.015625)"/>
      <path id="MicrosoftYaHei-67b6" d="M 6313 -91 
Q 6081 -347 5925 -566 
Q 4369 -34 3438 1094 
L 3438 -859 
L 2963 -859 
L 2963 1103 
Q 1913 -41 450 -641 
Q 306 -453 88 -216 
Q 1509 269 2606 1209 
L 200 1209 
L 200 1647 
L 2963 1647 
L 2963 2347 
L 3438 2347 
L 3438 1647 
L 6231 1647 
L 6231 1209 
L 3772 1209 
Q 4781 231 6313 -91 
z
M 3588 4797 
L 5863 4797 
L 5863 2334 
L 5400 2334 
L 5400 2653 
L 4050 2653 
L 4050 2316 
L 3588 2316 
L 3588 4797 
z
M 281 4628 
L 1181 4628 
Q 1200 4953 1200 5347 
L 1663 5347 
Q 1663 4956 1647 4628 
L 3050 4628 
Q 3019 3766 2981 3234 
Q 2944 2666 2763 2472 
Q 2600 2278 2138 2278 
Q 1950 2278 1650 2284 
Q 1606 2534 1544 2753 
Q 1913 2716 2113 2716 
Q 2475 2716 2506 3109 
Q 2556 3728 2575 4203 
L 1616 4203 
Q 1563 2891 444 1972 
Q 300 2141 81 2316 
Q 1050 3041 1144 4203 
L 281 4203 
L 281 4628 
z
M 5400 4372 
L 4050 4372 
L 4050 3078 
L 5400 3078 
L 5400 4372 
z
" transform="scale(0.015625)"/>
      <path id="MicrosoftYaHei-4e0b" d="M 163 4803 
L 6238 4803 
L 6238 4291 
L 3200 4291 
L 3200 2928 
L 3488 3328 
Q 4919 2484 5888 1809 
L 5519 1303 
Q 4550 2047 3200 2872 
L 3200 -797 
L 2631 -797 
L 2631 4291 
L 163 4291 
L 163 4803 
z
" transform="scale(0.015625)"/>
      <path id="MicrosoftYaHei-66f4" d="M 106 -422 
Q 1250 -231 1950 166 
Q 1416 534 981 1134 
L 1309 1384 
L 825 1384 
L 825 4003 
L 3019 4003 
Q 3022 4272 3025 4578 
L 331 4578 
L 331 5016 
L 6069 5016 
L 6069 4578 
L 3506 4578 
Q 3506 4269 3503 4003 
L 5575 4003 
L 5575 1078 
L 5100 1078 
L 5100 1384 
L 3350 1384 
Q 3188 644 2834 244 
Q 4088 -216 6325 -209 
Q 6169 -484 6069 -709 
Q 3588 -641 2422 -100 
Q 1703 -575 394 -866 
Q 269 -647 106 -422 
z
M 1300 2903 
L 3006 2903 
Q 3013 3203 3016 3578 
L 1300 3578 
L 1300 2903 
z
M 3000 2484 
L 1300 2484 
L 1300 1809 
L 2947 1809 
Q 2988 2116 3000 2484 
z
M 3422 1809 
L 5100 1809 
L 5100 2484 
L 3481 2484 
Q 3466 2122 3422 1809 
z
M 5100 3578 
L 3500 3578 
Q 3497 3200 3491 2903 
L 5100 2903 
L 5100 3578 
z
M 2369 453 
Q 2706 744 2866 1384 
L 1334 1384 
Q 1766 784 2369 453 
z
" transform="scale(0.015625)"/>
      <path id="MicrosoftYaHei-6362" d="M 1856 1503 
L 2400 1503 
L 2400 3194 
Q 2247 3316 2038 3472 
Q 2863 4328 3350 5353 
L 3856 5266 
Q 3706 4966 3538 4684 
L 5425 4684 
L 5425 4266 
Q 5188 3969 4688 3391 
L 5806 3391 
L 5806 1503 
L 6313 1503 
L 6313 1072 
L 4372 1072 
Q 4869 -13 6281 -303 
Q 6050 -578 5906 -809 
Q 4619 -378 4084 747 
Q 3738 -222 2000 -859 
Q 1863 -634 1650 -403 
Q 3450 128 3716 1072 
L 1856 1072 
L 1856 1503 
z
M 88 2003 
Q 459 2113 875 2250 
L 875 3697 
L 144 3697 
L 144 4122 
L 875 4122 
L 875 5284 
L 1350 5284 
L 1350 4122 
L 2056 4122 
L 2056 3697 
L 1350 3697 
L 1350 2416 
Q 1663 2525 2000 2653 
Q 2006 2347 2013 2159 
Q 1956 2141 1350 1916 
L 1350 -97 
Q 1350 -734 775 -759 
Q 500 -772 156 -766 
Q 119 -503 75 -247 
Q 419 -284 650 -284 
Q 875 -284 875 -22 
L 875 1744 
Q 563 1628 156 1478 
L 88 2003 
z
M 5363 2959 
L 4313 2959 
Q 4313 2166 4272 1503 
L 5363 1503 
L 5363 2959 
z
M 2844 1503 
L 3819 1503 
Q 3875 1816 3869 2959 
L 2844 2959 
L 2844 1503 
z
M 4850 4253 
L 3266 4253 
Q 2956 3797 2600 3391 
L 4150 3391 
Q 4575 3900 4850 4253 
z
" transform="scale(0.015625)"/>
      <path id="MicrosoftYaHei-75" d="M 3400 0 
L 2784 0 
L 2784 544 
L 2772 544 
Q 2425 -81 1706 -81 
Q 478 -81 478 1388 
L 478 3456 
L 1084 3456 
L 1084 1478 
Q 1084 425 1891 425 
Q 2291 425 2537 720 
Q 2784 1016 2784 1466 
L 2784 3456 
L 3400 3456 
L 3400 0 
z
" transform="scale(0.015625)"/>
      <path id="MicrosoftYaHei-6c" d="M 544 0 
L 544 5116 
L 1156 5116 
L 1156 0 
L 544 0 
z
" transform="scale(0.015625)"/>
      <path id="MicrosoftYaHei-ff1b" d="M 1606 3531 
Q 1772 3531 1890 3415 
Q 2009 3300 2009 3138 
Q 2009 2975 1893 2858 
Q 1778 2741 1606 2741 
Q 1434 2741 1318 2858 
Q 1203 2975 1203 3138 
Q 1203 3300 1322 3415 
Q 1441 3531 1606 3531 
z
M 1931 775 
L 1403 -891 
L 966 -891 
L 1350 775 
L 1931 775 
z
" transform="scale(0.015625)"/>
      <path id="MicrosoftYaHei-7ebf" d="M 1969 -347 
Q 3144 75 4003 631 
Q 3781 1197 3653 1972 
L 2319 1784 
L 2244 2234 
L 3591 2422 
Q 3538 2859 3513 3356 
L 2381 3228 
L 2306 3678 
L 3488 3809 
Q 3453 4459 3425 5303 
L 3938 5303 
Q 3953 4497 3978 3866 
L 6069 4103 
L 6125 3659 
L 3997 3413 
Q 4019 2919 4069 2488 
L 6225 2791 
L 6281 2347 
L 4128 2041 
Q 4234 1394 4416 916 
Q 5078 1416 5519 2009 
L 5925 1703 
Q 5363 1025 4619 475 
Q 4859 44 5194 -184 
Q 5606 -428 5725 66 
Q 5806 466 5856 953 
Q 6144 828 6338 772 
Q 6231 97 6125 -247 
Q 5944 -778 5506 -778 
Q 5050 -778 4663 -403 
Q 4409 -163 4209 194 
Q 3350 -363 2281 -772 
Q 2169 -597 1969 -347 
z
M 900 1541 
Q 1456 1622 2213 1753 
Q 2175 1522 2156 1272 
Q 1113 1109 325 978 
L 225 1447 
Q 659 1913 1178 2775 
Q 672 2747 225 2703 
L 106 3128 
Q 688 3922 1300 5353 
L 1775 5166 
Q 1131 3897 669 3166 
Q 1041 3178 1422 3194 
Q 1638 3578 1869 4028 
L 2331 3797 
Q 1569 2478 900 1541 
z
M 106 97 
Q 1206 334 2331 616 
Q 2313 366 2313 141 
Q 1269 -103 244 -378 
L 106 97 
z
M 4463 4972 
L 4731 5284 
Q 5175 5003 5681 4609 
L 5381 4247 
Q 4863 4691 4463 4972 
z
" transform="scale(0.015625)"/>
      <path id="MicrosoftYaHei-6bb5" d="M 2844 1978 
L 2844 2422 
L 5763 2422 
L 5763 1953 
Q 5397 1069 4731 416 
Q 5378 -63 6338 -266 
Q 6144 -516 6019 -747 
Q 5031 -456 4359 88 
Q 3638 -488 2631 -853 
Q 2450 -559 2331 -422 
Q 3313 -75 3997 428 
Q 3400 1069 3138 1978 
L 2844 1978 
z
M 88 722 
Q 325 744 569 769 
L 569 4897 
Q 1931 4972 2719 5116 
L 2888 4653 
Q 2175 4559 1031 4484 
L 1031 3616 
L 2613 3616 
L 2613 3203 
L 1031 3203 
L 1031 2259 
L 2594 2259 
L 2594 1847 
L 1031 1847 
L 1031 819 
Q 1891 916 2838 1041 
Q 2831 916 2831 591 
Q 1894 484 1031 366 
L 1031 -816 
L 569 -816 
L 569 303 
Q 381 275 200 247 
L 88 722 
z
M 5738 3209 
Q 5981 3209 6306 3228 
L 6219 2759 
Q 5906 2747 5625 2747 
Q 4988 2747 4988 3459 
L 4988 4553 
L 3831 4553 
L 3831 4216 
Q 3831 3053 2938 2522 
Q 2781 2709 2600 2909 
Q 3363 3272 3363 4241 
L 3363 4997 
L 5456 4997 
L 5456 3497 
Q 5456 3209 5738 3209 
z
M 5256 1978 
L 3613 1978 
Q 3863 1241 4363 731 
Q 4956 1275 5256 1978 
z
" transform="scale(0.015625)"/>
      <path id="MicrosoftYaHei-4e3a" d="M 356 3684 
L 2703 3684 
Q 2794 4450 2794 5341 
L 3331 5341 
Q 3331 4413 3244 3684 
L 5900 3684 
Q 5863 1753 5788 497 
Q 5725 -672 4550 -672 
Q 4063 -672 3394 -641 
Q 3369 -397 3300 -59 
Q 3888 -141 4456 -141 
Q 5206 -141 5244 597 
Q 5331 1822 5356 3197 
L 3175 3197 
Q 2716 441 606 -903 
Q 431 -684 225 -441 
Q 2169 706 2628 3197 
L 356 3197 
L 356 3684 
z
M 3325 2072 
L 3669 2378 
Q 4269 1822 4756 1284 
L 4369 934 
Q 3888 1503 3325 2072 
z
M 800 4922 
L 1138 5234 
Q 1656 4784 2138 4309 
L 1756 3953 
Q 1294 4459 800 4922 
z
" transform="scale(0.015625)"/>
      <path id="MicrosoftYaHei-25" d="M 272 3619 
Q 272 4213 589 4563 
Q 906 4913 1444 4913 
Q 1959 4913 2248 4591 
Q 2538 4269 2538 3694 
Q 2538 3122 2219 2765 
Q 1900 2409 1372 2409 
Q 872 2409 572 2740 
Q 272 3072 272 3619 
z
M 753 3650 
Q 753 3247 928 3028 
Q 1103 2809 1406 2809 
Q 1719 2809 1889 3036 
Q 2059 3263 2059 3675 
Q 2059 4078 1892 4298 
Q 1725 4519 1422 4519 
Q 1113 4519 933 4289 
Q 753 4059 753 3650 
z
M 4647 4841 
L 1538 -31 
L 1016 -31 
L 4125 4841 
L 4647 4841 
z
M 3172 1134 
Q 3172 1728 3489 2083 
Q 3806 2438 4341 2438 
Q 4853 2438 5143 2114 
Q 5434 1791 5434 1203 
Q 5434 634 5112 279 
Q 4791 -75 4272 -75 
Q 3769 -75 3470 261 
Q 3172 597 3172 1134 
z
M 3650 1163 
Q 3650 769 3825 548 
Q 4000 328 4303 328 
Q 4616 328 4786 556 
Q 4956 784 4956 1194 
Q 4956 1600 4786 1815 
Q 4616 2031 4319 2031 
Q 4000 2031 3825 1801 
Q 3650 1572 3650 1163 
z
" transform="scale(0.015625)"/>
      <path id="MicrosoftYaHei-7f6e" d="M 94 -284 
L 1025 -284 
L 1025 2609 
L 2938 2609 
L 2938 3016 
L 244 3016 
L 244 3366 
L 2938 3366 
L 2938 3697 
L 3388 3697 
L 3388 3366 
L 6150 3366 
L 6150 3016 
L 3388 3016 
L 3388 2609 
L 5431 2609 
L 5431 -284 
L 6294 -284 
L 6294 -647 
L 94 -647 
L 94 -284 
z
M 638 5034 
L 5756 5034 
L 5756 3641 
L 5331 3641 
L 5331 3784 
L 1069 3784 
L 1069 3641 
L 638 3641 
L 638 5034 
z
M 1463 -284 
L 4994 -284 
L 4994 116 
L 1463 116 
L 1463 -284 
z
M 1463 441 
L 4994 441 
L 4994 834 
L 1463 834 
L 1463 441 
z
M 1463 1159 
L 4994 1159 
L 4994 1553 
L 1463 1553 
L 1463 1159 
z
M 4994 2272 
L 1463 2272 
L 1463 1878 
L 4994 1878 
L 4994 2272 
z
M 5331 4697 
L 4181 4697 
L 4181 4122 
L 5331 4122 
L 5331 4697 
z
M 2625 4122 
L 3769 4122 
L 3769 4697 
L 2625 4697 
L 2625 4122 
z
M 1069 4122 
L 2213 4122 
L 2213 4697 
L 1069 4697 
L 1069 4122 
z
" transform="scale(0.015625)"/>
      <path id="MicrosoftYaHei-4fe1" d="M 2300 1434 
L 5856 1434 
L 5856 -853 
L 5375 -853 
L 5375 -478 
L 2781 -478 
L 2781 -853 
L 2300 -853 
L 2300 1434 
z
M 81 2303 
Q 1000 3666 1463 5316 
L 1950 5178 
Q 1678 4338 1356 3628 
L 1356 -853 
L 894 -853 
L 894 2713 
Q 606 2209 288 1791 
Q 188 2053 81 2303 
z
M 5375 1009 
L 2781 1009 
L 2781 -53 
L 5375 -53 
L 5375 1009 
z
M 1888 4472 
L 3928 4472 
Q 3741 4794 3538 5109 
L 3956 5328 
Q 4181 4991 4400 4616 
L 4128 4472 
L 6288 4472 
L 6288 4034 
L 1888 4034 
L 1888 4472 
z
M 2231 3453 
L 5919 3453 
L 5919 3028 
L 2231 3028 
L 2231 3453 
z
M 2231 2447 
L 5919 2447 
L 5919 2022 
L 2231 2022 
L 2231 2447 
z
" transform="scale(0.015625)"/>
      <path id="MicrosoftYaHei-533a" d="M 600 4872 
L 5975 4872 
L 5975 4384 
L 1131 4384 
L 1131 22 
L 6075 22 
L 6075 -453 
L 600 -453 
L 600 4872 
z
M 1613 3697 
L 1963 4028 
Q 2744 3384 3597 2616 
Q 4250 3322 4850 4153 
L 5306 3847 
Q 4650 2997 3975 2272 
Q 4753 1563 5588 753 
L 5156 316 
Q 4400 1106 3600 1878 
Q 2697 963 1763 266 
Q 1613 459 1363 672 
Q 2344 1341 3228 2231 
Q 2444 2972 1613 3697 
z
" transform="scale(0.015625)"/>
      <path id="MicrosoftYaHei-95f4" d="M 1863 3647 
L 4513 3647 
L 4513 553 
L 2313 553 
L 2313 166 
L 1863 166 
L 1863 3647 
z
M 2388 4453 
L 2388 4922 
L 6013 4922 
L 6013 -28 
Q 6013 -816 5119 -816 
Q 4756 -816 4169 -803 
Q 4144 -616 4069 -297 
Q 4588 -334 5056 -334 
Q 5525 -334 5525 122 
L 5525 4453 
L 2388 4453 
z
M 419 4084 
L 906 4084 
L 906 -816 
L 419 -816 
L 419 4084 
z
M 2313 997 
L 4063 997 
L 4063 1884 
L 2313 1884 
L 2313 997 
z
M 4063 3203 
L 2313 3203 
L 2313 2328 
L 4063 2328 
L 4063 3203 
z
M 744 5003 
L 1100 5322 
Q 1575 4872 1981 4447 
L 1575 4091 
Q 1194 4541 744 5003 
z
" transform="scale(0.015625)"/>
      <path id="MicrosoftYaHei-ff0c" d="M 1931 775 
L 1403 -891 
L 966 -891 
L 1350 775 
L 1931 775 
z
" transform="scale(0.015625)"/>
      <path id="MicrosoftYaHei-6807" d="M 75 1409 
Q 769 2478 1025 3647 
L 119 3647 
L 119 4072 
L 1069 4072 
L 1069 5297 
L 1506 5297 
L 1506 4072 
L 2356 4072 
L 2356 3647 
L 1506 3647 
L 1506 2541 
L 1775 2822 
Q 2175 2478 2481 2159 
L 2150 1816 
Q 1850 2156 1506 2503 
L 1506 -797 
L 1069 -797 
L 1069 2588 
Q 738 1513 281 859 
Q 194 1128 75 1409 
z
M 2350 3097 
L 6250 3097 
L 6250 2659 
L 4525 2659 
L 4525 47 
Q 4525 -734 3806 -734 
Q 3469 -741 2975 -728 
Q 2944 -503 2888 -209 
Q 3319 -259 3675 -259 
Q 4050 -259 4050 203 
L 4050 2659 
L 2350 2659 
L 2350 3097 
z
M 2638 4928 
L 5963 4928 
L 5963 4491 
L 2638 4491 
L 2638 4928 
z
M 4938 1853 
L 5381 2066 
Q 5975 928 6369 72 
L 5869 -147 
Q 5463 822 4938 1853 
z
M 2931 2066 
L 3400 1878 
Q 2888 734 2381 -153 
Q 2188 -41 1925 66 
Q 2425 872 2931 2066 
z
" transform="scale(0.015625)"/>
      <path id="MicrosoftYaHei-51c6" d="M 1413 2766 
Q 2313 3866 2869 5334 
L 3331 5172 
Q 3128 4694 2906 4253 
L 6194 4253 
L 6194 3822 
L 4675 3822 
L 4675 2891 
L 6025 2891 
L 6025 2459 
L 4675 2459 
L 4675 1528 
L 6038 1528 
L 6038 1097 
L 4675 1097 
L 4675 78 
L 6275 78 
L 6275 -341 
L 2769 -341 
L 2769 -841 
L 2281 -841 
L 2281 3131 
Q 2034 2738 1769 2384 
Q 1631 2578 1413 2766 
z
M 2769 78 
L 4188 78 
L 4188 1097 
L 2769 1097 
L 2769 78 
z
M 1081 2422 
Q 1325 2291 1556 2209 
Q 1113 916 681 -372 
L 169 -141 
Q 650 1003 1081 2422 
z
M 2769 1528 
L 4188 1528 
L 4188 2459 
L 2769 2459 
L 2769 1528 
z
M 2769 2891 
L 4188 2891 
L 4188 3822 
L 2769 3822 
L 2769 2891 
z
M 531 4991 
Q 1050 4384 1581 3709 
Q 1538 3678 1150 3341 
Q 681 3997 138 4672 
L 531 4991 
z
M 3919 5116 
L 4325 5372 
Q 4569 5072 4881 4622 
L 4450 4334 
Q 4156 4784 3919 5116 
z
" transform="scale(0.015625)"/>
      <path id="MicrosoftYaHei-8bef" d="M 1819 1484 
L 3706 1484 
Q 3750 1769 3756 2222 
L 2044 2222 
L 2044 2659 
L 6069 2659 
L 6069 2222 
L 4244 2222 
Q 4234 1753 4203 1484 
L 6288 1484 
L 6288 1047 
L 4356 1047 
Q 4913 -53 6363 -359 
Q 6138 -628 5981 -828 
Q 4538 -406 3984 850 
Q 3569 -272 1969 -847 
Q 1819 -653 1631 -441 
Q 3188 53 3588 1047 
L 1819 1047 
L 1819 1484 
z
M 2325 5034 
L 5750 5034 
L 5750 2991 
L 5275 2991 
L 5275 3272 
L 2800 3272 
L 2800 2991 
L 2325 2991 
L 2325 5034 
z
M 2044 784 
Q 2063 459 2088 247 
Q 1294 -272 925 -584 
L 631 -166 
Q 844 9 844 378 
L 844 2716 
L 100 2716 
L 100 3166 
L 1325 3166 
L 1325 284 
Q 1763 578 2044 784 
z
M 5275 4616 
L 2800 4616 
L 2800 3691 
L 5275 3691 
L 5275 4616 
z
M 831 5153 
Q 1281 4697 1725 4184 
L 1294 3822 
Q 881 4347 450 4822 
L 831 5153 
z
" transform="scale(0.015625)"/>
      <path id="MicrosoftYaHei-6309" d="M 1763 -366 
Q 3172 -25 3822 450 
Q 3184 791 2444 1147 
Q 2713 1622 2959 2153 
L 2194 2153 
L 2194 2603 
L 3159 2603 
Q 3384 3119 3588 3684 
L 4113 3503 
Q 3919 3069 3700 2603 
L 6263 2603 
L 6263 2153 
L 5444 2153 
Q 5219 1191 4650 547 
Q 5494 100 6238 -353 
L 5938 -828 
Q 5253 -338 4288 197 
Q 3566 -394 2013 -834 
Q 1938 -609 1763 -366 
z
M 88 1966 
Q 503 2094 938 2244 
L 938 3641 
L 175 3641 
L 175 4091 
L 938 4091 
L 938 5253 
L 1413 5253 
L 1413 4091 
L 2100 4091 
L 2100 3641 
L 1413 3641 
L 1413 2413 
Q 1691 2513 1975 2622 
Q 1988 2359 2025 2122 
Q 1722 2016 1413 1900 
L 1413 -78 
Q 1413 -753 763 -759 
Q 569 -766 206 -753 
Q 181 -497 131 -234 
Q 431 -272 681 -272 
Q 938 -272 938 28 
L 938 1722 
Q 550 1575 150 1416 
L 88 1966 
z
M 2300 4384 
L 4056 4384 
Q 3884 4734 3663 5122 
L 4113 5347 
Q 4419 4847 4550 4572 
L 4178 4384 
L 6119 4384 
L 6119 3322 
L 5619 3322 
L 5619 3934 
L 2800 3934 
L 2800 3322 
L 2300 3322 
L 2300 4384 
z
M 3088 1328 
Q 3656 1056 4188 784 
Q 4750 1384 4934 2153 
L 3488 2153 
Q 3297 1753 3088 1328 
z
" transform="scale(0.015625)"/>
      <path id="MicrosoftYaHei-7701" d="M 106 2684 
Q 3094 3278 4838 3978 
L 5088 3559 
Q 3838 3091 1928 2628 
L 5588 2628 
L 5588 -791 
L 5125 -791 
L 5125 -516 
L 1613 -516 
L 1613 -803 
L 1150 -803 
L 1150 2444 
Q 728 2350 275 2253 
Q 206 2459 106 2684 
z
M 1613 -91 
L 5125 -91 
L 5125 403 
L 1613 403 
L 1613 -91 
z
M 5125 2203 
L 1613 2203 
L 1613 1716 
L 5125 1716 
L 5125 2203 
z
M 1613 816 
L 5125 816 
L 5125 1303 
L 1613 1303 
L 1613 816 
z
M 2031 4934 
L 2375 4566 
Q 1481 3866 563 3247 
Q 425 3441 269 3653 
Q 1238 4272 2031 4934 
z
M 4206 4572 
L 4463 4941 
Q 5394 4434 6306 3866 
L 6006 3428 
Q 5175 4009 4206 4572 
z
M 2956 5303 
L 3431 5303 
L 3431 3591 
L 2956 3591 
L 2956 5303 
z
" transform="scale(0.015625)"/>
      <path id="MicrosoftYaHei-4efd" d="M 2269 2653 
L 5394 2653 
Q 5388 2566 5300 366 
Q 5275 -709 4319 -722 
Q 3806 -722 3425 -703 
Q 3394 -416 3331 -184 
Q 3763 -241 4200 -253 
Q 4806 -297 4813 422 
Q 4863 1259 4888 2216 
L 3481 2216 
Q 3463 1222 3181 572 
Q 2844 -172 2019 -822 
Q 1856 -622 1656 -416 
Q 2450 203 2713 772 
Q 2969 1275 2997 2216 
L 2269 2216 
L 2269 2653 
z
M 75 2353 
Q 969 3534 1525 5284 
L 2013 5116 
Q 1709 4284 1350 3559 
L 1350 -809 
L 875 -809 
L 875 2691 
Q 588 2216 275 1797 
Q 181 2066 75 2353 
z
M 4006 5116 
L 4419 5291 
Q 5038 3703 6325 2972 
Q 6088 2697 5969 2516 
Q 4575 3472 4006 5116 
z
M 1588 2741 
Q 2563 3597 3163 5034 
L 3606 4866 
Q 3025 3409 1963 2397 
Q 1738 2628 1588 2741 
z
" transform="scale(0.015625)"/>
      <path id="MicrosoftYaHei-805a" d="M 194 5072 
L 3244 5072 
L 3244 4697 
L 2863 4697 
L 2863 2956 
Q 3069 2981 3269 3009 
Q 3256 2772 3256 2622 
Q 3059 2597 2863 2575 
L 2863 2109 
L 2450 2109 
L 2450 2522 
Q 1381 2388 219 2216 
L 144 2641 
Q 400 2666 650 2694 
L 650 4697 
L 194 4697 
L 194 5072 
z
M 5438 1503 
L 5750 1109 
Q 5109 744 4566 456 
Q 5303 -16 6281 -216 
Q 6150 -359 5975 -653 
Q 4319 -225 3400 966 
L 3400 -822 
L 2950 -822 
L 2950 1566 
Q 1850 1503 700 1484 
Q 675 1697 613 1903 
Q 3094 1922 5206 2172 
L 5281 1753 
Q 4359 1656 3400 1591 
L 3400 1575 
Q 3747 1088 4200 722 
Q 4859 1091 5438 1503 
z
M 3331 3984 
L 3588 4291 
Q 4175 3906 4775 3484 
Q 5231 3944 5475 4528 
L 3463 4528 
L 3463 4928 
L 5938 4928 
L 5938 4591 
Q 5713 3819 5141 3222 
Q 5625 2872 6119 2497 
L 5800 2128 
Q 5294 2538 4806 2909 
Q 4250 2447 3456 2109 
Q 3319 2334 3194 2503 
Q 3919 2784 4438 3188 
Q 3872 3609 3331 3984 
z
M 100 -328 
Q 1475 34 2531 697 
L 2781 359 
Q 1613 -334 300 -741 
Q 225 -553 100 -328 
z
M 138 703 
Q 1238 959 2188 1466 
L 2406 1116 
Q 1356 591 338 291 
Q 300 409 138 703 
z
M 2450 2903 
L 2450 3222 
L 1063 3222 
L 1063 2741 
Q 1784 2822 2450 2903 
z
M 1063 3572 
L 2450 3572 
L 2450 3959 
L 1063 3959 
L 1063 3572 
z
M 1063 4309 
L 2450 4309 
L 2450 4697 
L 1063 4697 
L 1063 4309 
z
" transform="scale(0.015625)"/>
      <path id="MicrosoftYaHei-7c7b" d="M 6338 -359 
Q 6213 -503 6006 -853 
Q 3975 -459 3200 884 
Q 2644 -497 400 -897 
Q 288 -684 131 -434 
Q 2244 -147 2744 1047 
L 275 1047 
L 275 1484 
L 2875 1484 
Q 2925 1691 2956 1978 
L 3456 1978 
Q 3413 1697 3369 1484 
L 6125 1484 
L 6125 1047 
L 3619 1047 
Q 4450 -159 6338 -359 
z
M 325 3741 
L 2975 3741 
L 2975 5303 
L 3450 5303 
L 3450 3741 
L 6075 3741 
L 6075 3322 
L 3450 3322 
L 3450 2953 
L 3625 3191 
Q 5325 2528 6231 2128 
L 6013 1722 
Q 4956 2266 3450 2847 
L 3450 2197 
L 2975 2197 
L 2975 3241 
Q 1863 2191 450 1741 
Q 319 1934 144 2153 
Q 1569 2553 2538 3322 
L 325 3322 
L 325 3741 
z
M 5550 4784 
Q 5163 4459 4394 3891 
L 4069 4222 
Q 4569 4578 5194 5122 
L 5550 4784 
z
M 900 4791 
L 1206 5122 
Q 1875 4647 2306 4266 
L 1969 3897 
Q 1581 4284 900 4791 
z
" transform="scale(0.015625)"/>
      <path id="MicrosoftYaHei-3002" d="M 1219 863 
Q 1525 863 1750 625 
Q 1975 388 1975 72 
Q 1975 -284 1747 -507 
Q 1519 -731 1197 -731 
Q 875 -731 642 -503 
Q 409 -275 409 66 
Q 409 413 656 638 
Q 903 863 1219 863 
z
M 1209 -275 
Q 1328 -275 1431 -184 
Q 1534 -94 1534 50 
Q 1534 209 1434 304 
Q 1334 400 1191 400 
Q 1056 400 959 304 
Q 863 209 863 53 
Q 863 -100 977 -187 
Q 1091 -275 1209 -275 
z
" transform="scale(0.015625)"/>
     </defs>
     <use xlink:href="#MicrosoftYaHei-540c"/>
     <use xlink:href="#MicrosoftYaHei-4e00" x="100"/>
     <use xlink:href="#MicrosoftYaHei-20" x="200"/>
     <use xlink:href="#MicrosoftYaHei-50" x="229.589844"/>
     <use xlink:href="#MicrosoftYaHei-4c" x="290.771484"/>
     <use xlink:href="#MicrosoftYaHei-52" x="342.089844"/>
     <use xlink:href="#MicrosoftYaHei-2d" x="407.373047"/>
     <use xlink:href="#MicrosoftYaHei-44" x="450.634766"/>
     <use xlink:href="#MicrosoftYaHei-4d" x="526.806641"/>
     <use xlink:href="#MicrosoftYaHei-4c" x="624.511719"/>
     <use xlink:href="#MicrosoftYaHei-20" x="675.830078"/>
     <use xlink:href="#MicrosoftYaHei-6846" x="705.419922"/>
     <use xlink:href="#MicrosoftYaHei-67b6" x="805.419922"/>
     <use xlink:href="#MicrosoftYaHei-4e0b" x="905.419922"/>
     <use xlink:href="#MicrosoftYaHei-66f4" x="1005.419922"/>
     <use xlink:href="#MicrosoftYaHei-6362" x="1105.419922"/>
     <use xlink:href="#MicrosoftYaHei-20" x="1205.419922"/>
     <use xlink:href="#MicrosoftYaHei-6e" x="1235.009766"/>
     <use xlink:href="#MicrosoftYaHei-75" x="1296.630859"/>
     <use xlink:href="#MicrosoftYaHei-69" x="1358.251953"/>
     <use xlink:href="#MicrosoftYaHei-73" x="1384.863281"/>
     <use xlink:href="#MicrosoftYaHei-61" x="1431.152344"/>
     <use xlink:href="#MicrosoftYaHei-6e" x="1486.425781"/>
     <use xlink:href="#MicrosoftYaHei-63" x="1548.046875"/>
     <use xlink:href="#MicrosoftYaHei-65" x="1598.193359"/>
     <use xlink:href="#MicrosoftYaHei-20" x="1654.931641"/>
     <use xlink:href="#MicrosoftYaHei-6c" x="1684.521484"/>
     <use xlink:href="#MicrosoftYaHei-65" x="1711.132812"/>
     <use xlink:href="#MicrosoftYaHei-61" x="1767.871094"/>
     <use xlink:href="#MicrosoftYaHei-72" x="1823.144531"/>
     <use xlink:href="#MicrosoftYaHei-6e" x="1861.078125"/>
     <use xlink:href="#MicrosoftYaHei-65" x="1922.699219"/>
     <use xlink:href="#MicrosoftYaHei-72" x="1979.4375"/>
     <use xlink:href="#MicrosoftYaHei-ff1b" x="2017.621094"/>
     <use xlink:href="#MicrosoftYaHei-7ebf" x="2117.621094"/>
     <use xlink:href="#MicrosoftYaHei-6bb5" x="2217.621094"/>
     <use xlink:href="#MicrosoftYaHei-4e3a" x="2317.621094"/>
     <use xlink:href="#MicrosoftYaHei-20" x="2417.621094"/>
     <use xlink:href="#MicrosoftYaHei-39" x="2447.210938"/>
     <use xlink:href="#MicrosoftYaHei-35" x="2505.853516"/>
     <use xlink:href="#MicrosoftYaHei-25" x="2564.496094"/>
     <use xlink:href="#MicrosoftYaHei-20" x="2653.460938"/>
     <use xlink:href="#MicrosoftYaHei-7f6e" x="2683.050781"/>
     <use xlink:href="#MicrosoftYaHei-4fe1" x="2783.050781"/>
     <use xlink:href="#MicrosoftYaHei-533a" x="2883.050781"/>
     <use xlink:href="#MicrosoftYaHei-95f4" x="2983.050781"/>
     <use xlink:href="#MicrosoftYaHei-ff0c" x="3083.050781"/>
     <use xlink:href="#MicrosoftYaHei-6807" x="3183.050781"/>
     <use xlink:href="#MicrosoftYaHei-51c6" x="3283.050781"/>
     <use xlink:href="#MicrosoftYaHei-8bef" x="3383.050781"/>
     <use xlink:href="#MicrosoftYaHei-6309" x="3483.050781"/>
     <use xlink:href="#MicrosoftYaHei-7701" x="3583.050781"/>
     <use xlink:href="#MicrosoftYaHei-4efd" x="3683.050781"/>
     <use xlink:href="#MicrosoftYaHei-805a" x="3783.050781"/>
     <use xlink:href="#MicrosoftYaHei-7c7b" x="3883.050781"/>
     <use xlink:href="#MicrosoftYaHei-3002" x="3983.050781"/>
    </g>
   </g>
   <g id="text_18">
    <!-- PLR-DML 不同机器学习方法的处理效应比较 -->
    <g transform="translate(146.492188 19.99)scale(0.16 -0.16)">
     <defs>
      <path id="MicrosoftYaHei-Bold-50" d="M 1591 1688 
L 1591 0 
L 559 0 
L 559 4841 
L 2225 4841 
Q 4031 4841 4031 3309 
Q 4031 2566 3486 2117 
Q 2941 1669 2122 1688 
L 1591 1688 
z
M 1591 4041 
L 1591 2478 
L 2038 2478 
Q 2947 2478 2947 3269 
Q 2947 4041 2047 4041 
L 1591 4041 
z
" transform="scale(0.015625)"/>
      <path id="MicrosoftYaHei-Bold-4c" d="M 3400 0 
L 559 0 
L 559 4841 
L 1591 4841 
L 1591 844 
L 3400 844 
L 3400 0 
z
" transform="scale(0.015625)"/>
      <path id="MicrosoftYaHei-Bold-52" d="M 4553 0 
L 3366 0 
L 2606 1259 
Q 2372 1650 2222 1762 
Q 2072 1875 1903 1875 
L 1591 1875 
L 1591 0 
L 559 0 
L 559 4841 
L 2256 4841 
Q 3984 4841 3984 3528 
Q 3984 3034 3695 2681 
Q 3406 2328 2900 2184 
L 2900 2172 
Q 3234 2059 3641 1434 
L 4553 0 
z
M 1591 4056 
L 1591 2663 
L 2097 2663 
Q 2459 2663 2679 2873 
Q 2900 3084 2900 3400 
Q 2900 4056 2116 4056 
L 1591 4056 
z
" transform="scale(0.015625)"/>
      <path id="MicrosoftYaHei-Bold-2d" d="M 2328 1497 
L 481 1497 
L 481 2209 
L 2328 2209 
L 2328 1497 
z
" transform="scale(0.015625)"/>
      <path id="MicrosoftYaHei-Bold-44" d="M 559 0 
L 559 4841 
L 2231 4841 
Q 4809 4841 4809 2481 
Q 4809 1359 4087 679 
Q 3366 0 2225 0 
L 559 0 
z
M 1591 3997 
L 1591 844 
L 2153 844 
Q 2888 844 3306 1281 
Q 3725 1719 3725 2466 
Q 3725 3188 3287 3592 
Q 2850 3997 2150 3997 
L 1591 3997 
z
" transform="scale(0.015625)"/>
      <path id="MicrosoftYaHei-Bold-4d" d="M 4991 0 
L 4991 2938 
Q 4991 3344 5031 3959 
L 5006 3959 
Q 4913 3494 4856 3338 
L 3663 0 
L 2841 0 
L 1631 3306 
Q 1588 3425 1478 3959 
L 1450 3959 
Q 1491 3350 1491 2738 
L 1491 0 
L 559 0 
L 559 4841 
L 2059 4841 
L 3103 1916 
Q 3234 1553 3281 1234 
L 3303 1234 
Q 3400 1631 3503 1922 
L 4550 4841 
L 6009 4841 
L 6009 0 
L 4991 0 
z
" transform="scale(0.015625)"/>
      <path id="MicrosoftYaHei-Bold-20" transform="scale(0.015625)"/>
      <path id="MicrosoftYaHei-Bold-4e0d" d="M 350 4928 
L 6088 4928 
L 6088 4078 
L 3866 4078 
Q 3659 3556 3375 3072 
L 3675 3072 
L 3675 2341 
L 4300 2928 
Q 5144 2178 6338 1078 
L 5606 359 
Q 4809 1284 3675 2316 
L 3675 -853 
L 2731 -853 
L 2731 2141 
Q 1925 1138 725 303 
Q 525 591 88 1128 
Q 2069 2419 2813 4078 
L 350 4078 
L 350 4928 
z
" transform="scale(0.015625)"/>
      <path id="MicrosoftYaHei-Bold-540c" d="M 381 5078 
L 6019 5078 
L 6019 291 
Q 6019 -253 5776 -523 
Q 5534 -794 5107 -801 
Q 4681 -809 4075 -809 
Q 3981 -309 3881 59 
Q 4272 19 4597 19 
Q 4847 19 4950 45 
Q 5053 72 5117 165 
Q 5181 259 5181 416 
L 5181 4297 
L 1219 4297 
L 1219 -797 
L 381 -797 
L 381 5078 
z
M 4875 3078 
L 1525 3078 
L 1525 3791 
L 4875 3791 
L 4875 3078 
z
M 1738 2591 
L 4638 2591 
L 4638 403 
L 2550 403 
L 2550 3 
L 1738 3 
L 1738 2591 
z
M 3825 1103 
L 3825 1891 
L 2550 1891 
L 2550 1103 
L 3825 1103 
z
" transform="scale(0.015625)"/>
      <path id="MicrosoftYaHei-Bold-673a" d="M 81 1597 
Q 594 2397 841 3372 
L 138 3372 
L 138 4203 
L 856 4203 
L 856 5322 
L 1675 5322 
L 1675 4203 
L 2400 4203 
L 2400 3372 
L 1675 3372 
L 1675 2788 
Q 2072 2559 2538 2272 
L 2131 1566 
L 1675 1888 
L 1675 -809 
L 856 -809 
L 856 1388 
Q 647 919 369 491 
Q 269 903 81 1597 
z
M 5694 1634 
Q 5988 1503 6306 1391 
Q 6241 91 6181 -189 
Q 6122 -469 5961 -580 
Q 5800 -691 5525 -691 
L 5038 -691 
Q 4438 -691 4438 59 
L 4438 4159 
L 3550 4159 
L 3550 2409 
Q 3550 1031 3328 412 
Q 3106 -206 2531 -828 
Q 2238 -478 1875 -84 
Q 2391 466 2548 1023 
Q 2706 1581 2706 2941 
L 2706 5041 
L 5331 5041 
L 5331 316 
Q 5331 103 5469 103 
Q 5544 103 5580 151 
Q 5616 200 5648 562 
Q 5681 925 5694 1634 
z
" transform="scale(0.015625)"/>
      <path id="MicrosoftYaHei-Bold-5668" d="M 506 5059 
L 2956 5059 
L 2956 3297 
L 506 3297 
L 506 5059 
z
M 2194 3934 
L 2194 4422 
L 1269 4422 
L 1269 3934 
L 2194 3934 
z
M 3444 5059 
L 5888 5059 
L 5888 3297 
L 3444 3297 
L 3444 5059 
z
M 5125 3934 
L 5125 4422 
L 4213 4422 
L 4213 3934 
L 5125 3934 
z
M 3438 -797 
L 3438 1228 
L 4738 1228 
Q 3700 1456 3194 1984 
Q 2763 1466 1522 1228 
L 2950 1228 
L 2950 -809 
L 2225 -809 
L 2225 -572 
L 1231 -572 
L 1231 -809 
L 506 -809 
L 506 1097 
Q 372 1084 231 1078 
Q 194 1378 100 1716 
Q 2025 1766 2428 2253 
L 181 2253 
L 181 2891 
L 2728 2891 
Q 2756 3034 2769 3203 
L 3644 3203 
Q 3628 3038 3600 2891 
L 4444 2891 
L 4344 3134 
L 5144 3234 
L 5288 2891 
L 6231 2891 
L 6231 2253 
L 3772 2253 
Q 4438 1738 6306 1709 
Q 6200 1359 6144 1066 
Q 6013 1069 5888 1078 
L 5888 -809 
L 5163 -809 
L 5163 -572 
L 4163 -572 
L 4163 -797 
L 3438 -797 
z
M 5163 591 
L 4163 591 
L 4163 66 
L 5163 66 
L 5163 591 
z
M 2225 591 
L 1231 591 
L 1231 66 
L 2225 66 
L 2225 591 
z
" transform="scale(0.015625)"/>
      <path id="MicrosoftYaHei-Bold-5b66" d="M 1425 5341 
Q 1800 4916 2188 4391 
L 1909 4203 
L 2953 4203 
Q 2691 4706 2469 5053 
L 3231 5391 
Q 3481 5009 3819 4403 
L 3388 4203 
L 4153 4203 
Q 4581 4819 4875 5272 
L 5719 4809 
L 5213 4203 
L 6113 4203 
L 6113 2666 
L 5238 2666 
L 5238 3441 
L 1156 3441 
L 1156 2666 
L 281 2666 
L 281 4203 
L 1303 4203 
Q 1028 4581 769 4897 
L 1425 5341 
z
M 175 1528 
L 2906 1528 
L 2906 1691 
L 3744 2234 
L 1456 2234 
L 1456 2997 
L 4975 2997 
L 4975 2241 
L 3900 1528 
L 6231 1528 
L 6231 753 
L 3806 753 
L 3806 116 
Q 3806 -316 3565 -556 
Q 3325 -797 2829 -800 
Q 2334 -803 1813 -803 
Q 1725 -372 1600 22 
Q 2075 -3 2469 -3 
Q 2906 -3 2906 378 
L 2906 753 
L 175 753 
L 175 1528 
z
" transform="scale(0.015625)"/>
      <path id="MicrosoftYaHei-Bold-4e60" d="M 3431 -709 
Q 3344 -272 3206 241 
Q 3878 197 4350 197 
Q 4750 197 4826 562 
Q 4903 928 4925 4066 
L 500 4066 
L 500 4903 
L 5863 4903 
Q 5853 3694 5813 2238 
L 5750 353 
Q 5728 -75 5509 -334 
Q 5291 -594 4930 -647 
Q 4569 -700 3431 -709 
z
M 1300 3259 
L 1813 3916 
Q 2806 3241 3500 2709 
L 2881 1959 
Q 2088 2647 1300 3259 
z
M 300 1009 
Q 2669 1666 4656 2372 
Q 4656 2078 4669 1484 
Q 2856 822 625 53 
L 300 1009 
z
" transform="scale(0.015625)"/>
      <path id="MicrosoftYaHei-Bold-65b9" d="M 2975 -747 
Q 2863 -184 2750 209 
Q 3528 178 3822 178 
Q 4031 178 4142 214 
Q 4253 250 4325 329 
Q 4397 409 4422 509 
Q 4447 609 4476 1196 
Q 4506 1784 4506 2003 
L 2531 2003 
Q 2341 213 769 -878 
Q 613 -653 94 -53 
Q 784 397 1142 962 
Q 1500 1528 1562 2073 
Q 1625 2619 1641 3628 
L 231 3628 
L 231 4453 
L 2828 4453 
L 2581 5084 
L 3575 5316 
Q 3781 4800 3888 4453 
L 6175 4453 
L 6175 3628 
L 2594 3628 
Q 2588 3241 2572 2828 
L 5494 2828 
Q 5466 2006 5419 1132 
Q 5372 259 5330 46 
Q 5288 -166 5152 -352 
Q 5016 -538 4825 -617 
Q 4634 -697 4232 -722 
Q 3831 -747 2975 -747 
z
" transform="scale(0.015625)"/>
      <path id="MicrosoftYaHei-Bold-6cd5" d="M 5006 1441 
Q 5763 478 6313 -453 
L 5525 -897 
L 5275 -472 
Q 2816 -559 2088 -647 
L 1769 72 
Q 2419 616 3081 1747 
L 1775 1747 
L 1775 2491 
L 3581 2491 
L 3581 3603 
L 2050 3603 
L 2050 4347 
L 3581 4347 
L 3581 5347 
L 4444 5347 
L 4444 4347 
L 6013 4347 
L 6013 3603 
L 4444 3603 
L 4444 2491 
L 6288 2491 
L 6288 1747 
L 4122 1747 
Q 3622 928 3019 216 
Q 3825 238 4806 288 
Q 4541 697 4294 1041 
L 5006 1441 
z
M 844 5222 
Q 1419 4828 1950 4403 
L 1388 3766 
Q 838 4259 306 4647 
L 844 5222 
z
M 631 3591 
Q 1175 3216 1706 2753 
L 1119 2103 
Q 669 2553 88 3003 
L 631 3591 
z
M 994 1903 
Q 1356 1722 1813 1578 
Q 1406 409 1069 -803 
Q 625 -634 219 -509 
Q 619 572 994 1903 
z
" transform="scale(0.015625)"/>
      <path id="MicrosoftYaHei-Bold-7684" d="M 1250 5303 
L 2181 5159 
L 1900 4309 
L 2963 4309 
L 2963 3091 
Q 3466 3934 3925 5316 
L 4788 5091 
Q 4650 4675 4494 4278 
L 6106 4278 
L 6034 681 
Q 6019 100 5937 -133 
Q 5856 -366 5684 -512 
Q 5513 -659 5205 -712 
Q 4897 -766 3863 -766 
Q 3769 -216 3625 178 
Q 4088 141 4609 141 
Q 4759 141 4868 175 
Q 4978 209 5048 279 
Q 5119 350 5144 437 
Q 5169 525 5184 1206 
L 5213 2484 
Q 5225 3081 5225 3453 
L 4138 3453 
Q 3931 3016 3700 2603 
Q 3403 2797 2963 2988 
L 2963 -734 
L 2094 -734 
L 2094 -284 
L 1206 -284 
L 1206 -772 
L 338 -772 
L 338 4309 
L 997 4309 
Q 1178 4922 1250 5303 
z
M 2094 3491 
L 1206 3491 
L 1206 2422 
L 2094 2422 
L 2094 3491 
z
M 1206 534 
L 2094 534 
L 2094 1603 
L 1206 1603 
L 1206 534 
z
M 3944 2703 
Q 4394 2166 4913 1397 
L 4125 872 
Q 3650 1653 3219 2203 
L 3944 2703 
z
" transform="scale(0.015625)"/>
      <path id="MicrosoftYaHei-Bold-5904" d="M 1075 5353 
L 1881 5253 
Q 1781 4738 1666 4266 
L 3194 4266 
L 3194 3516 
Q 3194 3166 3006 2373 
Q 2819 1581 2384 859 
Q 3200 166 4925 166 
Q 5678 166 6325 216 
Q 6163 -153 6013 -709 
Q 4525 -691 3987 -639 
Q 3450 -588 2884 -372 
Q 2319 -156 1909 206 
Q 1381 -409 638 -872 
Q 256 -359 69 -178 
Q 847 259 1363 853 
Q 1069 1319 850 1988 
Q 672 1631 475 1322 
Q 281 1816 44 2266 
Q 725 3391 1075 5353 
z
M 1841 1534 
Q 2319 2391 2375 3491 
L 1447 3491 
Q 1388 3297 1322 3109 
Q 1500 2150 1841 1534 
z
M 3700 5291 
L 4550 5291 
L 4550 372 
L 3700 372 
L 3700 5291 
z
M 5194 3909 
Q 5744 3234 6313 2416 
L 5581 1909 
Q 5138 2678 4556 3484 
L 5194 3909 
z
" transform="scale(0.015625)"/>
      <path id="MicrosoftYaHei-Bold-7406" d="M 256 -503 
L 81 384 
L 825 553 
L 825 2091 
L 225 2091 
L 225 2866 
L 825 2866 
L 825 4178 
L 200 4178 
L 200 4966 
L 2250 4966 
L 2250 4178 
L 1625 4178 
L 1625 2866 
L 2206 2866 
L 2206 2091 
L 1625 2091 
L 1625 756 
Q 1959 847 2275 941 
Q 2250 497 2269 84 
L 3819 84 
L 3819 628 
L 2394 628 
L 2394 1341 
L 3819 1341 
L 3819 1791 
L 2425 1791 
L 2425 5034 
L 6013 5034 
L 6013 1791 
L 4619 1791 
L 4619 1341 
L 6044 1341 
L 6044 628 
L 4619 628 
L 4619 84 
L 6319 84 
L 6319 -628 
L 2031 -628 
L 2031 31 
Q 1206 -197 256 -503 
z
M 5231 4334 
L 4619 4334 
L 4619 3741 
L 5231 3741 
L 5231 4334 
z
M 3206 3741 
L 3819 3741 
L 3819 4334 
L 3206 4334 
L 3206 3741 
z
M 5231 2491 
L 5231 3091 
L 4619 3091 
L 4619 2491 
L 5231 2491 
z
M 3206 2491 
L 3819 2491 
L 3819 3091 
L 3206 3091 
L 3206 2491 
z
" transform="scale(0.015625)"/>
      <path id="MicrosoftYaHei-Bold-6548" d="M 1169 2122 
L 1806 1500 
Q 2019 1891 2131 2341 
L 2778 2159 
Q 2425 2663 1944 3203 
L 2550 3634 
Q 2841 3325 3084 3041 
Q 3653 4084 3956 5359 
L 4769 5247 
Q 4666 4809 4506 4366 
L 6294 4366 
L 6294 3534 
L 5931 3534 
Q 5778 1931 5213 928 
Q 5666 353 6319 22 
Q 6100 -278 5788 -809 
Q 5156 -378 4703 216 
Q 4141 -419 3331 -866 
Q 3069 -478 2756 -147 
Q 3644 325 4213 1000 
Q 3863 1697 3688 2556 
Q 3534 2281 3363 2003 
Q 3259 2166 3128 2363 
L 2838 2144 
L 2919 2122 
Q 2725 1472 2394 919 
Q 2791 519 3081 209 
L 2475 -372 
Q 2219 -59 1928 266 
Q 1375 -388 581 -866 
Q 350 -484 56 -91 
Q 856 300 1366 872 
Q 1013 1241 619 1628 
L 1169 2122 
z
M 4713 1772 
Q 5038 2481 5147 3534 
L 4256 3534 
Q 4378 2525 4713 1772 
z
M 200 4553 
L 1388 4553 
Q 1294 4847 1163 5178 
L 2000 5359 
Q 2163 4922 2259 4553 
L 3325 4553 
L 3325 3778 
L 200 3778 
L 200 4553 
z
M 950 3609 
L 1663 3272 
Q 1200 2441 625 1872 
Q 269 2284 75 2466 
Q 588 2984 950 3609 
z
" transform="scale(0.015625)"/>
      <path id="MicrosoftYaHei-Bold-5e94" d="M 1438 2491 
Q 1438 119 794 -866 
Q 506 -597 88 -266 
Q 619 622 613 2603 
L 613 4566 
L 3009 4566 
Q 2894 4853 2781 5116 
L 3788 5353 
Q 3928 5016 4103 4566 
L 6225 4566 
L 6225 3797 
L 1438 3797 
L 1438 2491 
z
M 3013 3309 
L 3794 3541 
Q 4125 2678 4513 1316 
L 3669 1084 
Q 3300 2416 3013 3309 
z
M 1325 316 
L 4300 316 
Q 4681 1541 5200 3453 
L 6069 3228 
Q 5744 2006 5184 316 
L 6250 316 
L 6250 -553 
L 1325 -553 
L 1325 316 
z
M 1475 2984 
L 2225 3303 
Q 2775 2103 3244 828 
L 2406 516 
Q 2006 1684 1475 2984 
z
" transform="scale(0.015625)"/>
      <path id="MicrosoftYaHei-Bold-6bd4" d="M 5481 4441 
L 6294 3803 
Q 5234 2791 4119 1894 
L 4119 547 
Q 4119 153 4438 153 
L 4875 153 
Q 5119 153 5197 325 
Q 5275 497 5363 1597 
Q 5856 1409 6294 1278 
Q 6231 688 6131 248 
Q 6031 -191 5900 -358 
Q 5769 -525 5511 -617 
Q 5253 -709 4881 -709 
L 4094 -709 
Q 3194 -709 3194 247 
L 3194 5316 
L 4119 5316 
L 4119 3009 
Q 4797 3656 5481 4441 
z
M 1419 5241 
L 1419 3453 
L 2850 3453 
L 2850 2591 
L 1419 2591 
L 1419 372 
L 2869 866 
Q 2856 372 2888 -78 
Q 1500 -503 725 -922 
L 275 -184 
Q 494 -16 494 366 
L 494 5241 
L 1419 5241 
z
" transform="scale(0.015625)"/>
      <path id="MicrosoftYaHei-Bold-8f83" d="M 2447 2416 
Q 2975 2934 3525 3716 
L 2750 3716 
L 2750 4484 
L 3997 4484 
Q 3841 4809 3681 5109 
L 4469 5353 
Q 4713 4947 4869 4634 
L 4400 4484 
L 6206 4484 
L 6206 3716 
L 5147 3716 
Q 5775 3147 6325 2553 
L 5725 2003 
Q 5325 2491 4563 3291 
L 5088 3716 
L 3581 3716 
L 4213 3316 
Q 3669 2553 2963 1891 
Q 2863 2013 2519 2369 
L 2519 1678 
L 2063 1678 
L 2063 1150 
L 2806 1241 
Q 2750 991 2756 466 
L 2063 394 
L 2063 -859 
L 1313 -859 
L 1313 309 
Q 650 234 163 166 
L 88 953 
L 1313 1069 
L 1313 1678 
L 188 1678 
L 188 2403 
Q 372 3075 534 3753 
L 106 3753 
L 106 4491 
L 706 4491 
L 888 5334 
L 1656 5228 
L 1488 4491 
L 2494 4491 
L 2494 3753 
L 1303 3753 
Q 1138 3097 944 2416 
L 1313 2416 
L 1313 3428 
L 2063 3428 
L 2063 2416 
L 2447 2416 
z
M 3881 2328 
Q 4081 1788 4384 1366 
Q 4703 1828 4869 2403 
L 5625 2109 
Q 5350 1366 4925 775 
Q 5506 275 6325 34 
L 5863 -822 
Q 5022 -456 4394 159 
Q 3753 -475 2869 -872 
Q 2663 -516 2369 -72 
Q 3269 244 3866 778 
Q 3456 1344 3175 2059 
L 3881 2328 
z
" transform="scale(0.015625)"/>
     </defs>
     <use xlink:href="#MicrosoftYaHei-Bold-50"/>
     <use xlink:href="#MicrosoftYaHei-Bold-4c" x="65.722656"/>
     <use xlink:href="#MicrosoftYaHei-Bold-52" x="120.410156"/>
     <use xlink:href="#MicrosoftYaHei-Bold-2d" x="190.234375"/>
     <use xlink:href="#MicrosoftYaHei-Bold-44" x="233.886719"/>
     <use xlink:href="#MicrosoftYaHei-Bold-4d" x="313.037109"/>
     <use xlink:href="#MicrosoftYaHei-Bold-4c" x="415.869141"/>
     <use xlink:href="#MicrosoftYaHei-Bold-20" x="470.556641"/>
     <use xlink:href="#MicrosoftYaHei-Bold-4e0d" x="500.341797"/>
     <use xlink:href="#MicrosoftYaHei-Bold-540c" x="600.341797"/>
     <use xlink:href="#MicrosoftYaHei-Bold-673a" x="700.341797"/>
     <use xlink:href="#MicrosoftYaHei-Bold-5668" x="800.341797"/>
     <use xlink:href="#MicrosoftYaHei-Bold-5b66" x="900.341797"/>
     <use xlink:href="#MicrosoftYaHei-Bold-4e60" x="1000.341797"/>
     <use xlink:href="#MicrosoftYaHei-Bold-65b9" x="1100.341797"/>
     <use xlink:href="#MicrosoftYaHei-Bold-6cd5" x="1200.341797"/>
     <use xlink:href="#MicrosoftYaHei-Bold-7684" x="1300.341797"/>
     <use xlink:href="#MicrosoftYaHei-Bold-5904" x="1400.341797"/>
     <use xlink:href="#MicrosoftYaHei-Bold-7406" x="1500.341797"/>
     <use xlink:href="#MicrosoftYaHei-Bold-6548" x="1600.341797"/>
     <use xlink:href="#MicrosoftYaHei-Bold-5e94" x="1700.341797"/>
     <use xlink:href="#MicrosoftYaHei-Bold-6bd4" x="1800.341797"/>
     <use xlink:href="#MicrosoftYaHei-Bold-8f83" x="1900.341797"/>
    </g>
   </g>
  </g>
 </g>
 <defs>
  <clipPath id="p3a3fb1482c">
   <rect x="146.492188" y="25.99" width="501.86" height="271.315"/>
  </clipPath>
 </defs>
</svg>
