<svg xmlns="http://www.w3.org/2000/svg" width="1120" height="560" viewBox="0 0 1120 560">
<rect width="100%" height="100%" fill="#ffffff"/>
<rect x="8" y="8" width="1104" height="544" fill="#ffffff" stroke="#d7dee8"/>
<text x="48" y="62" font-size="28" font-weight="800" fill="#13233a">处理效应</text>
<line x1="48" y1="88" x2="1075" y2="88" stroke="#e5eaf0"/>
<line x1="282.7" y1="102" x2="282.7" y2="435" stroke="#e8edf4"/>
<text x="282.7" y="468" text-anchor="middle" font-size="14" fill="#49627f">0.0</text>
<line x1="456.0" y1="102" x2="456.0" y2="435" stroke="#e8edf4"/>
<text x="456.0" y="468" text-anchor="middle" font-size="14" fill="#49627f">0.5</text>
<line x1="629.2" y1="102" x2="629.2" y2="435" stroke="#e8edf4"/>
<text x="629.2" y="468" text-anchor="middle" font-size="14" fill="#49627f">1.0</text>
<line x1="802.5" y1="102" x2="802.5" y2="435" stroke="#e8edf4"/>
<text x="802.5" y="468" text-anchor="middle" font-size="14" fill="#49627f">1.5</text>
<line x1="975.7" y1="102" x2="975.7" y2="435" stroke="#e8edf4"/>
<text x="975.7" y="468" text-anchor="middle" font-size="14" fill="#49627f">2.0</text>
<line x1="282.7" y1="96" x2="282.7" y2="445" stroke="#13233a" stroke-dasharray="5,5" stroke-width="1.3"/>
<text x="48" y="114" font-size="18" fill="#111827">Fuzzy DID <tspan font-size="14">***</tspan></text>
<line x1="375.5" y1="108" x2="577.5" y2="108" stroke="#ef4444" stroke-width="3"/>
<line x1="375.5" y1="99" x2="375.5" y2="117" stroke="#ef4444" stroke-width="2"/>
<line x1="577.5" y1="99" x2="577.5" y2="117" stroke="#ef4444" stroke-width="2"/>
<circle cx="476.5" cy="108" r="8" fill="#ef4444" stroke="#ffffff" stroke-width="2"/>
<text x="591.5" y="113" font-size="14" fill="#405a78">0.559 [0.268, 0.851]</text>
<text x="48" y="196" font-size="18" fill="#111827">PLR-DML/DR <tspan font-size="14">***</tspan></text>
<line x1="379.6" y1="190" x2="591.8" y2="190" stroke="#00a6b4" stroke-width="3"/>
<line x1="379.6" y1="181" x2="379.6" y2="199" stroke="#00a6b4" stroke-width="2"/>
<line x1="591.8" y1="181" x2="591.8" y2="199" stroke="#00a6b4" stroke-width="2"/>
<circle cx="485.7" cy="190" r="8" fill="#00a6b4" stroke="#ffffff" stroke-width="2"/>
<text x="605.8" y="195" font-size="14" fill="#405a78">0.586 [0.280, 0.892]</text>
<text x="48" y="278" font-size="18" fill="#111827">EM-GMM/CATE <tspan font-size="14">***</tspan></text>
<line x1="728.0" y1="272" x2="978.4" y2="272" stroke="#7c3aed" stroke-width="3"/>
<line x1="728.0" y1="263" x2="728.0" y2="281" stroke="#7c3aed" stroke-width="2"/>
<line x1="978.4" y1="263" x2="978.4" y2="281" stroke="#7c3aed" stroke-width="2"/>
<circle cx="853.2" cy="272" r="8" fill="#7c3aed" stroke="#ffffff" stroke-width="2"/>
<text x="992.4" y="277" font-size="14" fill="#405a78">1.646 [1.285, 2.008]</text>
<text x="48" y="360" font-size="18" fill="#111827">Partial Identification <tspan font-size="14"></tspan></text>
<line x1="375.5" y1="354" x2="591.8" y2="354" stroke="#2f6f91" stroke-width="3"/>
<line x1="375.5" y1="345" x2="375.5" y2="363" stroke="#2f6f91" stroke-width="2"/>
<line x1="591.8" y1="345" x2="591.8" y2="363" stroke="#2f6f91" stroke-width="2"/>
<circle cx="481.1" cy="354" r="8" fill="#2f6f91" stroke="#ffffff" stroke-width="2"/>
<text x="605.8" y="359" font-size="14" fill="#405a78">0.573 [0.268, 0.892]</text>
<text x="48" y="515" font-size="13" fill="#4b6380">注：线为 95% 置信区间；标准误按省份层面聚类。图中仅展示四类核心模型对 CreditSec 的处理效应。</text>
</svg>